<svg xmlns="http://www.w3.org/2000/svg" xmlns:xlink="http://www.w3.org/1999/xlink" contentStyleType="text/css" data-diagram-type="CLASS" height="730px" preserveAspectRatio="none" style="width:1382px;height:730px;background:#F0F0F0;" version="1.1" viewBox="0 0 1382 730" width="1382px" zoomAndPan="magnify"><title>30-class-AuthController / static structure</title><defs/><g><rect fill="#F0F0F0" height="730" style="stroke:none;stroke-width:1;" width="1382" x="0" y="0"/><g class="title" data-source-line="1"><text fill="#000000" font-family="sans-serif" font-size="14" font-weight="bold" lengthAdjust="spacing" textLength="285.4729" x="541.4771" y="24.9659">30-class-AuthController / static structure</text></g><!--cluster app--><g class="cluster" data-entity="app" data-source-line="6" data-uid="ent0004" id="cluster_app"><path d="M8.5,46.6699 L35.6799,46.6699 A3.75,3.75 0 0 1 38.1799,49.1699 L45.1799,71.7378 L1116.5,71.7378 A2.5,2.5 0 0 1 1119,74.2378 L1119,721.1699 A2.5,2.5 0 0 1 1116.5,723.6699 L8.5,723.6699 A2.5,2.5 0 0 1 6,721.1699 L6,49.1699 A2.5,2.5 0 0 1 8.5,46.6699" fill="none" style="stroke:#000000;stroke-width:1.5;"/><line style="stroke:#000000;stroke-width:1.5;" x1="6" x2="45.1799" y1="71.7378" y2="71.7378"/><text fill="#000000" font-family="sans-serif" font-size="14" font-weight="bold" lengthAdjust="spacing" textLength="26.1799" x="10" y="63.6358">app</text></g><!--cluster api--><g class="cluster" data-entity="api" data-source-line="6" data-uid="ent0005" id="cluster_api"><path d="M449.5,92.6699 L472.0879,92.6699 A3.75,3.75 0 0 1 474.5879,95.1699 L481.5879,117.7378 L970.5,117.7378 A2.5,2.5 0 0 1 973,120.2378 L973,333.1699 A2.5,2.5 0 0 1 970.5,335.6699 L449.5,335.6699 A2.5,2.5 0 0 1 447,333.1699 L447,95.1699 A2.5,2.5 0 0 1 449.5,92.6699" fill="none" style="stroke:#000000;stroke-width:1.5;"/><line style="stroke:#000000;stroke-width:1.5;" x1="447" x2="481.5879" y1="117.7378" y2="117.7378"/><text fill="#000000" font-family="sans-serif" font-size="14" font-weight="bold" lengthAdjust="spacing" textLength="21.5879" x="451" y="109.6358">api</text></g><!--cluster v1--><g class="cluster" data-entity="v1" data-source-line="4" data-uid="ent0002" id="cluster_v1"><path d="M473.5,138.6699 L490.4739,138.6699 A3.75,3.75 0 0 1 492.9739,141.1699 L499.9739,163.7378 L946.5,163.7378 A2.5,2.5 0 0 1 949,166.2378 L949,309.1699 A2.5,2.5 0 0 1 946.5,311.6699 L473.5,311.6699 A2.5,2.5 0 0 1 471,309.1699 L471,141.1699 A2.5,2.5 0 0 1 473.5,138.6699" fill="none" style="stroke:#000000;stroke-width:1.5;"/><line style="stroke:#000000;stroke-width:1.5;" x1="471" x2="499.9739" y1="163.7378" y2="163.7378"/><text fill="#000000" font-family="sans-serif" font-size="14" font-weight="bold" lengthAdjust="spacing" textLength="15.9739" x="475" y="155.6358">v1</text></g><!--cluster services--><g class="cluster" data-entity="services" data-source-line="13" data-uid="ent0006" id="cluster_services"><path d="M32.5,488.1699 L89.7518,488.1699 A3.75,3.75 0 0 1 92.2518,490.6699 L99.2518,513.2378 L391.5,513.2378 A2.5,2.5 0 0 1 394,515.7378 L394,639.6699 A2.5,2.5 0 0 1 391.5,642.1699 L32.5,642.1699 A2.5,2.5 0 0 1 30,639.6699 L30,490.6699 A2.5,2.5 0 0 1 32.5,488.1699" fill="none" style="stroke:#000000;stroke-width:1.5;"/><line style="stroke:#000000;stroke-width:1.5;" x1="30" x2="99.2518" y1="513.2378" y2="513.2378"/><text fill="#000000" font-family="sans-serif" font-size="14" font-weight="bold" lengthAdjust="spacing" textLength="56.2518" x="34" y="505.1358">services</text></g><!--cluster models--><g class="cluster" data-entity="models" data-source-line="21" data-uid="ent0010" id="cluster_models"><path d="M420.5,386.6699 L472.2778,386.6699 A3.75,3.75 0 0 1 474.7778,389.1699 L481.7778,411.7378 L842.5,411.7378 A2.5,2.5 0 0 1 845,414.2378 L845,697.1699 A2.5,2.5 0 0 1 842.5,699.6699 L420.5,699.6699 A2.5,2.5 0 0 1 418,697.1699 L418,389.1699 A2.5,2.5 0 0 1 420.5,386.6699" fill="none" style="stroke:#000000;stroke-width:1.5;"/><line style="stroke:#000000;stroke-width:1.5;" x1="418" x2="481.7778" y1="411.7378" y2="411.7378"/><text fill="#000000" font-family="sans-serif" font-size="14" font-weight="bold" lengthAdjust="spacing" textLength="50.7778" x="422" y="403.6358">models</text></g><!--cluster schemas--><g class="cluster" data-entity="schemas" data-source-line="21" data-uid="ent0011" id="cluster_schemas"><path d="M444.5,432.6699 L506.2878,432.6699 A3.75,3.75 0 0 1 508.7878,435.1699 L515.7878,457.7378 L818.5,457.7378 A2.5,2.5 0 0 1 821,460.2378 L821,673.1699 A2.5,2.5 0 0 1 818.5,675.6699 L444.5,675.6699 A2.5,2.5 0 0 1 442,673.1699 L442,435.1699 A2.5,2.5 0 0 1 444.5,432.6699" fill="none" style="stroke:#000000;stroke-width:1.5;"/><line style="stroke:#000000;stroke-width:1.5;" x1="442" x2="515.7878" y1="457.7378" y2="457.7378"/><text fill="#000000" font-family="sans-serif" font-size="14" font-weight="bold" lengthAdjust="spacing" textLength="60.7878" x="446" y="449.6358">schemas</text></g><!--cluster auth--><g class="cluster" data-entity="auth" data-source-line="20" data-uid="ent0008" id="cluster_auth"><path d="M468.5,478.6699 L502.4279,478.6699 A3.75,3.75 0 0 1 504.9279,481.1699 L511.9279,503.7378 L794.5,503.7378 A2.5,2.5 0 0 1 797,506.2378 L797,649.1699 A2.5,2.5 0 0 1 794.5,651.6699 L468.5,651.6699 A2.5,2.5 0 0 1 466,649.1699 L466,481.1699 A2.5,2.5 0 0 1 468.5,478.6699" fill="none" style="stroke:#000000;stroke-width:1.5;"/><line style="stroke:#000000;stroke-width:1.5;" x1="466" x2="511.9279" y1="503.7378" y2="503.7378"/><text fill="#000000" font-family="sans-serif" font-size="14" font-weight="bold" lengthAdjust="spacing" textLength="32.9279" x="470" y="495.6358">auth</text></g><!--cluster core--><g class="cluster" data-entity="core" data-source-line="33" data-uid="ent0013" id="cluster_core"><path d="M871.5,469.1699 L902.9919,469.1699 A3.75,3.75 0 0 1 905.4919,471.6699 L912.4919,494.2378 L1092.5,494.2378 A2.5,2.5 0 0 1 1095,496.7378 L1095,658.6699 A2.5,2.5 0 0 1 1092.5,661.1699 L871.5,661.1699 A2.5,2.5 0 0 1 869,658.6699 L869,471.6699 A2.5,2.5 0 0 1 871.5,469.1699" fill="none" style="stroke:#000000;stroke-width:1.5;"/><line style="stroke:#000000;stroke-width:1.5;" x1="869" x2="912.4919" y1="494.2378" y2="494.2378"/><text fill="#000000" font-family="sans-serif" font-size="14" font-weight="bold" lengthAdjust="spacing" textLength="30.4919" x="873" y="486.1358">core</text></g><!--class AuthController--><g class="entity" data-entity="AuthController" data-source-line="6" data-uid="ent0003" id="entity_AuthController"><rect fill="#F1F1F1" height="118.6158" rx="2.5" ry="2.5" style="stroke:#181818;stroke-width:0.5;" width="445.3824" x="487.5" y="176.6699"/><ellipse cx="657.2004" cy="199.3759" fill="#ADD1B2" rx="11" ry="11" style="stroke:#181818;stroke-width:1;"/><path d="M660.1691,205.0165 Q659.591,205.3134 658.9504,205.454 Q658.3097,205.6103 657.6066,205.6103 Q655.1066,205.6103 653.7785,203.9697 Q652.466,202.3134 652.466,199.1884 Q652.466,196.0634 653.7785,194.4072 Q655.1066,192.7509 657.6066,192.7509 Q658.3097,192.7509 658.9504,192.9072 Q659.6066,193.0634 660.1691,193.3603 L660.1691,196.079 Q659.5441,195.5009 658.9504,195.2353 Q658.3566,194.954 657.7316,194.954 Q656.3879,194.954 655.7004,196.0322 Q655.0129,197.0947 655.0129,199.1884 Q655.0129,201.2822 655.7004,202.3603 Q656.3879,203.4228 657.7316,203.4228 Q658.3566,203.4228 658.9504,203.1572 Q659.5441,202.8759 660.1691,202.2978 L660.1691,205.0165 Z " fill="#000000"/><text fill="#000000" font-family="sans-serif" font-size="12" font-style="italic" lengthAdjust="spacing" textLength="44.6763" x="704.103" y="194.498">&#171;router&#187;</text><text fill="#000000" font-family="sans-serif" font-size="14" lengthAdjust="spacing" textLength="97.4816" x="677.7004" y="212.9799">AuthController</text><line style="stroke:#181818;stroke-width:0.5;" x1="488.5" x2="931.8824" y1="222.0819" y2="222.0819"/><line style="stroke:#181818;stroke-width:0.5;" x1="488.5" x2="931.8824" y1="230.0819" y2="230.0819"/><ellipse cx="498.5" cy="245.1159" fill="#84BE84" rx="3" ry="3" style="stroke:#038048;stroke-width:1;"/><text fill="#000000" font-family="sans-serif" font-size="14" lengthAdjust="spacing" textLength="419.3824" x="507.5" y="249.0479">login(payload: LoginRequest, svc: AuthService) : TokenResponse</text><ellipse cx="498.5" cy="264.1838" fill="#84BE84" rx="3" ry="3" style="stroke:#038048;stroke-width:1;"/><text fill="#000000" font-family="sans-serif" font-size="14" lengthAdjust="spacing" textLength="400.4404" x="507.5" y="268.1158">refresh(refresh_token: str, svc: AuthService) : TokenResponse</text><ellipse cx="498.5" cy="283.2517" fill="#84BE84" rx="3" ry="3" style="stroke:#038048;stroke-width:1;"/><text fill="#000000" font-family="sans-serif" font-size="14" lengthAdjust="spacing" textLength="230.9851" x="507.5" y="287.1837">me(ctx: UserContext) : UserContext</text></g><!--class AuthService--><g class="entity" data-entity="AuthService" data-source-line="14" data-uid="ent0007" id="entity_AuthService"><rect fill="#F1F1F1" height="99.5479" rx="2.5" ry="2.5" style="stroke:#181818;stroke-width:0.5;" width="332.0528" x="46" y="526.1699"/><ellipse cx="168.7726" cy="548.8759" fill="#ADD1B2" rx="11" ry="11" style="stroke:#181818;stroke-width:1;"/><path d="M171.7413,554.5165 Q171.1632,554.8134 170.5226,554.954 Q169.8819,555.1103 169.1788,555.1103 Q166.6788,555.1103 165.3507,553.4697 Q164.0382,551.8134 164.0382,548.6884 Q164.0382,545.5634 165.3507,543.9072 Q166.6788,542.2509 169.1788,542.2509 Q169.8819,542.2509 170.5226,542.4072 Q171.1788,542.5634 171.7413,542.8603 L171.7413,545.579 Q171.1163,545.0009 170.5226,544.7353 Q169.9288,544.454 169.3038,544.454 Q167.9601,544.454 167.2726,545.5322 Q166.5851,546.5947 166.5851,548.6884 Q166.5851,550.7822 167.2726,551.8603 Q167.9601,552.9228 169.3038,552.9228 Q169.9288,552.9228 170.5226,552.6572 Q171.1163,552.3759 171.7413,551.7978 L171.7413,554.5165 Z " fill="#000000"/><text fill="#000000" font-family="sans-serif" font-size="12" font-style="italic" lengthAdjust="spacing" textLength="47.5203" x="204.5163" y="543.998">&#171;service&#187;</text><text fill="#000000" font-family="sans-serif" font-size="14" lengthAdjust="spacing" textLength="78.0077" x="189.2726" y="562.4799">AuthService</text><line style="stroke:#181818;stroke-width:0.5;" x1="47" x2="377.0528" y1="571.5819" y2="571.5819"/><line style="stroke:#181818;stroke-width:0.5;" x1="47" x2="377.0528" y1="579.5819" y2="579.5819"/><ellipse cx="57" cy="594.6159" fill="#84BE84" rx="3" ry="3" style="stroke:#038048;stroke-width:1;"/><text fill="#000000" font-family="sans-serif" font-size="14" lengthAdjust="spacing" textLength="306.0528" x="66" y="598.5479">login(payload: LoginRequest) : TokenResponse</text><ellipse cx="57" cy="613.6838" fill="#84BE84" rx="3" ry="3" style="stroke:#038048;stroke-width:1;"/><text fill="#000000" font-family="sans-serif" font-size="14" lengthAdjust="spacing" textLength="287.1109" x="66" y="617.6158">refresh(refresh_token: str) : TokenResponse</text></g><!--class LoginRequest--><g class="entity" data-entity="LoginRequest" data-source-line="21" data-uid="ent0009" id="entity_LoginRequest"><rect fill="#F1F1F1" height="99.5479" rx="2.5" ry="2.5" style="stroke:#181818;stroke-width:0.5;" width="122.2016" x="482" y="526.1699"/><ellipse cx="497" cy="548.8759" fill="#ADD1B2" rx="11" ry="11" style="stroke:#181818;stroke-width:1;"/><path d="M499.9688,554.5165 Q499.3906,554.8134 498.75,554.954 Q498.1094,555.1103 497.4063,555.1103 Q494.9063,555.1103 493.5781,553.4697 Q492.2656,551.8134 492.2656,548.6884 Q492.2656,545.5634 493.5781,543.9072 Q494.9063,542.2509 497.4063,542.2509 Q498.1094,542.2509 498.75,542.4072 Q499.4063,542.5634 499.9688,542.8603 L499.9688,545.579 Q499.3438,545.0009 498.75,544.7353 Q498.1563,544.454 497.5313,544.454 Q496.1875,544.454 495.5,545.5322 Q494.8125,546.5947 494.8125,548.6884 Q494.8125,550.7822 495.5,551.8603 Q496.1875,552.9228 497.5313,552.9228 Q498.1563,552.9228 498.75,552.6572 Q499.3438,552.3759 499.9688,551.7978 L499.9688,554.5165 Z " fill="#000000"/><text fill="#000000" font-family="sans-serif" font-size="12" font-style="italic" lengthAdjust="spacing" textLength="52.3204" x="529.9406" y="543.998">&#171;schema&#187;</text><text fill="#000000" font-family="sans-serif" font-size="14" lengthAdjust="spacing" textLength="90.2016" x="511" y="562.4799">LoginRequest</text><line style="stroke:#181818;stroke-width:0.5;" x1="483" x2="603.2016" y1="571.5819" y2="571.5819"/><ellipse cx="493" cy="586.6159" fill="none" rx="3" ry="3" style="stroke:#038048;stroke-width:1;"/><text fill="#000000" font-family="sans-serif" font-size="14" lengthAdjust="spacing" textLength="60.9978" x="502" y="590.5479">email: str</text><ellipse cx="493" cy="605.6838" fill="none" rx="3" ry="3" style="stroke:#038048;stroke-width:1;"/><text fill="#000000" font-family="sans-serif" font-size="14" lengthAdjust="spacing" textLength="88.6757" x="502" y="609.6158">password: str</text><line style="stroke:#181818;stroke-width:0.5;" x1="483" x2="603.2016" y1="617.7178" y2="617.7178"/></g><!--class TokenResponse--><g class="entity" data-entity="TokenResponse" data-source-line="26" data-uid="ent0012" id="entity_TokenResponse"><rect fill="#F1F1F1" height="118.6158" rx="2.5" ry="2.5" style="stroke:#181818;stroke-width:0.5;" width="142.2276" x="639" y="516.6699"/><ellipse cx="656.8377" cy="539.3759" fill="#ADD1B2" rx="11" ry="11" style="stroke:#181818;stroke-width:1;"/><path d="M659.8064,545.0165 Q659.2283,545.3134 658.5877,545.454 Q657.9471,545.6103 657.2439,545.6103 Q654.7439,545.6103 653.4158,543.9697 Q652.1033,542.3134 652.1033,539.1884 Q652.1033,536.0634 653.4158,534.4072 Q654.7439,532.7509 657.2439,532.7509 Q657.9471,532.7509 658.5877,532.9072 Q659.2439,533.0634 659.8064,533.3603 L659.8064,536.079 Q659.1814,535.5009 658.5877,535.2353 Q657.9939,534.954 657.3689,534.954 Q656.0252,534.954 655.3377,536.0322 Q654.6502,537.0947 654.6502,539.1884 Q654.6502,541.2822 655.3377,542.3603 Q656.0252,543.4228 657.3689,543.4228 Q657.9939,543.4228 658.5877,543.1572 Q659.1814,542.8759 659.8064,542.2978 L659.8064,545.0165 Z " fill="#000000"/><text fill="#000000" font-family="sans-serif" font-size="12" font-style="italic" lengthAdjust="spacing" textLength="52.3204" x="697.2689" y="534.498">&#171;schema&#187;</text><text fill="#000000" font-family="sans-serif" font-size="14" lengthAdjust="spacing" textLength="103.9216" x="671.4683" y="552.9799">TokenResponse</text><line style="stroke:#181818;stroke-width:0.5;" x1="640" x2="780.2276" y1="562.0819" y2="562.0819"/><ellipse cx="650" cy="577.1159" fill="none" rx="3" ry="3" style="stroke:#038048;stroke-width:1;"/><text fill="#000000" font-family="sans-serif" font-size="14" lengthAdjust="spacing" textLength="111.2996" x="659" y="581.0479">access_token: str</text><ellipse cx="650" cy="596.1838" fill="none" rx="3" ry="3" style="stroke:#038048;stroke-width:1;"/><text fill="#000000" font-family="sans-serif" font-size="14" lengthAdjust="spacing" textLength="116.2276" x="659" y="600.1158">refresh_token: str</text><ellipse cx="650" cy="615.2517" fill="none" rx="3" ry="3" style="stroke:#038048;stroke-width:1;"/><text fill="#000000" font-family="sans-serif" font-size="14" lengthAdjust="spacing" textLength="97.3976" x="659" y="619.1837">token_type: str</text><line style="stroke:#181818;stroke-width:0.5;" x1="640" x2="780.2276" y1="627.2857" y2="627.2857"/></g><!--class UserContext--><g class="entity" data-entity="UserContext" data-source-line="34" data-uid="ent0014" id="entity_UserContext"><rect fill="#F1F1F1" height="137.6837" rx="2.5" ry="2.5" style="stroke:#181818;stroke-width:0.5;" width="195.1894" x="884.5" y="507.1699"/><ellipse cx="936.8458" cy="529.8759" fill="#ADD1B2" rx="11" ry="11" style="stroke:#181818;stroke-width:1;"/><path d="M939.8146,535.5165 Q939.2365,535.8134 938.5958,535.954 Q937.9552,536.1103 937.2521,536.1103 Q934.7521,536.1103 933.424,534.4697 Q932.1115,532.8134 932.1115,529.6884 Q932.1115,526.5634 933.424,524.9072 Q934.7521,523.2509 937.2521,523.2509 Q937.9552,523.2509 938.5958,523.4072 Q939.2521,523.5634 939.8146,523.8603 L939.8146,526.579 Q939.1896,526.0009 938.5958,525.7353 Q938.0021,525.454 937.3771,525.454 Q936.0333,525.454 935.3458,526.5322 Q934.6583,527.5947 934.6583,529.6884 Q934.6583,531.7822 935.3458,532.8603 Q936.0333,533.9228 937.3771,533.9228 Q938.0021,533.9228 938.5958,533.6572 Q939.1896,533.3759 939.8146,532.7978 L939.8146,535.5165 Z " fill="#000000"/><text fill="#000000" font-family="sans-serif" font-size="12" font-style="italic" lengthAdjust="spacing" textLength="50.3403" x="973.1745" y="524.998">&#171;context&#187;</text><text fill="#000000" font-family="sans-serif" font-size="14" lengthAdjust="spacing" textLength="81.9977" x="957.3458" y="543.4799">UserContext</text><line style="stroke:#181818;stroke-width:0.5;" x1="885.5" x2="1078.6894" y1="552.5819" y2="552.5819"/><ellipse cx="895.5" cy="567.6159" fill="none" rx="3" ry="3" style="stroke:#038048;stroke-width:1;"/><text fill="#000000" font-family="sans-serif" font-size="14" lengthAdjust="spacing" textLength="72.1837" x="904.5" y="571.5479">user_id: int</text><ellipse cx="895.5" cy="586.6838" fill="none" rx="3" ry="3" style="stroke:#038048;stroke-width:1;"/><text fill="#000000" font-family="sans-serif" font-size="14" lengthAdjust="spacing" textLength="152.3194" x="904.5" y="590.6158">tenant_id: Optional[int]</text><ellipse cx="895.5" cy="605.7517" fill="none" rx="3" ry="3" style="stroke:#038048;stroke-width:1;"/><text fill="#000000" font-family="sans-serif" font-size="14" lengthAdjust="spacing" textLength="121.8135" x="904.5" y="609.6837">roles: Tuple[str, ...]</text><ellipse cx="895.5" cy="624.8196" fill="none" rx="3" ry="3" style="stroke:#038048;stroke-width:1;"/><text fill="#000000" font-family="sans-serif" font-size="14" lengthAdjust="spacing" textLength="169.1894" x="904.5" y="628.7516">permissions: Tuple[str, ...]</text><line style="stroke:#181818;stroke-width:0.5;" x1="885.5" x2="1078.6894" y1="636.8536" y2="636.8536"/></g><g class="entity" data-entity="GMN19" data-source-line="48" data-uid="ent0020" id="entity_GMN19"><path d="M1135,213.6699 L1135,232.1699 L932.74,236.1699 L1135,240.1699 L1135,259.0819 A0,0 0 0 0 1135,259.0819 L1375.4272,259.0819 A0,0 0 0 0 1375.4272,259.0819 L1375.4272,223.6699 L1365.4272,213.6699 L1135,213.6699 A0,0 0 0 0 1135,213.6699" fill="#FEFFDD" style="stroke:#181818;stroke-width:0.5;"/><path d="M1365.4272,213.6699 L1365.4272,223.6699 L1375.4272,223.6699 L1365.4272,213.6699" fill="#FEFFDD" style="stroke:#181818;stroke-width:0.5;"/><text fill="#000000" font-family="sans-serif" font-size="13" lengthAdjust="spacing" textLength="165.4771" x="1141" y="232.5669">Source: app/api/v1/auth.py</text><text fill="#000000" font-family="sans-serif" font-size="13" lengthAdjust="spacing" textLength="219.4272" x="1141" y="250.2729">FastAPI router for login/refresh/me.</text></g><!--link AuthController to AuthService--><g class="link" data-entity-1="AuthController" data-entity-2="AuthService" data-source-line="42" data-uid="lnk15" id="link_AuthController_AuthService"><path codeLine="42" d="M541.61,295.7999 C505.74,311.5399 469.04,330.2399 437,351.6699 C363.32,400.9599 297.1961,472.07 255.3961,521.46" fill="none" id="AuthController-to-AuthService" style="stroke:#181818;stroke-width:1;"/><polygon fill="#181818" points="251.52,526.0399,260.3875,521.7541,254.7501,522.2233,254.2809,516.5859,251.52,526.0399" style="stroke:#181818;stroke-width:1;"/><text fill="#000000" font-family="sans-serif" font-size="13" lengthAdjust="spacing" textLength="164.2811" x="438" y="366.5669">Depends(get_auth_service)</text></g><!--link AuthController to LoginRequest--><g class="link" data-entity-1="AuthController" data-entity-2="LoginRequest" data-source-line="43" data-uid="lnk16" id="link_AuthController_LoginRequest"><path codeLine="43" d="M657.88,295.7299 C644.29,312.9399 630.53,332.3499 620,351.6699 C589.17,408.2499 568.7293,473.6907 556.3493,520.3307" fill="none" id="AuthController-to-LoginRequest" style="stroke:#181818;stroke-width:1;"/><polygon fill="#181818" points="554.81,526.1299,560.9851,518.4573,556.0928,521.2972,553.2529,516.4049,554.81,526.1299" style="stroke:#181818;stroke-width:1;"/><text fill="#000000" font-family="sans-serif" font-size="13" lengthAdjust="spacing" textLength="80.8471" x="621" y="366.5669">request body</text></g><!--link AuthController to TokenResponse--><g class="link" data-entity-1="AuthController" data-entity-2="TokenResponse" data-source-line="44" data-uid="lnk17" id="link_AuthController_TokenResponse"><path codeLine="44" d="M710,296.0499 C710,357.8899 710,448.5999 710,510.3999" fill="none" id="AuthController-to-TokenResponse" style="stroke:#181818;stroke-width:1;"/><polygon fill="#181818" points="710,516.3999,714,507.3999,710,511.3999,706,507.3999,710,516.3999" style="stroke:#181818;stroke-width:1;"/><text fill="#000000" font-family="sans-serif" font-size="13" lengthAdjust="spacing" textLength="56.381" x="711" y="366.5669">response</text></g><!--link AuthController to UserContext--><g class="link" data-entity-1="AuthController" data-entity-2="UserContext" data-source-line="45" data-uid="lnk18" id="link_AuthController_UserContext"><path codeLine="45" d="M757.38,296.0499 C804.72,354.8699 873.6583,440.5455 923.4483,502.4155" fill="none" id="AuthController-to-UserContext" style="stroke:#181818;stroke-width:1;"/><polygon fill="#181818" points="927.21,507.0899,924.6837,497.5706,924.0753,503.1946,918.4512,502.5862,927.21,507.0899" style="stroke:#181818;stroke-width:1;"/><text fill="#000000" font-family="sans-serif" font-size="13" lengthAdjust="spacing" textLength="215.2542" x="814" y="366.5669">Depends(get_user_context) for /me</text></g><!--SRC=[bLHHQzim47xNhpYobvGjTilUJ0bq7OF1O6FTdaencdnnH6H9qybPmyX_trcnYPtwePCVPEc-k_i-tKbHHuFm_dgbZ2HQtRLnU-zi3CuO3903HHcruYcqAhO11UsqzJB81Zv8jQk3QsrrxumBy6PptNr2U3R86c4XlS-arzd-PW5_XG18IU0YoUqj1uaOrci60O-tO5ojxTBBWt6oAk1Bj_oElrka-0vehueKum73NYkyWW9-k1qoWhopX7sGW9k0j5tsSnaxJD59UNsC1fSgFXVmap1qbF4vTj3Hae57SRmGJQUej4YApghxR2ovHxnEy_yhdFDuIRDn5HhAI6snaPH9PZXcFARGKKwm4MDUQPFIzHkUlVwuK0rxntFD9sJcWad5vqKZ2LEDBmrfeum7Z-TqbmAL2pXMDAeRSr2dln69bksbPlxQnY4DMcbZslpgetPMcaUsFWtqd47YiswzmSVKMbcM3KQFeT54x3GBINmlBiDgjPvqIXe5V4IFjg9bZR7iobJs_NCrvp-fsya_zAjVhZhCkKpBqxlqdJC37v_Z3CDqZ6guBXj-6_86XR0k8WHTRoEupSKh81vS6nINaikMyvkHxs_oJcZc3-AJf7ZtxJESdeaKBrsMlEyD3fu9JWvT0l4F]--></g></svg>