<svg xmlns="http://www.w3.org/2000/svg" xmlns:xlink="http://www.w3.org/1999/xlink" contentStyleType="text/css" data-diagram-type="CLASS" height="691px" preserveAspectRatio="none" style="width:1673px;height:691px;background:#F0F0F0;" version="1.1" viewBox="0 0 1673 691" width="1673px" zoomAndPan="magnify"><title>30-class-AuthController / static structure</title><defs/><g><rect fill="#F0F0F0" height="691" style="stroke:none;stroke-width:1;" width="1673" x="0" y="0"/><g class="title" data-source-line="1"><text fill="#000000" font-family="sans-serif" font-size="14" font-weight="bold" lengthAdjust="spacing" textLength="285.4729" x="687.0497" y="24.9659">30-class-AuthController / static structure</text></g><!--cluster app--><g class="cluster" data-entity="app" data-source-line="6" data-uid="ent0004" id="cluster_app"><path d="M8.5,46.6699 L35.6799,46.6699 A3.75,3.75 0 0 1 38.1799,49.1699 L45.1799,71.7378 L1321.5,71.7378 A2.5,2.5 0 0 1 1324,74.2378 L1324,682.1699 A2.5,2.5 0 0 1 1321.5,684.6699 L8.5,684.6699 A2.5,2.5 0 0 1 6,682.1699 L6,49.1699 A2.5,2.5 0 0 1 8.5,46.6699" fill="none" style="stroke:#000000;stroke-width:1.5;"/><line style="stroke:#000000;stroke-width:1.5;" x1="6" x2="45.1799" y1="71.7378" y2="71.7378"/><text fill="#000000" font-family="sans-serif" font-size="14" font-weight="bold" lengthAdjust="spacing" textLength="26.1799" x="10" y="63.6358">app</text></g><!--cluster api--><g class="cluster" data-entity="api" data-source-line="6" data-uid="ent0005" id="cluster_api"><path d="M569.5,92.6699 L592.0879,92.6699 A3.75,3.75 0 0 1 594.5879,95.1699 L601.5879,117.7378 L1126.5,117.7378 A2.5,2.5 0 0 1 1129,120.2378 L1129,352.1699 A2.5,2.5 0 0 1 1126.5,354.6699 L569.5,354.6699 A2.5,2.5 0 0 1 567,352.1699 L567,95.1699 A2.5,2.5 0 0 1 569.5,92.6699" fill="none" style="stroke:#000000;stroke-width:1.5;"/><line style="stroke:#000000;stroke-width:1.5;" x1="567" x2="601.5879" y1="117.7378" y2="117.7378"/><text fill="#000000" font-family="sans-serif" font-size="14" font-weight="bold" lengthAdjust="spacing" textLength="21.5879" x="571" y="109.6358">api</text></g><!--cluster v1--><g class="cluster" data-entity="v1" data-source-line="4" data-uid="ent0002" id="cluster_v1"><path d="M593.5,138.6699 L610.4739,138.6699 A3.75,3.75 0 0 1 612.9739,141.1699 L619.9739,163.7378 L1102.5,163.7378 A2.5,2.5 0 0 1 1105,166.2378 L1105,328.1699 A2.5,2.5 0 0 1 1102.5,330.6699 L593.5,330.6699 A2.5,2.5 0 0 1 591,328.1699 L591,141.1699 A2.5,2.5 0 0 1 593.5,138.6699" fill="none" style="stroke:#000000;stroke-width:1.5;"/><line style="stroke:#000000;stroke-width:1.5;" x1="591" x2="619.9739" y1="163.7378" y2="163.7378"/><text fill="#000000" font-family="sans-serif" font-size="14" font-weight="bold" lengthAdjust="spacing" textLength="15.9739" x="595" y="155.6358">v1</text></g><!--cluster services--><g class="cluster" data-entity="services" data-source-line="14" data-uid="ent0006" id="cluster_services"><path d="M32.5,468.6699 L89.7518,468.6699 A3.75,3.75 0 0 1 92.2518,471.1699 L99.2518,493.7378 L427.5,493.7378 A2.5,2.5 0 0 1 430,496.2378 L430,639.1699 A2.5,2.5 0 0 1 427.5,641.6699 L32.5,641.6699 A2.5,2.5 0 0 1 30,639.1699 L30,471.1699 A2.5,2.5 0 0 1 32.5,468.6699" fill="none" style="stroke:#000000;stroke-width:1.5;"/><line style="stroke:#000000;stroke-width:1.5;" x1="30" x2="99.2518" y1="493.7378" y2="493.7378"/><text fill="#000000" font-family="sans-serif" font-size="14" font-weight="bold" lengthAdjust="spacing" textLength="56.2518" x="34" y="485.6358">services</text></g><!--cluster models--><g class="cluster" data-entity="models" data-source-line="23" data-uid="ent0010" id="cluster_models"><path d="M456.5,405.6699 L508.2778,405.6699 A3.75,3.75 0 0 1 510.7778,408.1699 L517.7778,430.7378 L1047.5,430.7378 A2.5,2.5 0 0 1 1050,433.2378 L1050,658.1699 A2.5,2.5 0 0 1 1047.5,660.6699 L456.5,660.6699 A2.5,2.5 0 0 1 454,658.1699 L454,408.1699 A2.5,2.5 0 0 1 456.5,405.6699" fill="none" style="stroke:#000000;stroke-width:1.5;"/><line style="stroke:#000000;stroke-width:1.5;" x1="454" x2="517.7778" y1="430.7378" y2="430.7378"/><text fill="#000000" font-family="sans-serif" font-size="14" font-weight="bold" lengthAdjust="spacing" textLength="50.7778" x="458" y="422.6358">models</text></g><!--cluster schemas--><g class="cluster" data-entity="schemas" data-source-line="23" data-uid="ent0011" id="cluster_schemas"><path d="M480.5,451.6699 L542.2878,451.6699 A3.75,3.75 0 0 1 544.7878,454.1699 L551.7878,476.7378 L1023.5,476.7378 A2.5,2.5 0 0 1 1026,479.2378 L1026,634.1699 A2.5,2.5 0 0 1 1023.5,636.6699 L480.5,636.6699 A2.5,2.5 0 0 1 478,634.1699 L478,454.1699 A2.5,2.5 0 0 1 480.5,451.6699" fill="none" style="stroke:#000000;stroke-width:1.5;"/><line style="stroke:#000000;stroke-width:1.5;" x1="478" x2="551.7878" y1="476.7378" y2="476.7378"/><text fill="#000000" font-family="sans-serif" font-size="14" font-weight="bold" lengthAdjust="spacing" textLength="60.7878" x="482" y="468.6358">schemas</text></g><!--cluster auth--><g class="cluster" data-entity="auth" data-source-line="22" data-uid="ent0008" id="cluster_auth"><path d="M504.5,497.6699 L538.4279,497.6699 A3.75,3.75 0 0 1 540.9279,500.1699 L547.9279,522.7378 L999.5,522.7378 A2.5,2.5 0 0 1 1002,525.2378 L1002,610.1699 A2.5,2.5 0 0 1 999.5,612.6699 L504.5,612.6699 A2.5,2.5 0 0 1 502,610.1699 L502,500.1699 A2.5,2.5 0 0 1 504.5,497.6699" fill="none" style="stroke:#000000;stroke-width:1.5;"/><line style="stroke:#000000;stroke-width:1.5;" x1="502" x2="547.9279" y1="522.7378" y2="522.7378"/><text fill="#000000" font-family="sans-serif" font-size="14" font-weight="bold" lengthAdjust="spacing" textLength="32.9279" x="506" y="514.6358">auth</text></g><!--cluster core--><g class="cluster" data-entity="core" data-source-line="28" data-uid="ent0014" id="cluster_core"><path d="M1076.5,459.1699 L1107.9919,459.1699 A3.75,3.75 0 0 1 1110.4919,461.6699 L1117.4919,484.2378 L1297.5,484.2378 A2.5,2.5 0 0 1 1300,486.7378 L1300,648.6699 A2.5,2.5 0 0 1 1297.5,651.1699 L1076.5,651.1699 A2.5,2.5 0 0 1 1074,648.6699 L1074,461.6699 A2.5,2.5 0 0 1 1076.5,459.1699" fill="none" style="stroke:#000000;stroke-width:1.5;"/><line style="stroke:#000000;stroke-width:1.5;" x1="1074" x2="1117.4919" y1="484.2378" y2="484.2378"/><text fill="#000000" font-family="sans-serif" font-size="14" font-weight="bold" lengthAdjust="spacing" textLength="30.4919" x="1078" y="476.1358">core</text></g><!--class AuthController--><g class="entity" data-entity="AuthController" data-source-line="6" data-uid="ent0003" id="entity_AuthController"><rect fill="#F1F1F1" height="137.6837" rx="2.5" ry="2.5" style="stroke:#181818;stroke-width:0.5;" width="481.3482" x="607.5" y="176.6699"/><ellipse cx="795.1833" cy="199.3759" fill="#ADD1B2" rx="11" ry="11" style="stroke:#181818;stroke-width:1;"/><path d="M798.1521,205.0165 Q797.5739,205.3134 796.9333,205.454 Q796.2927,205.6103 795.5896,205.6103 Q793.0896,205.6103 791.7614,203.9697 Q790.4489,202.3134 790.4489,199.1884 Q790.4489,196.0634 791.7614,194.4072 Q793.0896,192.7509 795.5896,192.7509 Q796.2927,192.7509 796.9333,192.9072 Q797.5896,193.0634 798.1521,193.3603 L798.1521,196.079 Q797.5271,195.5009 796.9333,195.2353 Q796.3396,194.954 795.7146,194.954 Q794.3708,194.954 793.6833,196.0322 Q792.9958,197.0947 792.9958,199.1884 Q792.9958,201.2822 793.6833,202.3603 Q794.3708,203.4228 795.7146,203.4228 Q796.3396,203.4228 796.9333,203.1572 Q797.5271,202.8759 798.1521,202.2978 L798.1521,205.0165 Z " fill="#000000"/><text fill="#000000" font-family="sans-serif" font-size="12" font-style="italic" lengthAdjust="spacing" textLength="44.6763" x="842.086" y="194.498">&#171;router&#187;</text><text fill="#000000" font-family="sans-serif" font-size="14" lengthAdjust="spacing" textLength="97.4816" x="815.6833" y="212.9799">AuthController</text><line style="stroke:#181818;stroke-width:0.5;" x1="608.5" x2="1087.8482" y1="222.0819" y2="222.0819"/><line style="stroke:#181818;stroke-width:0.5;" x1="608.5" x2="1087.8482" y1="230.0819" y2="230.0819"/><ellipse cx="618.5" cy="245.1159" fill="#84BE84" rx="3" ry="3" style="stroke:#038048;stroke-width:1;"/><text fill="#000000" font-family="sans-serif" font-size="14" lengthAdjust="spacing" textLength="455.3482" x="627.5" y="249.0479">register(payload: RegisterRequest, svc: AuthService) : TokenResponse</text><ellipse cx="618.5" cy="264.1838" fill="#84BE84" rx="3" ry="3" style="stroke:#038048;stroke-width:1;"/><text fill="#000000" font-family="sans-serif" font-size="14" lengthAdjust="spacing" textLength="419.3824" x="627.5" y="268.1158">login(payload: LoginRequest, svc: AuthService) : TokenResponse</text><ellipse cx="618.5" cy="283.2517" fill="#84BE84" rx="3" ry="3" style="stroke:#038048;stroke-width:1;"/><text fill="#000000" font-family="sans-serif" font-size="14" lengthAdjust="spacing" textLength="400.4404" x="627.5" y="287.1837">refresh(refresh_token: str, svc: AuthService) : TokenResponse</text><ellipse cx="618.5" cy="302.3196" fill="#84BE84" rx="3" ry="3" style="stroke:#038048;stroke-width:1;"/><text fill="#000000" font-family="sans-serif" font-size="14" lengthAdjust="spacing" textLength="230.9851" x="627.5" y="306.2516">me(ctx: UserContext) : UserContext</text></g><!--class AuthService--><g class="entity" data-entity="AuthService" data-source-line="15" data-uid="ent0007" id="entity_AuthService"><rect fill="#F1F1F1" height="118.6158" rx="2.5" ry="2.5" style="stroke:#181818;stroke-width:0.5;" width="368.0187" x="46" y="506.6699"/><ellipse cx="186.7555" cy="529.3759" fill="#ADD1B2" rx="11" ry="11" style="stroke:#181818;stroke-width:1;"/><path d="M189.7243,535.0165 Q189.1461,535.3134 188.5055,535.454 Q187.8649,535.6103 187.1618,535.6103 Q184.6618,535.6103 183.3336,533.9697 Q182.0211,532.3134 182.0211,529.1884 Q182.0211,526.0634 183.3336,524.4072 Q184.6618,522.7509 187.1618,522.7509 Q187.8649,522.7509 188.5055,522.9072 Q189.1618,523.0634 189.7243,523.3603 L189.7243,526.079 Q189.0993,525.5009 188.5055,525.2353 Q187.9118,524.954 187.2868,524.954 Q185.943,524.954 185.2555,526.0322 Q184.568,527.0947 184.568,529.1884 Q184.568,531.2822 185.2555,532.3603 Q185.943,533.4228 187.2868,533.4228 Q187.9118,533.4228 188.5055,533.1572 Q189.0993,532.8759 189.7243,532.2978 L189.7243,535.0165 Z " fill="#000000"/><text fill="#000000" font-family="sans-serif" font-size="12" font-style="italic" lengthAdjust="spacing" textLength="47.5203" x="222.4992" y="524.498">&#171;service&#187;</text><text fill="#000000" font-family="sans-serif" font-size="14" lengthAdjust="spacing" textLength="78.0077" x="207.2555" y="542.9799">AuthService</text><line style="stroke:#181818;stroke-width:0.5;" x1="47" x2="413.0187" y1="552.0819" y2="552.0819"/><line style="stroke:#181818;stroke-width:0.5;" x1="47" x2="413.0187" y1="560.0819" y2="560.0819"/><ellipse cx="57" cy="575.1159" fill="#84BE84" rx="3" ry="3" style="stroke:#038048;stroke-width:1;"/><text fill="#000000" font-family="sans-serif" font-size="14" lengthAdjust="spacing" textLength="342.0187" x="66" y="579.0479">register(payload: RegisterRequest) : TokenResponse</text><ellipse cx="57" cy="594.1838" fill="#84BE84" rx="3" ry="3" style="stroke:#038048;stroke-width:1;"/><text fill="#000000" font-family="sans-serif" font-size="14" lengthAdjust="spacing" textLength="306.0528" x="66" y="598.1158">login(payload: LoginRequest) : TokenResponse</text><ellipse cx="57" cy="613.2517" fill="#84BE84" rx="3" ry="3" style="stroke:#038048;stroke-width:1;"/><text fill="#000000" font-family="sans-serif" font-size="14" lengthAdjust="spacing" textLength="287.1109" x="66" y="617.1837">refresh(refresh_token: str) : TokenResponse</text></g><!--class RegisterRequest--><g class="entity" data-entity="RegisterRequest" data-source-line="23" data-uid="ent0009" id="entity_RegisterRequest"><rect fill="#F1F1F1" height="61.412" rx="2.5" ry="2.5" style="stroke:#181818;stroke-width:0.5;" width="139.7856" x="518" y="535.6699"/><ellipse cx="533" cy="558.3759" fill="#ADD1B2" rx="11" ry="11" style="stroke:#181818;stroke-width:1;"/><path d="M535.9688,564.0165 Q535.3906,564.3134 534.75,564.454 Q534.1094,564.6103 533.4063,564.6103 Q530.9063,564.6103 529.5781,562.9697 Q528.2656,561.3134 528.2656,558.1884 Q528.2656,555.0634 529.5781,553.4072 Q530.9063,551.7509 533.4063,551.7509 Q534.1094,551.7509 534.75,551.9072 Q535.4063,552.0634 535.9688,552.3603 L535.9688,555.079 Q535.3438,554.5009 534.75,554.2353 Q534.1563,553.954 533.5313,553.954 Q532.1875,553.954 531.5,555.0322 Q530.8125,556.0947 530.8125,558.1884 Q530.8125,560.2822 531.5,561.3603 Q532.1875,562.4228 533.5313,562.4228 Q534.1563,562.4228 534.75,562.1572 Q535.3438,561.8759 535.9688,561.2978 L535.9688,564.0165 Z " fill="#000000"/><text fill="#000000" font-family="sans-serif" font-size="12" font-style="italic" lengthAdjust="spacing" textLength="52.3204" x="574.7326" y="553.498">&#171;schema&#187;</text><text fill="#000000" font-family="sans-serif" font-size="14" lengthAdjust="spacing" textLength="107.7856" x="547" y="571.9799">RegisterRequest</text><line style="stroke:#181818;stroke-width:0.5;" x1="519" x2="656.7856" y1="581.0819" y2="581.0819"/><line style="stroke:#181818;stroke-width:0.5;" x1="519" x2="656.7856" y1="589.0819" y2="589.0819"/></g><!--class LoginRequest--><g class="entity" data-entity="LoginRequest" data-source-line="24" data-uid="ent0012" id="entity_LoginRequest"><rect fill="#F1F1F1" height="61.412" rx="2.5" ry="2.5" style="stroke:#181818;stroke-width:0.5;" width="122.2016" x="693" y="535.6699"/><ellipse cx="708" cy="558.3759" fill="#ADD1B2" rx="11" ry="11" style="stroke:#181818;stroke-width:1;"/><path d="M710.9688,564.0165 Q710.3906,564.3134 709.75,564.454 Q709.1094,564.6103 708.4063,564.6103 Q705.9063,564.6103 704.5781,562.9697 Q703.2656,561.3134 703.2656,558.1884 Q703.2656,555.0634 704.5781,553.4072 Q705.9063,551.7509 708.4063,551.7509 Q709.1094,551.7509 709.75,551.9072 Q710.4063,552.0634 710.9688,552.3603 L710.9688,555.079 Q710.3438,554.5009 709.75,554.2353 Q709.1563,553.954 708.5313,553.954 Q707.1875,553.954 706.5,555.0322 Q705.8125,556.0947 705.8125,558.1884 Q705.8125,560.2822 706.5,561.3603 Q707.1875,562.4228 708.5313,562.4228 Q709.1563,562.4228 709.75,562.1572 Q710.3438,561.8759 710.9688,561.2978 L710.9688,564.0165 Z " fill="#000000"/><text fill="#000000" font-family="sans-serif" font-size="12" font-style="italic" lengthAdjust="spacing" textLength="52.3204" x="740.9406" y="553.498">&#171;schema&#187;</text><text fill="#000000" font-family="sans-serif" font-size="14" lengthAdjust="spacing" textLength="90.2016" x="722" y="571.9799">LoginRequest</text><line style="stroke:#181818;stroke-width:0.5;" x1="694" x2="814.2016" y1="581.0819" y2="581.0819"/><line style="stroke:#181818;stroke-width:0.5;" x1="694" x2="814.2016" y1="589.0819" y2="589.0819"/></g><!--class TokenResponse--><g class="entity" data-entity="TokenResponse" data-source-line="25" data-uid="ent0013" id="entity_TokenResponse"><rect fill="#F1F1F1" height="61.412" rx="2.5" ry="2.5" style="stroke:#181818;stroke-width:0.5;" width="135.9216" x="850" y="535.6699"/><ellipse cx="865" cy="558.3759" fill="#ADD1B2" rx="11" ry="11" style="stroke:#181818;stroke-width:1;"/><path d="M867.9688,564.0165 Q867.3906,564.3134 866.75,564.454 Q866.1094,564.6103 865.4063,564.6103 Q862.9063,564.6103 861.5781,562.9697 Q860.2656,561.3134 860.2656,558.1884 Q860.2656,555.0634 861.5781,553.4072 Q862.9063,551.7509 865.4063,551.7509 Q866.1094,551.7509 866.75,551.9072 Q867.4063,552.0634 867.9688,552.3603 L867.9688,555.079 Q867.3438,554.5009 866.75,554.2353 Q866.1563,553.954 865.5313,553.954 Q864.1875,553.954 863.5,555.0322 Q862.8125,556.0947 862.8125,558.1884 Q862.8125,560.2822 863.5,561.3603 Q864.1875,562.4228 865.5313,562.4228 Q866.1563,562.4228 866.75,562.1572 Q867.3438,561.8759 867.9688,561.2978 L867.9688,564.0165 Z " fill="#000000"/><text fill="#000000" font-family="sans-serif" font-size="12" font-style="italic" lengthAdjust="spacing" textLength="52.3204" x="904.8006" y="553.498">&#171;schema&#187;</text><text fill="#000000" font-family="sans-serif" font-size="14" lengthAdjust="spacing" textLength="103.9216" x="879" y="571.9799">TokenResponse</text><line style="stroke:#181818;stroke-width:0.5;" x1="851" x2="984.9216" y1="581.0819" y2="581.0819"/><line style="stroke:#181818;stroke-width:0.5;" x1="851" x2="984.9216" y1="589.0819" y2="589.0819"/></g><!--class UserContext--><g class="entity" data-entity="UserContext" data-source-line="29" data-uid="ent0015" id="entity_UserContext"><rect fill="#F1F1F1" height="137.6837" rx="2.5" ry="2.5" style="stroke:#181818;stroke-width:0.5;" width="195.1894" x="1089.5" y="497.1699"/><ellipse cx="1141.8458" cy="519.8759" fill="#ADD1B2" rx="11" ry="11" style="stroke:#181818;stroke-width:1;"/><path d="M1144.8146,525.5165 Q1144.2365,525.8134 1143.5958,525.954 Q1142.9552,526.1103 1142.2521,526.1103 Q1139.7521,526.1103 1138.424,524.4697 Q1137.1115,522.8134 1137.1115,519.6884 Q1137.1115,516.5634 1138.424,514.9072 Q1139.7521,513.2509 1142.2521,513.2509 Q1142.9552,513.2509 1143.5958,513.4072 Q1144.2521,513.5634 1144.8146,513.8603 L1144.8146,516.579 Q1144.1896,516.0009 1143.5958,515.7353 Q1143.0021,515.454 1142.3771,515.454 Q1141.0333,515.454 1140.3458,516.5322 Q1139.6583,517.5947 1139.6583,519.6884 Q1139.6583,521.7822 1140.3458,522.8603 Q1141.0333,523.9228 1142.3771,523.9228 Q1143.0021,523.9228 1143.5958,523.6572 Q1144.1896,523.3759 1144.8146,522.7978 L1144.8146,525.5165 Z " fill="#000000"/><text fill="#000000" font-family="sans-serif" font-size="12" font-style="italic" lengthAdjust="spacing" textLength="50.3403" x="1178.1745" y="514.998">&#171;context&#187;</text><text fill="#000000" font-family="sans-serif" font-size="14" lengthAdjust="spacing" textLength="81.9977" x="1162.3458" y="533.4799">UserContext</text><line style="stroke:#181818;stroke-width:0.5;" x1="1090.5" x2="1283.6894" y1="542.5819" y2="542.5819"/><ellipse cx="1100.5" cy="557.6159" fill="none" rx="3" ry="3" style="stroke:#038048;stroke-width:1;"/><text fill="#000000" font-family="sans-serif" font-size="14" lengthAdjust="spacing" textLength="72.1837" x="1109.5" y="561.5479">user_id: int</text><ellipse cx="1100.5" cy="576.6838" fill="none" rx="3" ry="3" style="stroke:#038048;stroke-width:1;"/><text fill="#000000" font-family="sans-serif" font-size="14" lengthAdjust="spacing" textLength="152.3194" x="1109.5" y="580.6158">tenant_id: Optional[int]</text><ellipse cx="1100.5" cy="595.7517" fill="none" rx="3" ry="3" style="stroke:#038048;stroke-width:1;"/><text fill="#000000" font-family="sans-serif" font-size="14" lengthAdjust="spacing" textLength="121.8135" x="1109.5" y="599.6837">roles: Tuple[str, ...]</text><ellipse cx="1100.5" cy="614.8196" fill="none" rx="3" ry="3" style="stroke:#038048;stroke-width:1;"/><text fill="#000000" font-family="sans-serif" font-size="14" lengthAdjust="spacing" textLength="169.1894" x="1109.5" y="618.7516">permissions: Tuple[str, ...]</text><line style="stroke:#181818;stroke-width:0.5;" x1="1090.5" x2="1283.6894" y1="626.8536" y2="626.8536"/></g><g class="entity" data-entity="GMN21" data-source-line="44" data-uid="ent0022" id="entity_GMN21"><path d="M1339.5,223.1699 L1339.5,241.6699 L1088.51,245.6699 L1339.5,249.6699 L1339.5,268.5819 A0,0 0 0 0 1339.5,268.5819 L1666.5722,268.5819 A0,0 0 0 0 1666.5722,268.5819 L1666.5722,233.1699 L1656.5722,223.1699 L1339.5,223.1699 A0,0 0 0 0 1339.5,223.1699" fill="#FEFFDD" style="stroke:#181818;stroke-width:0.5;"/><path d="M1656.5722,223.1699 L1656.5722,233.1699 L1666.5722,233.1699 L1656.5722,223.1699" fill="#FEFFDD" style="stroke:#181818;stroke-width:0.5;"/><text fill="#000000" font-family="sans-serif" font-size="13" lengthAdjust="spacing" textLength="165.4771" x="1345.5" y="242.0669">Source: app/api/v1/auth.py</text><text fill="#000000" font-family="sans-serif" font-size="13" lengthAdjust="spacing" textLength="306.0722" x="1345.5" y="259.7729">FastAPI router for register, login, refresh and /me.</text></g><!--link AuthController to AuthService--><g class="link" data-entity-1="AuthController" data-entity-2="AuthService" data-source-line="37" data-uid="lnk16" id="link_AuthController_AuthService"><path codeLine="37" d="M607.34,290.9399 C541.66,309.4099 472.52,335.1299 414,370.6699 C356.59,405.5299 309.0386,458.2699 275.3186,501.7199" fill="none" id="AuthController-to-AuthService" style="stroke:#181818;stroke-width:1;"/><polygon fill="#181818" points="271.64,506.4599,280.3179,501.8022,274.7055,502.5099,273.9978,496.8974,271.64,506.4599" style="stroke:#181818;stroke-width:1;"/><text fill="#000000" font-family="sans-serif" font-size="13" lengthAdjust="spacing" textLength="164.2811" x="415" y="385.5669">Depends(get_auth_service)</text></g><!--link AuthController to RegisterRequest--><g class="link" data-entity-1="AuthController" data-entity-2="RegisterRequest" data-source-line="38" data-uid="lnk17" id="link_AuthController_RegisterRequest"><path codeLine="38" d="M654.7,314.7599 C632.5,329.9699 612.62,348.3899 598,370.6699 C565.16,420.6999 571.8039,488.6404 579.7439,529.4404" fill="none" id="AuthController-to-RegisterRequest" style="stroke:#181818;stroke-width:1;"/><polygon fill="#181818" points="580.89,535.3299,583.0971,525.7315,579.9349,530.422,575.2444,527.2597,580.89,535.3299" style="stroke:#181818;stroke-width:1;"/><text fill="#000000" font-family="sans-serif" font-size="13" lengthAdjust="spacing" textLength="144.5341" x="599" y="385.5669">request body (/register)</text></g><!--link AuthController to LoginRequest--><g class="link" data-entity-1="AuthController" data-entity-2="LoginRequest" data-source-line="39" data-uid="lnk18" id="link_AuthController_LoginRequest"><path codeLine="39" d="M786.59,314.8499 C774.53,331.9499 763.59,351.0499 757,370.6699 C738.22,426.5299 742.8322,490.6659 748.1922,529.6259" fill="none" id="AuthController-to-LoginRequest" style="stroke:#181818;stroke-width:1;"/><polygon fill="#181818" points="749.01,535.5699,751.746,526.1087,748.3285,530.6166,743.8207,527.1991,749.01,535.5699" style="stroke:#181818;stroke-width:1;"/><text fill="#000000" font-family="sans-serif" font-size="13" lengthAdjust="spacing" textLength="127.4651" x="758" y="385.5669">request body (/login)</text></g><!--link AuthController to TokenResponse--><g class="link" data-entity-1="AuthController" data-entity-2="TokenResponse" data-source-line="40" data-uid="lnk19" id="link_AuthController_TokenResponse"><path codeLine="40" d="M876.57,314.9799 C883.14,332.8499 889.52,352.2699 894,370.6699 C907.97,428.0199 913.6489,490.982 916.0989,529.472" fill="none" id="AuthController-to-TokenResponse" style="stroke:#181818;stroke-width:1;"/><polygon fill="#181818" points="916.48,535.4599,919.9002,526.224,916.1624,530.47,911.9164,526.7322,916.48,535.4599" style="stroke:#181818;stroke-width:1;"/><text fill="#000000" font-family="sans-serif" font-size="13" lengthAdjust="spacing" textLength="56.381" x="898" y="385.5669">response</text></g><!--link AuthController to UserContext--><g class="link" data-entity-1="AuthController" data-entity-2="UserContext" data-source-line="41" data-uid="lnk20" id="link_AuthController_UserContext"><path codeLine="41" d="M920.72,314.9999 C977.92,368.7299 1052.8571,439.1416 1110.0271,492.8516" fill="none" id="AuthController-to-UserContext" style="stroke:#181818;stroke-width:1;"/><polygon fill="#181818" points="1114.4,496.9599,1110.5795,487.8823,1110.7559,493.5364,1105.1018,493.7128,1114.4,496.9599" style="stroke:#181818;stroke-width:1;"/><text fill="#000000" font-family="sans-serif" font-size="13" lengthAdjust="spacing" textLength="215.2542" x="998" y="385.5669">Depends(get_user_context) for /me</text></g><!--SRC=[dLHDYzim4BthLmpfnKiJUvVUp1BORYaK2YtPzhGiGPKdZeWigHevR2Zxtol9TjTnVMXg7onhtfkFDoDvwHN2k-kLK9neTTVw_RtHtXcbq441vBcN8dnSAtphaD51QiiTR-0z5uVQcLPNzqOP1szsr_5bp0O3hn4MtDgSMvaVRnRmYp6050GcGMvlWnEFRhqE80ZFMt1OImfRcUKdPNXLmgRVsU3F5ialWOwYJ9uUq1sbm2ieuPiveDuWMQC9UrVAr5A_-laSVozsud3daFPP_ztwY2cZAl_key5C-ESIlXEwM3q- -mWT_GRW2tkPw4UTLreaSLu5xAC5zNh49VBzXrYNIpF7-Bk-nbIeA2UnnuPJpaDfur8dYSTo4tAz_WCPPpbdFyjX39Yc8ep3SUnHQm9DTAkHp6smRsNGIMhVRtdKNFkq-SLwQJHNZy7wD8Xb559GfRKA7zFqv7a-62swHX85qYmaIJSvEglL-cmOqbF21xIeAyfgzDiewBOVaQiv_bJXm7VzyeUfJf0LmpZDqi_Kxy9Fw6cePhdddUcv_QpCmCVzcAaqjKCC9siNRgIYGSQqyGXErdiFPZUvUzY3QPt04aBxYt1J5SUR8WgMsnFxoCdVVVq4tUMK_0r2BBk3iXo67xYkOh2SXMGW1cI_0G00]--></g></svg>