<svg xmlns="http://www.w3.org/2000/svg" xmlns:xlink="http://www.w3.org/1999/xlink" contentStyleType="text/css" data-diagram-type="CLASS" height="814px" preserveAspectRatio="none" style="width:837px;height:814px;background:#F0F0F0;" version="1.1" viewBox="0 0 837 814" width="837px" zoomAndPan="magnify"><title>30-class-UserProjectService / static structure</title><defs/><g><rect fill="#F0F0F0" height="814" style="stroke:none;stroke-width:1;" width="837" x="0" y="0"/><g class="title" data-source-line="1"><text fill="#000000" font-family="sans-serif" font-size="14" font-weight="bold" lengthAdjust="spacing" textLength="312.1428" x="255.7817" y="24.9659">30-class-UserProjectService / static structure</text></g><!--cluster app--><g class="cluster" data-entity="app" data-source-line="5" data-uid="ent0004" id="cluster_app"><path d="M8.5,46.6699 L35.6799,46.6699 A3.75,3.75 0 0 1 38.1799,49.1699 L45.1799,71.7378 L505.5,71.7378 A2.5,2.5 0 0 1 508,74.2378 L508,805.1699 A2.5,2.5 0 0 1 505.5,807.6699 L8.5,807.6699 A2.5,2.5 0 0 1 6,805.1699 L6,49.1699 A2.5,2.5 0 0 1 8.5,46.6699" fill="none" style="stroke:#000000;stroke-width:1.5;"/><line style="stroke:#000000;stroke-width:1.5;" x1="6" x2="45.1799" y1="71.7378" y2="71.7378"/><text fill="#000000" font-family="sans-serif" font-size="14" font-weight="bold" lengthAdjust="spacing" textLength="26.1799" x="10" y="63.6358">app</text></g><!--cluster services--><g class="cluster" data-entity="services" data-source-line="4" data-uid="ent0002" id="cluster_services"><path d="M32.5,92.6699 L89.7518,92.6699 A3.75,3.75 0 0 1 92.2518,95.1699 L99.2518,117.7378 L481.5,117.7378 A2.5,2.5 0 0 1 484,120.2378 L484,263.1699 A2.5,2.5 0 0 1 481.5,265.6699 L32.5,265.6699 A2.5,2.5 0 0 1 30,263.1699 L30,95.1699 A2.5,2.5 0 0 1 32.5,92.6699" fill="none" style="stroke:#000000;stroke-width:1.5;"/><line style="stroke:#000000;stroke-width:1.5;" x1="30" x2="99.2518" y1="117.7378" y2="117.7378"/><text fill="#000000" font-family="sans-serif" font-size="14" font-weight="bold" lengthAdjust="spacing" textLength="56.2518" x="34" y="109.6358">services</text></g><!--cluster repositories--><g class="cluster" data-entity="repositories" data-source-line="12" data-uid="ent0005" id="cluster_repositories"><path d="M109.5,316.6699 L194.4857,316.6699 A3.75,3.75 0 0 1 196.9857,319.1699 L203.9857,341.7378 L386.5,341.7378 A2.5,2.5 0 0 1 389,344.2378 L389,468.1699 A2.5,2.5 0 0 1 386.5,470.6699 L109.5,470.6699 A2.5,2.5 0 0 1 107,468.1699 L107,319.1699 A2.5,2.5 0 0 1 109.5,316.6699" fill="none" style="stroke:#000000;stroke-width:1.5;"/><line style="stroke:#000000;stroke-width:1.5;" x1="107" x2="203.9857" y1="341.7378" y2="341.7378"/><text fill="#000000" font-family="sans-serif" font-size="14" font-weight="bold" lengthAdjust="spacing" textLength="83.9857" x="111" y="333.6358">repositories</text></g><!--cluster models--><g class="cluster" data-entity="models" data-source-line="20" data-uid="ent0009" id="cluster_models"><path d="M244.5,521.6699 L296.2778,521.6699 A3.75,3.75 0 0 1 298.7778,524.1699 L305.7778,546.7378 L481.5,546.7378 A2.5,2.5 0 0 1 484,549.2378 L484,781.1699 A2.5,2.5 0 0 1 481.5,783.6699 L244.5,783.6699 A2.5,2.5 0 0 1 242,781.1699 L242,524.1699 A2.5,2.5 0 0 1 244.5,521.6699" fill="none" style="stroke:#000000;stroke-width:1.5;"/><line style="stroke:#000000;stroke-width:1.5;" x1="242" x2="305.7778" y1="546.7378" y2="546.7378"/><text fill="#000000" font-family="sans-serif" font-size="14" font-weight="bold" lengthAdjust="spacing" textLength="50.7778" x="246" y="538.6358">models</text></g><!--cluster orm--><g class="cluster" data-entity="orm" data-source-line="19" data-uid="ent0007" id="cluster_orm"><path d="M268.5,567.6699 L298.2699,567.6699 A3.75,3.75 0 0 1 300.7699,570.1699 L307.7699,592.7378 L457.5,592.7378 A2.5,2.5 0 0 1 460,595.2378 L460,757.1699 A2.5,2.5 0 0 1 457.5,759.6699 L268.5,759.6699 A2.5,2.5 0 0 1 266,757.1699 L266,570.1699 A2.5,2.5 0 0 1 268.5,567.6699" fill="none" style="stroke:#000000;stroke-width:1.5;"/><line style="stroke:#000000;stroke-width:1.5;" x1="266" x2="307.7699" y1="592.7378" y2="592.7378"/><text fill="#000000" font-family="sans-serif" font-size="14" font-weight="bold" lengthAdjust="spacing" textLength="28.7699" x="270" y="584.6358">orm</text></g><!--class UserProjectService--><g class="entity" data-entity="UserProjectService" data-source-line="5" data-uid="ent0003" id="entity_UserProjectService"><rect fill="#F1F1F1" height="118.6158" rx="2.5" ry="2.5" style="stroke:#181818;stroke-width:0.5;" width="421.8625" x="46" y="130.6699"/><ellipse cx="191.0185" cy="153.3759" fill="#ADD1B2" rx="11" ry="11" style="stroke:#181818;stroke-width:1;"/><path d="M193.9872,159.0165 Q193.4091,159.3134 192.7685,159.454 Q192.1278,159.6103 191.4247,159.6103 Q188.9247,159.6103 187.5966,157.9697 Q186.2841,156.3134 186.2841,153.1884 Q186.2841,150.0634 187.5966,148.4072 Q188.9247,146.7509 191.4247,146.7509 Q192.1278,146.7509 192.7685,146.9072 Q193.4247,147.0634 193.9872,147.3603 L193.9872,150.079 Q193.3622,149.5009 192.7685,149.2353 Q192.1747,148.954 191.5497,148.954 Q190.206,148.954 189.5185,150.0322 Q188.831,151.0947 188.831,153.1884 Q188.831,155.2822 189.5185,156.3603 Q190.206,157.4228 191.5497,157.4228 Q192.1747,157.4228 192.7685,157.1572 Q193.3622,156.8759 193.9872,156.2978 L193.9872,159.0165 Z " fill="#000000"/><text fill="#000000" font-family="sans-serif" font-size="12" font-style="italic" lengthAdjust="spacing" textLength="47.5203" x="249.4211" y="148.498">&#171;service&#187;</text><text fill="#000000" font-family="sans-serif" font-size="14" lengthAdjust="spacing" textLength="123.3255" x="211.5185" y="166.9799">UserProjectService</text><line style="stroke:#181818;stroke-width:0.5;" x1="47" x2="466.8625" y1="176.0819" y2="176.0819"/><rect fill="none" height="6" style="stroke:#C82930;stroke-width:1;" width="6" x="54" y="188.1159"/><text fill="#000000" font-family="sans-serif" font-size="14" lengthAdjust="spacing" textLength="206.9612" x="66" y="195.0479">project_repo: ProjectRepository</text><line style="stroke:#181818;stroke-width:0.5;" x1="47" x2="466.8625" y1="203.1498" y2="203.1498"/><ellipse cx="57" cy="218.1838" fill="#84BE84" rx="3" ry="3" style="stroke:#038048;stroke-width:1;"/><text fill="#000000" font-family="sans-serif" font-size="14" lengthAdjust="spacing" textLength="261.155" x="66" y="222.1158">__init__(project_repo: ProjectRepository)</text><ellipse cx="57" cy="237.2517" fill="#84BE84" rx="3" ry="3" style="stroke:#038048;stroke-width:1;"/><text fill="#000000" font-family="sans-serif" font-size="14" lengthAdjust="spacing" textLength="395.8625" x="66" y="241.1837">list_projects_for_user(user: Any | None) : Sequence&lt;Project&gt;</text></g><!--class ProjectRepository--><g class="entity" data-entity="ProjectRepository" data-source-line="13" data-uid="ent0006" id="entity_ProjectRepository"><rect fill="#F1F1F1" height="99.5479" rx="2.5" ry="2.5" style="stroke:#181818;stroke-width:0.5;" width="249.5091" x="123" y="354.6699"/><ellipse cx="185.2788" cy="377.3759" fill="#ADD1B2" rx="11" ry="11" style="stroke:#181818;stroke-width:1;"/><path d="M188.2475,383.0165 Q187.6694,383.3134 187.0288,383.454 Q186.3882,383.6103 185.685,383.6103 Q183.185,383.6103 181.8569,381.9697 Q180.5444,380.3134 180.5444,377.1884 Q180.5444,374.0634 181.8569,372.4072 Q183.185,370.7509 185.685,370.7509 Q186.3882,370.7509 187.0288,370.9072 Q187.685,371.0634 188.2475,371.3603 L188.2475,374.079 Q187.6225,373.5009 187.0288,373.2353 Q186.435,372.954 185.81,372.954 Q184.4663,372.954 183.7788,374.0322 Q183.0913,375.0947 183.0913,377.1884 Q183.0913,379.2822 183.7788,380.3603 Q184.4663,381.4228 185.81,381.4228 Q186.435,381.4228 187.0288,381.1572 Q187.6225,380.8759 188.2475,380.2978 L188.2475,383.0165 Z " fill="#000000"/><text fill="#000000" font-family="sans-serif" font-size="12" font-style="italic" lengthAdjust="spacing" textLength="65.3164" x="231.3463" y="372.498">&#171;repository&#187;</text><text fill="#000000" font-family="sans-serif" font-size="14" lengthAdjust="spacing" textLength="116.4516" x="205.7788" y="390.9799">ProjectRepository</text><line style="stroke:#181818;stroke-width:0.5;" x1="124" x2="371.5091" y1="400.0819" y2="400.0819"/><line style="stroke:#181818;stroke-width:0.5;" x1="124" x2="371.5091" y1="408.0819" y2="408.0819"/><ellipse cx="134" cy="423.1159" fill="#84BE84" rx="3" ry="3" style="stroke:#038048;stroke-width:1;"/><text fill="#000000" font-family="sans-serif" font-size="14" lengthAdjust="spacing" textLength="128.5335" x="143" y="427.0479">__init__(db: Session)</text><ellipse cx="134" cy="442.1838" fill="#84BE84" rx="3" ry="3" style="stroke:#038048;stroke-width:1;"/><text fill="#000000" font-family="sans-serif" font-size="14" lengthAdjust="spacing" textLength="223.5091" x="143" y="446.1158">list_projects() : Sequence&lt;Project&gt;</text></g><!--class Project--><g class="entity" data-entity="Project" data-source-line="20" data-uid="ent0008" id="entity_Project"><rect fill="#F1F1F1" height="137.6837" rx="2.5" ry="2.5" style="stroke:#181818;stroke-width:0.5;" width="161.3935" x="282.5" y="605.6699"/><ellipse cx="335.9448" cy="628.3759" fill="#ADD1B2" rx="11" ry="11" style="stroke:#181818;stroke-width:1;"/><path d="M338.9136,634.0165 Q338.3355,634.3134 337.6948,634.454 Q337.0542,634.6103 336.3511,634.6103 Q333.8511,634.6103 332.523,632.9697 Q331.2105,631.3134 331.2105,628.1884 Q331.2105,625.0634 332.523,623.4072 Q333.8511,621.7509 336.3511,621.7509 Q337.0542,621.7509 337.6948,621.9072 Q338.3511,622.0634 338.9136,622.3603 L338.9136,625.079 Q338.2886,624.5009 337.6948,624.2353 Q337.1011,623.954 336.4761,623.954 Q335.1323,623.954 334.4448,625.0322 Q333.7573,626.0947 333.7573,628.1884 Q333.7573,630.2822 334.4448,631.3603 Q335.1323,632.4228 336.4761,632.4228 Q337.1011,632.4228 337.6948,632.1572 Q338.2886,631.8759 338.9136,631.2978 L338.9136,634.0165 Z " fill="#000000"/><text fill="#000000" font-family="sans-serif" font-size="12" font-style="italic" lengthAdjust="spacing" textLength="41.0523" x="358.9206" y="623.498">&#171;entity&#187;</text><text fill="#000000" font-family="sans-serif" font-size="14" lengthAdjust="spacing" textLength="46.0038" x="356.4448" y="641.9799">Project</text><line style="stroke:#181818;stroke-width:0.5;" x1="283.5" x2="442.8935" y1="651.0819" y2="651.0819"/><ellipse cx="293.5" cy="666.1159" fill="none" rx="3" ry="3" style="stroke:#038048;stroke-width:1;"/><text fill="#000000" font-family="sans-serif" font-size="14" lengthAdjust="spacing" textLength="36.9319" x="302.5" y="670.0479">id: int</text><ellipse cx="293.5" cy="685.1838" fill="none" rx="3" ry="3" style="stroke:#038048;stroke-width:1;"/><text fill="#000000" font-family="sans-serif" font-size="14" lengthAdjust="spacing" textLength="62.4258" x="302.5" y="689.1158">name: str</text><ellipse cx="293.5" cy="704.2517" fill="none" rx="3" ry="3" style="stroke:#038048;stroke-width:1;"/><text fill="#000000" font-family="sans-serif" font-size="14" lengthAdjust="spacing" textLength="104.7336" x="302.5" y="708.1837">description: str?</text><ellipse cx="293.5" cy="723.3196" fill="none" rx="3" ry="3" style="stroke:#038048;stroke-width:1;"/><text fill="#000000" font-family="sans-serif" font-size="14" lengthAdjust="spacing" textLength="135.3935" x="302.5" y="727.2516">created_at: datetime</text><line style="stroke:#181818;stroke-width:0.5;" x1="283.5" x2="442.8935" y1="735.3536" y2="735.3536"/></g><g class="entity" data-entity="GMN13" data-source-line="33" data-uid="ent0014" id="entity_GMN13"><path d="M524.5,176.1699 L524.5,186.1699 L468.04,190.1699 L524.5,194.1699 L524.5,203.8759 A0,0 0 0 0 524.5,203.8759 L817.9022,203.8759 A0,0 0 0 0 817.9022,203.8759 L817.9022,186.1699 L807.9022,176.1699 L524.5,176.1699 A0,0 0 0 0 524.5,176.1699" fill="#FEFFDD" style="stroke:#181818;stroke-width:0.5;"/><path d="M807.9022,176.1699 L807.9022,186.1699 L817.9022,186.1699 L807.9022,176.1699" fill="#FEFFDD" style="stroke:#181818;stroke-width:0.5;"/><text fill="#000000" font-family="sans-serif" font-size="13" lengthAdjust="spacing" textLength="272.4022" x="530.5" y="195.0669">Source: app/services/user_project_service.py</text></g><g class="entity" data-entity="GMN16" data-source-line="37" data-uid="ent0017" id="entity_GMN16"><path d="M525.5,390.6699 L525.5,418.3759 L830.7062,418.3759 L830.7062,400.6699 L820.7062,390.6699 L525.5,390.6699" fill="#FEFFDD" style="stroke:#181818;stroke-width:0.5;"/><path d="M820.7062,390.6699 L820.7062,400.6699 L830.7062,400.6699 L820.7062,390.6699" fill="#FEFFDD" style="stroke:#181818;stroke-width:1;"/><text fill="#000000" font-family="sans-serif" font-size="13" lengthAdjust="spacing" textLength="284.2062" x="531.5" y="409.5669">Source: app/repositories/project_repository.py</text></g><g class="entity" data-entity="GMN19" data-source-line="41" data-uid="ent0020" id="entity_GMN19"><path d="M523.5,660.6699 L523.5,670.6699 L443.66,674.6699 L523.5,678.6699 L523.5,688.3759 A0,0 0 0 0 523.5,688.3759 L762.4062,688.3759 A0,0 0 0 0 762.4062,688.3759 L762.4062,670.6699 L752.4062,660.6699 L523.5,660.6699 A0,0 0 0 0 523.5,660.6699" fill="#FEFFDD" style="stroke:#181818;stroke-width:0.5;"/><path d="M752.4062,660.6699 L752.4062,670.6699 L762.4062,670.6699 L752.4062,660.6699" fill="#FEFFDD" style="stroke:#181818;stroke-width:0.5;"/><text fill="#000000" font-family="sans-serif" font-size="13" lengthAdjust="spacing" textLength="217.9062" x="529.5" y="679.5669">Source: app/models/orm/project.py</text></g><!--link UserProjectService to ProjectRepository--><g class="link" data-entity-1="UserProjectService" data-entity-2="ProjectRepository" data-source-line="28" data-uid="lnk10" id="link_UserProjectService_ProjectRepository"><path codeLine="28" d="M254.52,249.7999 C253.12,282.7199 251.6534,317.3453 250.3334,348.5753" fill="none" id="UserProjectService-to-ProjectRepository" style="stroke:#181818;stroke-width:1;"/><polygon fill="#181818" points="250.08,354.5699,254.4565,345.7468,250.2911,349.5744,246.4636,345.409,250.08,354.5699" style="stroke:#181818;stroke-width:1;"/><text fill="#000000" font-family="sans-serif" font-size="13" lengthAdjust="spacing" textLength="27.82" x="254" y="296.5669">uses</text></g><!--link UserProjectService to Project--><g class="link" data-entity-1="UserProjectService" data-entity-2="Project" data-source-line="29" data-uid="lnk11" id="link_UserProjectService_Project"><path codeLine="29" d="M344.48,249.9799 C362.5,266.6499 379.02,286.4199 389,308.6699 C432.1,404.7399 410.159,523.6567 388.159,599.6267" fill="none" id="UserProjectService-to-Project" style="stroke:#181818;stroke-width:1;stroke-dasharray:7,7;"/><polygon fill="#181818" points="386.49,605.3899,392.8356,597.8577,387.8808,600.5872,385.1513,595.6324,386.49,605.3899" style="stroke:#181818;stroke-width:1;"/><text fill="#000000" font-family="sans-serif" font-size="13" lengthAdjust="spacing" textLength="45.058" x="414" y="410.0669">returns</text></g><!--link ProjectRepository to Project--><g class="link" data-entity-1="ProjectRepository" data-entity-2="Project" data-source-line="30" data-uid="lnk12" id="link_ProjectRepository_Project"><path codeLine="30" d="M269.09,454.8299 C287.25,497.1399 311.2641,553.1061 331.4441,600.1361" fill="none" id="ProjectRepository-to-Project" style="stroke:#181818;stroke-width:1;stroke-dasharray:7,7;"/><polygon fill="#181818" points="333.81,605.6499,333.937,595.8019,331.8384,601.055,326.5852,598.9564,333.81,605.6499" style="stroke:#181818;stroke-width:1;"/><text fill="#000000" font-family="sans-serif" font-size="13" lengthAdjust="spacing" textLength="45.058" x="289" y="501.5669">returns</text></g><!--link ProjectRepository to GMN16--><g class="link" data-entity-1="ProjectRepository" data-entity-2="GMN16" data-source-line="37" data-uid="lnk18" id="link_ProjectRepository_GMN16"><path d="M304.34,354.5599 C335.4,330.3199 375.99,303.7799 417.5,291.1699 C515.21,261.4799 625.22,354.0099 663.76,390.5199" fill="none" id="ProjectRepository-GMN16" style="stroke:#181818;stroke-width:1;stroke-dasharray:7,7;"/></g><!--SRC=[ZLB1IiD04BtlLmprqY992jv2YQXt4OldPTrCwzfaDyvEXABzTpVjfgHjm198CfkND-_DF3PS8TpD4rqfxvCtZ_H2xXCrBv6-ZKR8mBDYeyE3MiqjeV0ROnj5geP7fJThSgqjdrpb26vMy-uIeWaVr1fXefeczGSgFu4V0R3l12ET5ei8B8ez4221vW2HX8tB8Vxm6WflsD5sZxe5AOqrBENq7_WiuYlZMKQiboj7iWsjfzqjXmUxXLzuTXPdaCCIlrgq6XUHh0WKEx4xSqXz2tFgya91C7d4Rey-1mxAzwwdzyRPKRNJwqNLhiJAfuxg4Kb125esF1HXoXoCvLXPLMFURJtM9NfDfk6WR7zy7yyreM8ifU8Sol36fiPUpyYMawGO6KiEOVX-39-cHtn04OO4MYyk6SPnmZf68BF-O72haTI9fMj91wDXObaVrAnBGZzo6K_JPYlGbj0ndlDU1dD8Eqn7Depe0Ni5yGdTOQzPs6jFDcJu0m00]--></g></svg>