<svg xmlns="http://www.w3.org/2000/svg" xmlns:xlink="http://www.w3.org/1999/xlink" contentStyleType="text/css" data-diagram-type="CLASS" height="563px" preserveAspectRatio="none" style="width:908px;height:563px;background:#F0F0F0;" version="1.1" viewBox="0 0 908 563" width="908px" zoomAndPan="magnify"><title>30-class-ProjectController / static structure</title><defs/><g><rect fill="#F0F0F0" height="563" style="stroke:none;stroke-width:1;" width="908" x="0" y="0"/><g class="title" data-source-line="2"><text fill="#000000" font-family="sans-serif" font-size="14" font-weight="bold" lengthAdjust="spacing" textLength="300.9709" x="297.0136" y="24.9659">30-class-ProjectController / static structure</text></g><!--cluster app--><g class="cluster" data-entity="app" data-source-line="6" data-uid="ent0004" id="cluster_app"><path d="M8.5,46.6699 L35.6799,46.6699 A3.75,3.75 0 0 1 38.1799,49.1699 L45.1799,71.7378 L675.5,71.7378 A2.5,2.5 0 0 1 678,74.2378 L678,554.1699 A2.5,2.5 0 0 1 675.5,556.6699 L8.5,556.6699 A2.5,2.5 0 0 1 6,554.1699 L6,49.1699 A2.5,2.5 0 0 1 8.5,46.6699" fill="none" style="stroke:#000000;stroke-width:1.5;"/><line style="stroke:#000000;stroke-width:1.5;" x1="6" x2="45.1799" y1="71.7378" y2="71.7378"/><text fill="#000000" font-family="sans-serif" font-size="14" font-weight="bold" lengthAdjust="spacing" textLength="26.1799" x="10" y="63.6358">app</text></g><!--cluster api--><g class="cluster" data-entity="api" data-source-line="6" data-uid="ent0005" id="cluster_api"><path d="M32.5,92.6699 L55.0879,92.6699 A3.75,3.75 0 0 1 57.5879,95.1699 L64.5879,117.7378 L651.5,117.7378 A2.5,2.5 0 0 1 654,120.2378 L654,294.1699 A2.5,2.5 0 0 1 651.5,296.6699 L32.5,296.6699 A2.5,2.5 0 0 1 30,294.1699 L30,95.1699 A2.5,2.5 0 0 1 32.5,92.6699" fill="none" style="stroke:#000000;stroke-width:1.5;"/><line style="stroke:#000000;stroke-width:1.5;" x1="30" x2="64.5879" y1="117.7378" y2="117.7378"/><text fill="#000000" font-family="sans-serif" font-size="14" font-weight="bold" lengthAdjust="spacing" textLength="21.5879" x="34" y="109.6358">api</text></g><!--cluster v1--><g class="cluster" data-entity="v1" data-source-line="5" data-uid="ent0002" id="cluster_v1"><path d="M56.5,138.6699 L73.4739,138.6699 A3.75,3.75 0 0 1 75.9739,141.1699 L82.9739,163.7378 L627.5,163.7378 A2.5,2.5 0 0 1 630,166.2378 L630,270.1699 A2.5,2.5 0 0 1 627.5,272.6699 L56.5,272.6699 A2.5,2.5 0 0 1 54,270.1699 L54,141.1699 A2.5,2.5 0 0 1 56.5,138.6699" fill="none" style="stroke:#000000;stroke-width:1.5;"/><line style="stroke:#000000;stroke-width:1.5;" x1="54" x2="82.9739" y1="163.7378" y2="163.7378"/><text fill="#000000" font-family="sans-serif" font-size="14" font-weight="bold" lengthAdjust="spacing" textLength="15.9739" x="58" y="155.6358">v1</text></g><!--cluster services--><g class="cluster" data-entity="services" data-source-line="11" data-uid="ent0006" id="cluster_services"><path d="M37.5,393.6699 L94.7518,393.6699 A3.75,3.75 0 0 1 97.2518,396.1699 L104.2518,418.7378 L220.5,418.7378 A2.5,2.5 0 0 1 223,421.2378 L223,506.1699 A2.5,2.5 0 0 1 220.5,508.6699 L37.5,508.6699 A2.5,2.5 0 0 1 35,506.1699 L35,396.1699 A2.5,2.5 0 0 1 37.5,393.6699" fill="none" style="stroke:#000000;stroke-width:1.5;"/><line style="stroke:#000000;stroke-width:1.5;" x1="35" x2="104.2518" y1="418.7378" y2="418.7378"/><text fill="#000000" font-family="sans-serif" font-size="14" font-weight="bold" lengthAdjust="spacing" textLength="56.2518" x="39" y="410.6358">services</text></g><!--cluster models--><g class="cluster" data-entity="models" data-source-line="16" data-uid="ent0010" id="cluster_models"><path d="M249.5,347.6699 L301.2778,347.6699 A3.75,3.75 0 0 1 303.7778,350.1699 L310.7778,372.7378 L434.5,372.7378 A2.5,2.5 0 0 1 437,375.2378 L437,530.1699 A2.5,2.5 0 0 1 434.5,532.6699 L249.5,532.6699 A2.5,2.5 0 0 1 247,530.1699 L247,350.1699 A2.5,2.5 0 0 1 249.5,347.6699" fill="none" style="stroke:#000000;stroke-width:1.5;"/><line style="stroke:#000000;stroke-width:1.5;" x1="247" x2="310.7778" y1="372.7378" y2="372.7378"/><text fill="#000000" font-family="sans-serif" font-size="14" font-weight="bold" lengthAdjust="spacing" textLength="50.7778" x="251" y="364.6358">models</text></g><!--cluster schemas--><g class="cluster" data-entity="schemas" data-source-line="15" data-uid="ent0008" id="cluster_schemas"><path d="M273.5,393.6699 L335.2878,393.6699 A3.75,3.75 0 0 1 337.7878,396.1699 L344.7878,418.7378 L410.5,418.7378 A2.5,2.5 0 0 1 413,421.2378 L413,506.1699 A2.5,2.5 0 0 1 410.5,508.6699 L273.5,508.6699 A2.5,2.5 0 0 1 271,506.1699 L271,396.1699 A2.5,2.5 0 0 1 273.5,393.6699" fill="none" style="stroke:#000000;stroke-width:1.5;"/><line style="stroke:#000000;stroke-width:1.5;" x1="271" x2="344.7878" y1="418.7378" y2="418.7378"/><text fill="#000000" font-family="sans-serif" font-size="14" font-weight="bold" lengthAdjust="spacing" textLength="60.7878" x="275" y="410.6358">schemas</text></g><!--cluster core--><g class="cluster" data-entity="core" data-source-line="19" data-uid="ent0011" id="cluster_core"><path d="M463.5,393.6699 L494.9919,393.6699 A3.75,3.75 0 0 1 497.4919,396.1699 L504.4919,418.7378 L604.5,418.7378 A2.5,2.5 0 0 1 607,421.2378 L607,506.1699 A2.5,2.5 0 0 1 604.5,508.6699 L463.5,508.6699 A2.5,2.5 0 0 1 461,506.1699 L461,396.1699 A2.5,2.5 0 0 1 463.5,393.6699" fill="none" style="stroke:#000000;stroke-width:1.5;"/><line style="stroke:#000000;stroke-width:1.5;" x1="461" x2="504.4919" y1="418.7378" y2="418.7378"/><text fill="#000000" font-family="sans-serif" font-size="14" font-weight="bold" lengthAdjust="spacing" textLength="30.4919" x="465" y="410.6358">core</text></g><!--class ProjectController--><g class="entity" data-entity="ProjectController" data-source-line="6" data-uid="ent0003" id="entity_ProjectController"><rect fill="#F1F1F1" height="80.4799" rx="2.5" ry="2.5" style="stroke:#181818;stroke-width:0.5;" width="542.9901" x="70.5" y="176.6699"/><ellipse cx="281.6543" cy="199.3759" fill="#ADD1B2" rx="11" ry="11" style="stroke:#181818;stroke-width:1;"/><path d="M284.623,205.0165 Q284.0449,205.3134 283.4043,205.454 Q282.7636,205.6103 282.0605,205.6103 Q279.5605,205.6103 278.2324,203.9697 Q276.9199,202.3134 276.9199,199.1884 Q276.9199,196.0634 278.2324,194.4072 Q279.5605,192.7509 282.0605,192.7509 Q282.7636,192.7509 283.4043,192.9072 Q284.0605,193.0634 284.623,193.3603 L284.623,196.079 Q283.998,195.5009 283.4043,195.2353 Q282.8105,194.954 282.1855,194.954 Q280.8418,194.954 280.1543,196.0322 Q279.4668,197.0947 279.4668,199.1884 Q279.4668,201.2822 280.1543,202.3603 Q280.8418,203.4228 282.1855,203.4228 Q282.8105,203.4228 283.4043,203.1572 Q283.998,202.8759 284.623,202.2978 L284.623,205.0165 Z " fill="#000000"/><text fill="#000000" font-family="sans-serif" font-size="12" font-style="italic" lengthAdjust="spacing" textLength="63.0604" x="326.7148" y="194.498">&#171;controller&#187;</text><text fill="#000000" font-family="sans-serif" font-size="14" lengthAdjust="spacing" textLength="112.1816" x="302.1543" y="212.9799">ProjectController</text><line style="stroke:#181818;stroke-width:0.5;" x1="71.5" x2="612.4901" y1="222.0819" y2="222.0819"/><line style="stroke:#181818;stroke-width:0.5;" x1="71.5" x2="612.4901" y1="230.0819" y2="230.0819"/><ellipse cx="81.5" cy="245.1159" fill="#84BE84" rx="3" ry="3" style="stroke:#038048;stroke-width:1;"/><text fill="#000000" font-family="sans-serif" font-size="14" lengthAdjust="spacing" textLength="516.9901" x="90.5" y="249.0479">list_projects(ctx: UserContext, svc: UserProjectService) : Sequence[ProjectRead]</text></g><!--class UserProjectService--><g class="entity" data-entity="UserProjectService" data-source-line="12" data-uid="ent0007" id="entity_UserProjectService"><rect fill="#F1F1F1" height="61.412" rx="2.5" ry="2.5" style="stroke:#181818;stroke-width:0.5;" width="155.3255" x="51.5" y="431.6699"/><ellipse cx="66.5" cy="454.3759" fill="#ADD1B2" rx="11" ry="11" style="stroke:#181818;stroke-width:1;"/><path d="M69.4688,460.0165 Q68.8906,460.3134 68.25,460.454 Q67.6094,460.6103 66.9063,460.6103 Q64.4063,460.6103 63.0781,458.9697 Q61.7656,457.3134 61.7656,454.1884 Q61.7656,451.0634 63.0781,449.4072 Q64.4063,447.7509 66.9063,447.7509 Q67.6094,447.7509 68.25,447.9072 Q68.9063,448.0634 69.4688,448.3603 L69.4688,451.079 Q68.8438,450.5009 68.25,450.2353 Q67.6563,449.954 67.0313,449.954 Q65.6875,449.954 65,451.0322 Q64.3125,452.0947 64.3125,454.1884 Q64.3125,456.2822 65,457.3603 Q65.6875,458.4228 67.0313,458.4228 Q67.6563,458.4228 68.25,458.1572 Q68.8438,457.8759 69.4688,457.2978 L69.4688,460.0165 Z " fill="#000000"/><text fill="#000000" font-family="sans-serif" font-size="12" font-style="italic" lengthAdjust="spacing" textLength="47.5203" x="118.4026" y="449.498">&#171;service&#187;</text><text fill="#000000" font-family="sans-serif" font-size="14" lengthAdjust="spacing" textLength="123.3255" x="80.5" y="467.9799">UserProjectService</text><line style="stroke:#181818;stroke-width:0.5;" x1="52.5" x2="205.8255" y1="477.0819" y2="477.0819"/><line style="stroke:#181818;stroke-width:0.5;" x1="52.5" x2="205.8255" y1="485.0819" y2="485.0819"/></g><!--class ProjectRead--><g class="entity" data-entity="ProjectRead" data-source-line="16" data-uid="ent0009" id="entity_ProjectRead"><rect fill="#F1F1F1" height="61.412" rx="2.5" ry="2.5" style="stroke:#181818;stroke-width:0.5;" width="111.0717" x="286.5" y="431.6699"/><ellipse cx="301.5" cy="454.3759" fill="#ADD1B2" rx="11" ry="11" style="stroke:#181818;stroke-width:1;"/><path d="M304.4688,460.0165 Q303.8906,460.3134 303.25,460.454 Q302.6094,460.6103 301.9063,460.6103 Q299.4063,460.6103 298.0781,458.9697 Q296.7656,457.3134 296.7656,454.1884 Q296.7656,451.0634 298.0781,449.4072 Q299.4063,447.7509 301.9063,447.7509 Q302.6094,447.7509 303.25,447.9072 Q303.9063,448.0634 304.4688,448.3603 L304.4688,451.079 Q303.8438,450.5009 303.25,450.2353 Q302.6563,449.954 302.0313,449.954 Q300.6875,449.954 300,451.0322 Q299.3125,452.0947 299.3125,454.1884 Q299.3125,456.2822 300,457.3603 Q300.6875,458.4228 302.0313,458.4228 Q302.6563,458.4228 303.25,458.1572 Q303.8438,457.8759 304.4688,457.2978 L304.4688,460.0165 Z " fill="#000000"/><text fill="#000000" font-family="sans-serif" font-size="12" font-style="italic" lengthAdjust="spacing" textLength="29.1362" x="340.4678" y="449.498">&#171;dto&#187;</text><text fill="#000000" font-family="sans-serif" font-size="14" lengthAdjust="spacing" textLength="79.0717" x="315.5" y="467.9799">ProjectRead</text><line style="stroke:#181818;stroke-width:0.5;" x1="287.5" x2="396.5717" y1="477.0819" y2="477.0819"/><line style="stroke:#181818;stroke-width:0.5;" x1="287.5" x2="396.5717" y1="485.0819" y2="485.0819"/></g><!--class UserContext--><g class="entity" data-entity="UserContext" data-source-line="20" data-uid="ent0012" id="entity_UserContext"><rect fill="#F1F1F1" height="61.412" rx="2.5" ry="2.5" style="stroke:#181818;stroke-width:0.5;" width="113.9977" x="477" y="431.6699"/><ellipse cx="492" cy="454.3759" fill="#ADD1B2" rx="11" ry="11" style="stroke:#181818;stroke-width:1;"/><path d="M494.9688,460.0165 Q494.3906,460.3134 493.75,460.454 Q493.1094,460.6103 492.4063,460.6103 Q489.9063,460.6103 488.5781,458.9697 Q487.2656,457.3134 487.2656,454.1884 Q487.2656,451.0634 488.5781,449.4072 Q489.9063,447.7509 492.4063,447.7509 Q493.1094,447.7509 493.75,447.9072 Q494.4063,448.0634 494.9688,448.3603 L494.9688,451.079 Q494.3438,450.5009 493.75,450.2353 Q493.1563,449.954 492.5313,449.954 Q491.1875,449.954 490.5,451.0322 Q489.8125,452.0947 489.8125,454.1884 Q489.8125,456.2822 490.5,457.3603 Q491.1875,458.4228 492.5313,458.4228 Q493.1563,458.4228 493.75,458.1572 Q494.3438,457.8759 494.9688,457.2978 L494.9688,460.0165 Z " fill="#000000"/><text fill="#000000" font-family="sans-serif" font-size="12" font-style="italic" lengthAdjust="spacing" textLength="50.3403" x="521.8287" y="449.498">&#171;context&#187;</text><text fill="#000000" font-family="sans-serif" font-size="14" lengthAdjust="spacing" textLength="81.9977" x="506" y="467.9799">UserContext</text><line style="stroke:#181818;stroke-width:0.5;" x1="478" x2="589.9977" y1="477.0819" y2="477.0819"/><line style="stroke:#181818;stroke-width:0.5;" x1="478" x2="589.9977" y1="485.0819" y2="485.0819"/></g><g class="entity" data-entity="GMN16" data-source-line="28" data-uid="ent0017" id="entity_GMN16"><path d="M694.5,202.6699 L694.5,212.6699 L613.64,216.6699 L694.5,220.6699 L694.5,230.3759 A0,0 0 0 0 694.5,230.3759 L901.9982,230.3759 A0,0 0 0 0 901.9982,230.3759 L901.9982,212.6699 L891.9982,202.6699 L694.5,202.6699 A0,0 0 0 0 694.5,202.6699" fill="#FEFFDD" style="stroke:#181818;stroke-width:0.5;"/><path d="M891.9982,202.6699 L891.9982,212.6699 L901.9982,212.6699 L891.9982,202.6699" fill="#FEFFDD" style="stroke:#181818;stroke-width:0.5;"/><text fill="#000000" font-family="sans-serif" font-size="13" lengthAdjust="spacing" textLength="186.4982" x="700.5" y="221.5669">Source: app/api/v1/projects.py</text></g><!--link ProjectController to UserProjectService--><g class="link" data-entity-1="ProjectController" data-entity-2="UserProjectService" data-source-line="23" data-uid="lnk13" id="link_ProjectController_UserProjectService"><path codeLine="23" d="M295.87,256.8399 C277.43,273.3399 256.47,293.2099 239,312.6699 C204.27,351.3399 172.8097,395.5687 151.9197,426.4787" fill="none" id="ProjectController-to-UserProjectService" style="stroke:#181818;stroke-width:1;"/><polygon fill="#181818" points="148.56,431.4499,156.9136,426.2329,151.3597,427.3073,150.2854,421.7534,148.56,431.4499" style="stroke:#181818;stroke-width:1;"/><text fill="#000000" font-family="sans-serif" font-size="13" lengthAdjust="spacing" textLength="93.4051" x="240" y="327.5669">uses (Depends)</text></g><!--link ProjectController to ProjectRead--><g class="link" data-entity-1="ProjectController" data-entity-2="ProjectRead" data-source-line="24" data-uid="lnk14" id="link_ProjectController_ProjectRead"><path codeLine="24" d="M342,256.7899 C342,305.4599 342,381.4699 342,425.3499" fill="none" id="ProjectController-to-ProjectRead" style="stroke:#181818;stroke-width:1;stroke-dasharray:7,7;"/><polygon fill="#181818" points="342,431.3499,346,422.3499,342,426.3499,338,422.3499,342,431.3499" style="stroke:#181818;stroke-width:1;"/><text fill="#000000" font-family="sans-serif" font-size="13" lengthAdjust="spacing" textLength="45.058" x="343" y="327.5669">returns</text></g><!--link ProjectController to UserContext--><g class="link" data-entity-1="ProjectController" data-entity-2="UserContext" data-source-line="25" data-uid="lnk15" id="link_ProjectController_UserContext"><path codeLine="25" d="M372.85,256.7899 C411.22,305.4599 472.1749,382.7584 506.7749,426.6384" fill="none" id="ProjectController-to-UserContext" style="stroke:#181818;stroke-width:1;stroke-dasharray:7,7;"/><polygon fill="#181818" points="510.49,431.3499,508.0584,421.8059,507.3941,427.4237,501.7764,426.7594,510.49,431.3499" style="stroke:#181818;stroke-width:1;"/><text fill="#000000" font-family="sans-serif" font-size="13" lengthAdjust="spacing" textLength="166.4651" x="427" y="327.5669">Depends(get_user_context)</text></g><!--SRC=[TLBDJiCm3BxdAQnnsGHjDt6hfXuO3u2OE24qHQdNXML9iDDg2EtTITU2nbgKGtxixyTsWWu6uNwUA2EPaoToxwZ2ojb0pXWao82335h5ZMeLQaB1Ussz97c01wds5RdQbYjd7C7DTjuk8NmCo0fX8hrFfTTfivZ0bm0uoy1GPhbKlvUYEAS2t8BH73Q-o-Qf2iSSNXYf1U8nt04tgdlf6TT8ZLOuWnpM-56ZLVZQXvvHbc-HzYHEL_wu0_6bmo5djDWd5iM0uk1AD9oosk51yaYfhNfaA8CRGIj7U2tUbzWt9fuwtB1pILACkSsXPcIOFg97M_9i19ccnHzxEH360Ll-9_VILWuzyRJ2i8bIjEbzpeImBY2GhdO1t7OuRB5sDIdC8TQUnS-HDOliPyQf_nIH5bgARm00]--></g></svg>