<svg xmlns="http://www.w3.org/2000/svg" xmlns:xlink="http://www.w3.org/1999/xlink" contentStyleType="text/css" data-diagram-type="CLASS" height="802px" preserveAspectRatio="none" style="width:2281px;height:802px;background:#F0F0F0;" version="1.1" viewBox="0 0 2281 802" width="2281px" zoomAndPan="magnify"><title>30-class-Repositories / static structure</title><defs/><g><rect fill="#F0F0F0" height="802" style="stroke:none;stroke-width:1;" width="2281" x="0" y="0"/><g class="title" data-source-line="2"><text fill="#000000" font-family="sans-serif" font-size="14" font-weight="bold" lengthAdjust="spacing" textLength="267.161" x="999.9195" y="24.9659">30-class-Repositories / static structure</text></g><!--cluster app--><g class="cluster" data-entity="app" data-source-line="6" data-uid="ent0004" id="cluster_app"><path d="M8.5,46.6699 L35.6799,46.6699 A3.75,3.75 0 0 1 38.1799,49.1699 L45.1799,71.7378 L2271.5,71.7378 A2.5,2.5 0 0 1 2274,74.2378 L2274,792.6699 A2.5,2.5 0 0 1 2271.5,795.1699 L8.5,795.1699 A2.5,2.5 0 0 1 6,792.6699 L6,49.1699 A2.5,2.5 0 0 1 8.5,46.6699" fill="none" style="stroke:#000000;stroke-width:1.5;"/><line style="stroke:#000000;stroke-width:1.5;" x1="6" x2="45.1799" y1="71.7378" y2="71.7378"/><text fill="#000000" font-family="sans-serif" font-size="14" font-weight="bold" lengthAdjust="spacing" textLength="26.1799" x="10" y="63.6358">app</text></g><!--cluster infrastructure--><g class="cluster" data-entity="infrastructure" data-source-line="6" data-uid="ent0005" id="cluster_infrastructure"><path d="M2014.5,257.6699 L2114.8856,257.6699 A3.75,3.75 0 0 1 2117.3856,260.1699 L2124.3856,282.7378 L2247.5,282.7378 A2.5,2.5 0 0 1 2250,285.2378 L2250,740.1699 A2.5,2.5 0 0 1 2247.5,742.6699 L2014.5,742.6699 A2.5,2.5 0 0 1 2012,740.1699 L2012,260.1699 A2.5,2.5 0 0 1 2014.5,257.6699" fill="none" style="stroke:#000000;stroke-width:1.5;"/><line style="stroke:#000000;stroke-width:1.5;" x1="2012" x2="2124.3856" y1="282.7378" y2="282.7378"/><text fill="#000000" font-family="sans-serif" font-size="14" font-weight="bold" lengthAdjust="spacing" textLength="99.3856" x="2016" y="274.6358">infrastructure</text></g><!--cluster db--><g class="cluster" data-entity="db" data-source-line="5" data-uid="ent0002" id="cluster_db"><path d="M2038.5,303.6699 L2057.2239,303.6699 A3.75,3.75 0 0 1 2059.7239,306.1699 L2066.7239,328.7378 L2223.5,328.7378 A2.5,2.5 0 0 1 2226,331.2378 L2226,716.1699 A2.5,2.5 0 0 1 2223.5,718.6699 L2038.5,718.6699 A2.5,2.5 0 0 1 2036,716.1699 L2036,306.1699 A2.5,2.5 0 0 1 2038.5,303.6699" fill="none" style="stroke:#000000;stroke-width:1.5;"/><line style="stroke:#000000;stroke-width:1.5;" x1="2036" x2="2066.7239" y1="328.7378" y2="328.7378"/><text fill="#000000" font-family="sans-serif" font-size="14" font-weight="bold" lengthAdjust="spacing" textLength="17.7239" x="2040" y="320.6358">db</text></g><!--cluster models--><g class="cluster" data-entity="models" data-source-line="16" data-uid="ent0009" id="cluster_models"><path d="M900.5,508.1699 L952.2778,508.1699 A3.75,3.75 0 0 1 954.7778,510.6699 L961.7778,533.2378 L1427.5,533.2378 A2.5,2.5 0 0 1 1430,535.7378 L1430,768.6699 A2.5,2.5 0 0 1 1427.5,771.1699 L900.5,771.1699 A2.5,2.5 0 0 1 898,768.6699 L898,510.6699 A2.5,2.5 0 0 1 900.5,508.1699" fill="none" style="stroke:#000000;stroke-width:1.5;"/><line style="stroke:#000000;stroke-width:1.5;" x1="898" x2="961.7778" y1="533.2378" y2="533.2378"/><text fill="#000000" font-family="sans-serif" font-size="14" font-weight="bold" lengthAdjust="spacing" textLength="50.7778" x="902" y="525.1358">models</text></g><!--cluster orm--><g class="cluster" data-entity="orm" data-source-line="15" data-uid="ent0007" id="cluster_orm"><path d="M924.5,554.1699 L954.2699,554.1699 A3.75,3.75 0 0 1 956.7699,556.6699 L963.7699,579.2378 L1403.5,579.2378 A2.5,2.5 0 0 1 1406,581.7378 L1406,744.6699 A2.5,2.5 0 0 1 1403.5,747.1699 L924.5,747.1699 A2.5,2.5 0 0 1 922,744.6699 L922,556.6699 A2.5,2.5 0 0 1 924.5,554.1699" fill="none" style="stroke:#000000;stroke-width:1.5;"/><line style="stroke:#000000;stroke-width:1.5;" x1="922" x2="963.7699" y1="579.2378" y2="579.2378"/><text fill="#000000" font-family="sans-serif" font-size="14" font-weight="bold" lengthAdjust="spacing" textLength="28.7699" x="926" y="571.1358">orm</text></g><!--cluster repositories--><g class="cluster" data-entity="repositories" data-source-line="38" data-uid="ent0012" id="cluster_repositories"><path d="M584.5,92.6699 L669.4857,92.6699 A3.75,3.75 0 0 1 671.9857,95.1699 L678.9857,117.7378 L1985.5,117.7378 A2.5,2.5 0 0 1 1988,120.2378 L1988,454.6699 A2.5,2.5 0 0 1 1985.5,457.1699 L584.5,457.1699 A2.5,2.5 0 0 1 582,454.6699 L582,95.1699 A2.5,2.5 0 0 1 584.5,92.6699" fill="none" style="stroke:#000000;stroke-width:1.5;"/><line style="stroke:#000000;stroke-width:1.5;" x1="582" x2="678.9857" y1="117.7378" y2="117.7378"/><text fill="#000000" font-family="sans-serif" font-size="14" font-weight="bold" lengthAdjust="spacing" textLength="83.9857" x="586" y="109.6358">repositories</text></g><!--cluster services--><g class="cluster" data-entity="services" data-source-line="63" data-uid="ent0017" id="cluster_services"><path d="M32.5,102.1699 L89.7518,102.1699 A3.75,3.75 0 0 1 92.2518,104.6699 L99.2518,127.2378 L555.5,127.2378 A2.5,2.5 0 0 1 558,129.7378 L558,214.6699 A2.5,2.5 0 0 1 555.5,217.1699 L32.5,217.1699 A2.5,2.5 0 0 1 30,214.6699 L30,104.6699 A2.5,2.5 0 0 1 32.5,102.1699" fill="none" style="stroke:#000000;stroke-width:1.5;"/><line style="stroke:#000000;stroke-width:1.5;" x1="30" x2="99.2518" y1="127.2378" y2="127.2378"/><text fill="#000000" font-family="sans-serif" font-size="14" font-weight="bold" lengthAdjust="spacing" textLength="56.2518" x="34" y="119.1358">services</text></g><!--class DbSession--><g class="entity" data-entity="DbSession" data-source-line="6" data-uid="ent0003" id="entity_DbSession"><rect fill="#F1F1F1" height="82.0139" rx="2.5" ry="2.5" style="stroke:#181818;stroke-width:0.5;" width="142.3995" x="2052" y="620.6699"/><ellipse cx="2085.8288" cy="643.3759" fill="#ADD1B2" rx="11" ry="11" style="stroke:#181818;stroke-width:1;"/><path d="M2088.7975,649.0165 Q2088.2194,649.3134 2087.5788,649.454 Q2086.9382,649.6103 2086.235,649.6103 Q2083.735,649.6103 2082.4069,647.9697 Q2081.0944,646.3134 2081.0944,643.1884 Q2081.0944,640.0634 2082.4069,638.4072 Q2083.735,636.7509 2086.235,636.7509 Q2086.9382,636.7509 2087.5788,636.9072 Q2088.235,637.0634 2088.7975,637.3603 L2088.7975,640.079 Q2088.1725,639.5009 2087.5788,639.2353 Q2086.985,638.954 2086.36,638.954 Q2085.0163,638.954 2084.3288,640.0322 Q2083.6413,641.0947 2083.6413,643.1884 Q2083.6413,645.2822 2084.3288,646.3603 Q2085.0163,647.4228 2086.36,647.4228 Q2086.985,647.4228 2087.5788,647.1572 Q2088.1725,646.8759 2088.7975,646.2978 L2088.7975,649.0165 Z " fill="#000000"/><text fill="#000000" font-family="sans-serif" font-size="12" font-style="italic" lengthAdjust="spacing" textLength="36.9003" x="2119.8417" y="638.498">&#171;infra&#187;</text><text fill="#000000" font-family="sans-serif" font-size="14" lengthAdjust="spacing" textLength="68.5577" x="2104.013" y="656.9799">DbSession</text><line style="stroke:#181818;stroke-width:0.5;" x1="2053" x2="2193.3995" y1="666.0819" y2="666.0819"/><line style="stroke:#181818;stroke-width:1;stroke-dasharray:1,2;" x1="2053" x2="2056" y1="683.6159" y2="683.6159"/><text fill="#000000" font-family="sans-serif" font-size="14" lengthAdjust="spacing" textLength="134.3995" x="2056" y="688.5479">SQLAlchemy session</text><line style="stroke:#181818;stroke-width:1;stroke-dasharray:1,2;" x1="2190.3995" x2="2193.3995" y1="683.6159" y2="683.6159"/></g><!--class DbModule--><g class="entity" data-entity="DbModule" data-source-line="10" data-uid="ent0006" id="entity_DbModule"><rect fill="#F1F1F1" height="80.4799" rx="2.5" ry="2.5" style="stroke:#181818;stroke-width:0.5;" width="158.9855" x="2051.5" y="341.6699"/><ellipse cx="2092.698" cy="364.3759" fill="#ADD1B2" rx="11" ry="11" style="stroke:#181818;stroke-width:1;"/><path d="M2095.6667,370.0165 Q2095.0886,370.3134 2094.448,370.454 Q2093.8074,370.6103 2093.1042,370.6103 Q2090.6042,370.6103 2089.2761,368.9697 Q2087.9636,367.3134 2087.9636,364.1884 Q2087.9636,361.0634 2089.2761,359.4072 Q2090.6042,357.7509 2093.1042,357.7509 Q2093.8074,357.7509 2094.448,357.9072 Q2095.1042,358.0634 2095.6667,358.3603 L2095.6667,361.079 Q2095.0417,360.5009 2094.448,360.2353 Q2093.8542,359.954 2093.2292,359.954 Q2091.8855,359.954 2091.198,361.0322 Q2090.5105,362.0947 2090.5105,364.1884 Q2090.5105,366.2822 2091.198,367.3603 Q2091.8855,368.4228 2093.2292,368.4228 Q2093.8542,368.4228 2094.448,368.1572 Q2095.0417,367.8759 2095.6667,367.2978 L2095.6667,370.0165 Z " fill="#000000"/><text fill="#000000" font-family="sans-serif" font-size="12" font-style="italic" lengthAdjust="spacing" textLength="51.6844" x="2121.0615" y="359.498">&#171;module&#187;</text><text fill="#000000" font-family="sans-serif" font-size="14" lengthAdjust="spacing" textLength="68.7677" x="2112.5198" y="377.9799">DbModule</text><line style="stroke:#181818;stroke-width:0.5;" x1="2052.5" x2="2209.4855" y1="387.0819" y2="387.0819"/><line style="stroke:#181818;stroke-width:0.5;" x1="2052.5" x2="2209.4855" y1="395.0819" y2="395.0819"/><ellipse cx="2062.5" cy="410.1159" fill="#84BE84" rx="3" ry="3" style="stroke:#038048;stroke-width:1;"/><text fill="#000000" font-family="sans-serif" font-size="14" lengthAdjust="spacing" textLength="132.9855" x="2071.5" y="414.0479">get_db() : DbSession</text></g><!--class User--><g class="entity" data-entity="User" data-source-line="16" data-uid="ent0008" id="entity_User"><rect fill="#F1F1F1" height="137.6837" rx="2.5" ry="2.5" style="stroke:#181818;stroke-width:0.5;" width="152.7555" x="938.5" y="592.6699"/><ellipse cx="992.1016" cy="615.3759" fill="#ADD1B2" rx="11" ry="11" style="stroke:#181818;stroke-width:1;"/><path d="M995.0704,621.0165 Q994.4923,621.3134 993.8516,621.454 Q993.211,621.6103 992.5079,621.6103 Q990.0079,621.6103 988.6798,619.9697 Q987.3673,618.3134 987.3673,615.1884 Q987.3673,612.0634 988.6798,610.4072 Q990.0079,608.7509 992.5079,608.7509 Q993.211,608.7509 993.8516,608.9072 Q994.5079,609.0634 995.0704,609.3603 L995.0704,612.079 Q994.4454,611.5009 993.8516,611.2353 Q993.2579,610.954 992.6329,610.954 Q991.2891,610.954 990.6016,612.0322 Q989.9141,613.0947 989.9141,615.1884 Q989.9141,617.2822 990.6016,618.3603 Q991.2891,619.4228 992.6329,619.4228 Q993.2579,619.4228 993.8516,619.1572 Q994.4454,618.8759 995.0704,618.2978 L995.0704,621.0165 Z " fill="#000000"/><text fill="#000000" font-family="sans-serif" font-size="12" font-style="italic" lengthAdjust="spacing" textLength="41.0523" x="1010.6016" y="610.498">&#171;entity&#187;</text><text fill="#000000" font-family="sans-serif" font-size="14" lengthAdjust="spacing" textLength="30.6179" x="1015.8188" y="628.9799">User</text><line style="stroke:#181818;stroke-width:0.5;" x1="939.5" x2="1090.2555" y1="638.0819" y2="638.0819"/><ellipse cx="949.5" cy="653.1159" fill="none" rx="3" ry="3" style="stroke:#038048;stroke-width:1;"/><text fill="#000000" font-family="sans-serif" font-size="14" lengthAdjust="spacing" textLength="36.9319" x="958.5" y="657.0479">id: int</text><ellipse cx="949.5" cy="672.1838" fill="none" rx="3" ry="3" style="stroke:#038048;stroke-width:1;"/><text fill="#000000" font-family="sans-serif" font-size="14" lengthAdjust="spacing" textLength="60.9978" x="958.5" y="676.1158">email: str</text><ellipse cx="949.5" cy="691.2517" fill="none" rx="3" ry="3" style="stroke:#038048;stroke-width:1;"/><text fill="#000000" font-family="sans-serif" font-size="14" lengthAdjust="spacing" textLength="126.7555" x="958.5" y="695.1837">password_hash: str</text><ellipse cx="949.5" cy="710.3196" fill="none" rx="3" ry="3" style="stroke:#038048;stroke-width:1;"/><text fill="#000000" font-family="sans-serif" font-size="14" lengthAdjust="spacing" textLength="91.3356" x="958.5" y="714.2516">is_active: bool</text><line style="stroke:#181818;stroke-width:0.5;" x1="939.5" x2="1090.2555" y1="722.3536" y2="722.3536"/></g><!--class Project--><g class="entity" data-entity="Project" data-source-line="23" data-uid="ent0010" id="entity_Project"><rect fill="#F1F1F1" height="139.2177" rx="2.5" ry="2.5" style="stroke:#181818;stroke-width:0.5;" width="112.3097" x="1127" y="592.1699"/><ellipse cx="1157.4376" cy="614.8759" fill="#ADD1B2" rx="11" ry="11" style="stroke:#181818;stroke-width:1;"/><path d="M1160.4064,620.5165 Q1159.8282,620.8134 1159.1876,620.954 Q1158.547,621.1103 1157.8439,621.1103 Q1155.3439,621.1103 1154.0157,619.4697 Q1152.7032,617.8134 1152.7032,614.6884 Q1152.7032,611.5634 1154.0157,609.9072 Q1155.3439,608.2509 1157.8439,608.2509 Q1158.547,608.2509 1159.1876,608.4072 Q1159.8439,608.5634 1160.4064,608.8603 L1160.4064,611.579 Q1159.7814,611.0009 1159.1876,610.7353 Q1158.5939,610.454 1157.9689,610.454 Q1156.6251,610.454 1155.9376,611.5322 Q1155.2501,612.5947 1155.2501,614.6884 Q1155.2501,616.7822 1155.9376,617.8603 Q1156.6251,618.9228 1157.9689,618.9228 Q1158.5939,618.9228 1159.1876,618.6572 Q1159.7814,618.3759 1160.4064,617.7978 L1160.4064,620.5165 Z " fill="#000000"/><text fill="#000000" font-family="sans-serif" font-size="12" font-style="italic" lengthAdjust="spacing" textLength="41.0523" x="1177.344" y="609.998">&#171;entity&#187;</text><text fill="#000000" font-family="sans-serif" font-size="14" lengthAdjust="spacing" textLength="46.0038" x="1174.8682" y="628.4799">Project</text><line style="stroke:#181818;stroke-width:0.5;" x1="1128" x2="1238.3097" y1="637.5819" y2="637.5819"/><ellipse cx="1138" cy="652.6159" fill="none" rx="3" ry="3" style="stroke:#038048;stroke-width:1;"/><text fill="#000000" font-family="sans-serif" font-size="14" lengthAdjust="spacing" textLength="36.9319" x="1147" y="656.5479">id: int</text><ellipse cx="1138" cy="671.6838" fill="none" rx="3" ry="3" style="stroke:#038048;stroke-width:1;"/><text fill="#000000" font-family="sans-serif" font-size="14" lengthAdjust="spacing" textLength="62.4258" x="1147" y="675.6158">name: str</text><ellipse cx="1138" cy="690.7517" fill="none" rx="3" ry="3" style="stroke:#038048;stroke-width:1;"/><text fill="#000000" font-family="sans-serif" font-size="14" lengthAdjust="spacing" textLength="86.3097" x="1147" y="694.6837">tenant_id: int</text><line style="stroke:#181818;stroke-width:1;stroke-dasharray:1,2;" x1="1128" x2="1165.5289" y1="712.3196" y2="712.3196"/><text fill="#000000" font-family="sans-serif" font-size="14" lengthAdjust="spacing" textLength="35.2519" x="1165.5289" y="717.2516">fields</text><line style="stroke:#181818;stroke-width:1;stroke-dasharray:1,2;" x1="1200.7808" x2="1238.3097" y1="712.3196" y2="712.3196"/></g><!--class Dataset--><g class="entity" data-entity="Dataset" data-source-line="30" data-uid="ent0011" id="entity_Dataset"><rect fill="#F1F1F1" height="139.2177" rx="2.5" ry="2.5" style="stroke:#181818;stroke-width:0.5;" width="115.2917" x="1274.5" y="592.1699"/><ellipse cx="1304.1942" cy="614.8759" fill="#ADD1B2" rx="11" ry="11" style="stroke:#181818;stroke-width:1;"/><path d="M1307.163,620.5165 Q1306.5849,620.8134 1305.9442,620.954 Q1305.3036,621.1103 1304.6005,621.1103 Q1302.1005,621.1103 1300.7724,619.4697 Q1299.4599,617.8134 1299.4599,614.6884 Q1299.4599,611.5634 1300.7724,609.9072 Q1302.1005,608.2509 1304.6005,608.2509 Q1305.3036,608.2509 1305.9442,608.4072 Q1306.6005,608.5634 1307.163,608.8603 L1307.163,611.579 Q1306.538,611.0009 1305.9442,610.7353 Q1305.3505,610.454 1304.7255,610.454 Q1303.3817,610.454 1302.6942,611.5322 Q1302.0067,612.5947 1302.0067,614.6884 Q1302.0067,616.7822 1302.6942,617.8603 Q1303.3817,618.9228 1304.7255,618.9228 Q1305.3505,618.9228 1305.9442,618.6572 Q1306.538,618.3759 1307.163,617.7978 L1307.163,620.5165 Z " fill="#000000"/><text fill="#000000" font-family="sans-serif" font-size="12" font-style="italic" lengthAdjust="spacing" textLength="41.0523" x="1326.2524" y="609.998">&#171;entity&#187;</text><text fill="#000000" font-family="sans-serif" font-size="14" lengthAdjust="spacing" textLength="50.6378" x="1321.4596" y="628.4799">Dataset</text><line style="stroke:#181818;stroke-width:0.5;" x1="1275.5" x2="1388.7917" y1="637.5819" y2="637.5819"/><ellipse cx="1285.5" cy="652.6159" fill="none" rx="3" ry="3" style="stroke:#038048;stroke-width:1;"/><text fill="#000000" font-family="sans-serif" font-size="14" lengthAdjust="spacing" textLength="36.9319" x="1294.5" y="656.5479">id: int</text><ellipse cx="1285.5" cy="671.6838" fill="none" rx="3" ry="3" style="stroke:#038048;stroke-width:1;"/><text fill="#000000" font-family="sans-serif" font-size="14" lengthAdjust="spacing" textLength="62.4258" x="1294.5" y="675.6158">name: str</text><ellipse cx="1285.5" cy="690.7517" fill="none" rx="3" ry="3" style="stroke:#038048;stroke-width:1;"/><text fill="#000000" font-family="sans-serif" font-size="14" lengthAdjust="spacing" textLength="89.2917" x="1294.5" y="694.6837">project_id: int</text><line style="stroke:#181818;stroke-width:1;stroke-dasharray:1,2;" x1="1275.5" x2="1314.5199" y1="712.3196" y2="712.3196"/><text fill="#000000" font-family="sans-serif" font-size="14" lengthAdjust="spacing" textLength="35.2519" x="1314.5199" y="717.2516">fields</text><line style="stroke:#181818;stroke-width:1;stroke-dasharray:1,2;" x1="1349.7718" x2="1388.7917" y1="712.3196" y2="712.3196"/></g><!--class BaseRepository--><g class="entity" data-entity="BaseRepository" data-source-line="40" data-uid="ent0013" id="entity_BaseRepository"><rect fill="#F1F1F1" height="80.4799" rx="2.5" ry="2.5" style="stroke:#181818;stroke-width:0.5;" width="126.6816" x="1119.5" y="130.6699"/><ellipse cx="1134.5" cy="153.3759" fill="#B4A7E5" rx="11" ry="11" style="stroke:#181818;stroke-width:1;"/><path d="M1130.4219,149.1415 L1130.4219,146.9853 L1137.8125,146.9853 L1137.8125,149.1415 L1135.3438,149.1415 L1135.3438,157.2197 L1137.8125,157.2197 L1137.8125,159.3759 L1130.4219,159.3759 L1130.4219,157.2197 L1132.8906,157.2197 L1132.8906,149.1415 L1130.4219,149.1415 Z " fill="#000000"/><text fill="#000000" font-family="sans-serif" font-size="12" font-style="italic" lengthAdjust="spacing" textLength="35.9162" x="1177.8827" y="148.498">&#171;repo&#187;</text><text fill="#000000" font-family="sans-serif" font-size="14" font-style="italic" lengthAdjust="spacing" textLength="94.6816" x="1148.5" y="166.9799">BaseRepository</text><line style="stroke:#181818;stroke-width:0.5;" x1="1120.5" x2="1245.1816" y1="176.0819" y2="176.0819"/><ellipse cx="1130.5" cy="191.1159" fill="none" rx="3" ry="3" style="stroke:#038048;stroke-width:1;"/><text fill="#000000" font-family="sans-serif" font-size="14" lengthAdjust="spacing" textLength="93.1696" x="1139.5" y="195.0479">db: DbSession</text><line style="stroke:#181818;stroke-width:0.5;" x1="1120.5" x2="1245.1816" y1="203.1498" y2="203.1498"/></g><!--class UserRepository--><g class="entity" data-entity="UserRepository" data-source-line="44" data-uid="ent0014" id="entity_UserRepository"><rect fill="#F1F1F1" height="118.6158" rx="2.5" ry="2.5" style="stroke:#181818;stroke-width:0.5;" width="312.3969" x="598" y="322.1699"/><ellipse cx="699.4157" cy="344.8759" fill="#ADD1B2" rx="11" ry="11" style="stroke:#181818;stroke-width:1;"/><path d="M702.3844,350.5165 Q701.8063,350.8134 701.1657,350.954 Q700.525,351.1103 699.8219,351.1103 Q697.3219,351.1103 695.9938,349.4697 Q694.6813,347.8134 694.6813,344.6884 Q694.6813,341.5634 695.9938,339.9072 Q697.3219,338.2509 699.8219,338.2509 Q700.525,338.2509 701.1657,338.4072 Q701.8219,338.5634 702.3844,338.8603 L702.3844,341.579 Q701.7594,341.0009 701.1657,340.7353 Q700.5719,340.454 699.9469,340.454 Q698.6032,340.454 697.9157,341.5322 Q697.2282,342.5947 697.2282,344.6884 Q697.2282,346.7822 697.9157,347.8603 Q698.6032,348.9228 699.9469,348.9228 Q700.5719,348.9228 701.1657,348.6572 Q701.7594,348.3759 702.3844,347.7978 L702.3844,350.5165 Z " fill="#000000"/><text fill="#000000" font-family="sans-serif" font-size="12" font-style="italic" lengthAdjust="spacing" textLength="35.9162" x="752.4903" y="339.998">&#171;repo&#187;</text><text fill="#000000" font-family="sans-serif" font-size="14" lengthAdjust="spacing" textLength="101.0656" x="719.9157" y="358.4799">UserRepository</text><line style="stroke:#181818;stroke-width:0.5;" x1="599" x2="909.3969" y1="367.5819" y2="367.5819"/><ellipse cx="609" cy="382.6159" fill="none" rx="3" ry="3" style="stroke:#038048;stroke-width:1;"/><text fill="#000000" font-family="sans-serif" font-size="14" lengthAdjust="spacing" textLength="93.1696" x="618" y="386.5479">db: DbSession</text><line style="stroke:#181818;stroke-width:0.5;" x1="599" x2="909.3969" y1="394.6498" y2="394.6498"/><ellipse cx="609" cy="409.6838" fill="#84BE84" rx="3" ry="3" style="stroke:#038048;stroke-width:1;"/><text fill="#000000" font-family="sans-serif" font-size="14" lengthAdjust="spacing" textLength="196.8532" x="618" y="413.6158">get_by_email(email: str) : User</text><ellipse cx="609" cy="428.7517" fill="#84BE84" rx="3" ry="3" style="stroke:#038048;stroke-width:1;"/><text fill="#000000" font-family="sans-serif" font-size="14" lengthAdjust="spacing" textLength="286.3969" x="618" y="432.6837">create(email: str, password_hash: str) : User</text></g><!--class ProjectRepository--><g class="entity" data-entity="ProjectRepository" data-source-line="50" data-uid="ent0015" id="entity_ProjectRepository"><rect fill="#F1F1F1" height="118.6158" rx="2.5" ry="2.5" style="stroke:#181818;stroke-width:0.5;" width="476.0703" x="945" y="322.1699"/><ellipse cx="1120.5594" cy="344.8759" fill="#ADD1B2" rx="11" ry="11" style="stroke:#181818;stroke-width:1;"/><path d="M1123.5281,350.5165 Q1122.95,350.8134 1122.3094,350.954 Q1121.6687,351.1103 1120.9656,351.1103 Q1118.4656,351.1103 1117.1375,349.4697 Q1115.825,347.8134 1115.825,344.6884 Q1115.825,341.5634 1117.1375,339.9072 Q1118.4656,338.2509 1120.9656,338.2509 Q1121.6687,338.2509 1122.3094,338.4072 Q1122.9656,338.5634 1123.5281,338.8603 L1123.5281,341.579 Q1122.9031,341.0009 1122.3094,340.7353 Q1121.7156,340.454 1121.0906,340.454 Q1119.7469,340.454 1119.0594,341.5322 Q1118.3719,342.5947 1118.3719,344.6884 Q1118.3719,346.7822 1119.0594,347.8603 Q1119.7469,348.9228 1121.0906,348.9228 Q1121.7156,348.9228 1122.3094,348.6572 Q1122.9031,348.3759 1123.5281,347.7978 L1123.5281,350.5165 Z " fill="#000000"/><text fill="#000000" font-family="sans-serif" font-size="12" font-style="italic" lengthAdjust="spacing" textLength="35.9162" x="1181.327" y="339.998">&#171;repo&#187;</text><text fill="#000000" font-family="sans-serif" font-size="14" lengthAdjust="spacing" textLength="116.4516" x="1141.0594" y="358.4799">ProjectRepository</text><line style="stroke:#181818;stroke-width:0.5;" x1="946" x2="1420.0703" y1="367.5819" y2="367.5819"/><ellipse cx="956" cy="382.6159" fill="none" rx="3" ry="3" style="stroke:#038048;stroke-width:1;"/><text fill="#000000" font-family="sans-serif" font-size="14" lengthAdjust="spacing" textLength="93.1696" x="965" y="386.5479">db: DbSession</text><line style="stroke:#181818;stroke-width:0.5;" x1="946" x2="1420.0703" y1="394.6498" y2="394.6498"/><ellipse cx="956" cy="409.6838" fill="#84BE84" rx="3" ry="3" style="stroke:#038048;stroke-width:1;"/><text fill="#000000" font-family="sans-serif" font-size="14" lengthAdjust="spacing" textLength="450.0703" x="965" y="413.6158">list_for_user(user_id: int, tenant_id: Optional[int]) : Sequence[Project]</text><ellipse cx="956" cy="428.7517" fill="#84BE84" rx="3" ry="3" style="stroke:#038048;stroke-width:1;"/><text fill="#000000" font-family="sans-serif" font-size="14" lengthAdjust="spacing" textLength="376.4026" x="965" y="432.6837">get_by_id(project_id: int, tenant_id: Optional[int]) : Project</text></g><!--class DatasetRepository--><g class="entity" data-entity="DatasetRepository" data-source-line="56" data-uid="ent0016" id="entity_DatasetRepository"><rect fill="#F1F1F1" height="118.6158" rx="2.5" ry="2.5" style="stroke:#181818;stroke-width:0.5;" width="514.9201" x="1456.5" y="322.1699"/><ellipse cx="1649.1673" cy="344.8759" fill="#ADD1B2" rx="11" ry="11" style="stroke:#181818;stroke-width:1;"/><path d="M1652.136,350.5165 Q1651.5579,350.8134 1650.9173,350.954 Q1650.2767,351.1103 1649.5735,351.1103 Q1647.0735,351.1103 1645.7454,349.4697 Q1644.4329,347.8134 1644.4329,344.6884 Q1644.4329,341.5634 1645.7454,339.9072 Q1647.0735,338.2509 1649.5735,338.2509 Q1650.2767,338.2509 1650.9173,338.4072 Q1651.5735,338.5634 1652.136,338.8603 L1652.136,341.579 Q1651.511,341.0009 1650.9173,340.7353 Q1650.3235,340.454 1649.6985,340.454 Q1648.3548,340.454 1647.6673,341.5322 Q1646.9798,342.5947 1646.9798,344.6884 Q1646.9798,346.7822 1647.6673,347.8603 Q1648.3548,348.9228 1649.6985,348.9228 Q1650.3235,348.9228 1650.9173,348.6572 Q1651.511,348.3759 1652.136,347.7978 L1652.136,350.5165 Z " fill="#000000"/><text fill="#000000" font-family="sans-serif" font-size="12" font-style="italic" lengthAdjust="spacing" textLength="35.9162" x="1712.2519" y="339.998">&#171;repo&#187;</text><text fill="#000000" font-family="sans-serif" font-size="14" lengthAdjust="spacing" textLength="121.0856" x="1669.6673" y="358.4799">DatasetRepository</text><line style="stroke:#181818;stroke-width:0.5;" x1="1457.5" x2="1970.4201" y1="367.5819" y2="367.5819"/><ellipse cx="1467.5" cy="382.6159" fill="none" rx="3" ry="3" style="stroke:#038048;stroke-width:1;"/><text fill="#000000" font-family="sans-serif" font-size="14" lengthAdjust="spacing" textLength="93.1696" x="1476.5" y="386.5479">db: DbSession</text><line style="stroke:#181818;stroke-width:0.5;" x1="1457.5" x2="1970.4201" y1="394.6498" y2="394.6498"/><ellipse cx="1467.5" cy="409.6838" fill="#84BE84" rx="3" ry="3" style="stroke:#038048;stroke-width:1;"/><text fill="#000000" font-family="sans-serif" font-size="14" lengthAdjust="spacing" textLength="488.9201" x="1476.5" y="413.6158">list_for_project(project_id: int, tenant_id: Optional[int]) : Sequence[Dataset]</text><ellipse cx="1467.5" cy="428.7517" fill="#84BE84" rx="3" ry="3" style="stroke:#038048;stroke-width:1;"/><text fill="#000000" font-family="sans-serif" font-size="14" lengthAdjust="spacing" textLength="383.9205" x="1476.5" y="432.6837">get_by_id(dataset_id: int, tenant_id: Optional[int]) : Dataset</text></g><!--class AuthService--><g class="entity" data-entity="AuthService" data-source-line="64" data-uid="ent0018" id="entity_AuthService"><rect fill="#F1F1F1" height="61.412" rx="2.5" ry="2.5" style="stroke:#181818;stroke-width:0.5;" width="110.0077" x="46" y="140.1699"/><ellipse cx="61" cy="162.8759" fill="#ADD1B2" rx="11" ry="11" style="stroke:#181818;stroke-width:1;"/><path d="M63.9688,168.5165 Q63.3906,168.8134 62.75,168.954 Q62.1094,169.1103 61.4063,169.1103 Q58.9063,169.1103 57.5781,167.4697 Q56.2656,165.8134 56.2656,162.6884 Q56.2656,159.5634 57.5781,157.9072 Q58.9063,156.2509 61.4063,156.2509 Q62.1094,156.2509 62.75,156.4072 Q63.4063,156.5634 63.9688,156.8603 L63.9688,159.579 Q63.3438,159.0009 62.75,158.7353 Q62.1563,158.454 61.5313,158.454 Q60.1875,158.454 59.5,159.5322 Q58.8125,160.5947 58.8125,162.6884 Q58.8125,164.7822 59.5,165.8603 Q60.1875,166.9228 61.5313,166.9228 Q62.1563,166.9228 62.75,166.6572 Q63.3438,166.3759 63.9688,165.7978 L63.9688,168.5165 Z " fill="#000000"/><text fill="#000000" font-family="sans-serif" font-size="12" font-style="italic" lengthAdjust="spacing" textLength="47.5203" x="90.2437" y="157.998">&#171;service&#187;</text><text fill="#000000" font-family="sans-serif" font-size="14" lengthAdjust="spacing" textLength="78.0077" x="75" y="176.4799">AuthService</text><line style="stroke:#181818;stroke-width:0.5;" x1="47" x2="155.0077" y1="185.5819" y2="185.5819"/><line style="stroke:#181818;stroke-width:0.5;" x1="47" x2="155.0077" y1="193.5819" y2="193.5819"/></g><!--class UserProjectService--><g class="entity" data-entity="UserProjectService" data-source-line="65" data-uid="ent0019" id="entity_UserProjectService"><rect fill="#F1F1F1" height="61.412" rx="2.5" ry="2.5" style="stroke:#181818;stroke-width:0.5;" width="155.3255" x="191.5" y="140.1699"/><ellipse cx="206.5" cy="162.8759" fill="#ADD1B2" rx="11" ry="11" style="stroke:#181818;stroke-width:1;"/><path d="M209.4688,168.5165 Q208.8906,168.8134 208.25,168.954 Q207.6094,169.1103 206.9063,169.1103 Q204.4063,169.1103 203.0781,167.4697 Q201.7656,165.8134 201.7656,162.6884 Q201.7656,159.5634 203.0781,157.9072 Q204.4063,156.2509 206.9063,156.2509 Q207.6094,156.2509 208.25,156.4072 Q208.9063,156.5634 209.4688,156.8603 L209.4688,159.579 Q208.8438,159.0009 208.25,158.7353 Q207.6563,158.454 207.0313,158.454 Q205.6875,158.454 205,159.5322 Q204.3125,160.5947 204.3125,162.6884 Q204.3125,164.7822 205,165.8603 Q205.6875,166.9228 207.0313,166.9228 Q207.6563,166.9228 208.25,166.6572 Q208.8438,166.3759 209.4688,165.7978 L209.4688,168.5165 Z " fill="#000000"/><text fill="#000000" font-family="sans-serif" font-size="12" font-style="italic" lengthAdjust="spacing" textLength="47.5203" x="258.4026" y="157.998">&#171;service&#187;</text><text fill="#000000" font-family="sans-serif" font-size="14" lengthAdjust="spacing" textLength="123.3255" x="220.5" y="176.4799">UserProjectService</text><line style="stroke:#181818;stroke-width:0.5;" x1="192.5" x2="345.8255" y1="185.5819" y2="185.5819"/><line style="stroke:#181818;stroke-width:0.5;" x1="192.5" x2="345.8255" y1="193.5819" y2="193.5819"/></g><!--class UserDatasetService--><g class="entity" data-entity="UserDatasetService" data-source-line="66" data-uid="ent0020" id="entity_UserDatasetService"><rect fill="#F1F1F1" height="61.412" rx="2.5" ry="2.5" style="stroke:#181818;stroke-width:0.5;" width="159.9595" x="382" y="140.1699"/><ellipse cx="397" cy="162.8759" fill="#ADD1B2" rx="11" ry="11" style="stroke:#181818;stroke-width:1;"/><path d="M399.9688,168.5165 Q399.3906,168.8134 398.75,168.954 Q398.1094,169.1103 397.4063,169.1103 Q394.9063,169.1103 393.5781,167.4697 Q392.2656,165.8134 392.2656,162.6884 Q392.2656,159.5634 393.5781,157.9072 Q394.9063,156.2509 397.4063,156.2509 Q398.1094,156.2509 398.75,156.4072 Q399.4063,156.5634 399.9688,156.8603 L399.9688,159.579 Q399.3438,159.0009 398.75,158.7353 Q398.1563,158.454 397.5313,158.454 Q396.1875,158.454 395.5,159.5322 Q394.8125,160.5947 394.8125,162.6884 Q394.8125,164.7822 395.5,165.8603 Q396.1875,166.9228 397.5313,166.9228 Q398.1563,166.9228 398.75,166.6572 Q399.3438,166.3759 399.9688,165.7978 L399.9688,168.5165 Z " fill="#000000"/><text fill="#000000" font-family="sans-serif" font-size="12" font-style="italic" lengthAdjust="spacing" textLength="47.5203" x="451.2196" y="157.998">&#171;service&#187;</text><text fill="#000000" font-family="sans-serif" font-size="14" lengthAdjust="spacing" textLength="127.9595" x="411" y="176.4799">UserDatasetService</text><line style="stroke:#181818;stroke-width:0.5;" x1="383" x2="540.9595" y1="185.5819" y2="185.5819"/><line style="stroke:#181818;stroke-width:0.5;" x1="383" x2="540.9595" y1="193.5819" y2="193.5819"/></g><!--reverse link BaseRepository to UserRepository--><g class="link" data-entity-1="BaseRepository" data-entity-2="UserRepository" data-source-line="70" data-uid="lnk21" id="link_BaseRepository_UserRepository"><path codeLine="70" d="M1101.805,188.6947 C1048.745,200.9947 989.67,218.2599 928,249.6699 C889.93,269.0599 851.56,296.8599 820.58,321.8599" fill="none" id="BaseRepository-backto-UserRepository" style="stroke:#181818;stroke-width:1;"/><polygon fill="none" points="1119.34,184.6299,1100.45,182.8497,1103.1599,194.5398,1119.34,184.6299" style="stroke:#181818;stroke-width:1;"/></g><!--reverse link BaseRepository to ProjectRepository--><g class="link" data-entity-1="BaseRepository" data-entity-2="ProjectRepository" data-source-line="71" data-uid="lnk22" id="link_BaseRepository_ProjectRepository"><path codeLine="71" d="M1183,228.9799 C1183,260.1999 1183,286.3399 1183,321.7699" fill="none" id="BaseRepository-backto-ProjectRepository" style="stroke:#181818;stroke-width:1;"/><polygon fill="none" points="1183,210.9799,1177,228.9799,1189,228.9799,1183,210.9799" style="stroke:#181818;stroke-width:1;"/></g><!--reverse link BaseRepository to DatasetRepository--><g class="link" data-entity-1="BaseRepository" data-entity-2="DatasetRepository" data-source-line="72" data-uid="lnk23" id="link_BaseRepository_DatasetRepository"><path codeLine="72" d="M1264.1144,192.9908 C1316.4544,207.2808 1374.79,224.7499 1439,249.6699 C1493.35,270.7599 1551.9,297.9799 1600.94,322.1399" fill="none" id="BaseRepository-backto-DatasetRepository" style="stroke:#181818;stroke-width:1;"/><polygon fill="none" points="1246.75,188.2499,1262.5342,198.7789,1265.6947,187.2026,1246.75,188.2499" style="stroke:#181818;stroke-width:1;"/></g><!--link UserRepository to User--><g class="link" data-entity-1="UserRepository" data-entity-2="User" data-source-line="74" data-uid="lnk24" id="link_UserRepository_User"><path codeLine="74" d="M809.03,441.2899 C850.54,485.4899 903.4425,541.8563 946.9725,588.2063" fill="none" id="UserRepository-to-User" style="stroke:#181818;stroke-width:1;"/><polygon fill="#181818" points="951.08,592.5799,947.8345,583.2812,947.6571,588.9352,942.003,588.7578,951.08,592.5799" style="stroke:#181818;stroke-width:1;"/></g><!--link ProjectRepository to Project--><g class="link" data-entity-1="ProjectRepository" data-entity-2="Project" data-source-line="75" data-uid="lnk25" id="link_ProjectRepository_Project"><path codeLine="75" d="M1183,441.2899 C1183,485.3299 1183,539.7899 1183,586.0799" fill="none" id="ProjectRepository-to-Project" style="stroke:#181818;stroke-width:1;"/><polygon fill="#181818" points="1183,592.0799,1187,583.0799,1183,587.0799,1179,583.0799,1183,592.0799" style="stroke:#181818;stroke-width:1;"/></g><!--link DatasetRepository to Dataset--><g class="link" data-entity-1="DatasetRepository" data-entity-2="Dataset" data-source-line="76" data-uid="lnk26" id="link_DatasetRepository_Dataset"><path codeLine="76" d="M1633.45,441.2899 C1560.45,494.4099 1459.5013,567.8794 1394.6013,615.1094" fill="none" id="DatasetRepository-to-Dataset" style="stroke:#181818;stroke-width:1;"/><polygon fill="#181818" points="1389.75,618.6399,1399.3807,616.5784,1393.7928,615.6978,1394.6734,610.1099,1389.75,618.6399" style="stroke:#181818;stroke-width:1;"/></g><!--link UserRepository to DbSession--><g class="link" data-entity-1="UserRepository" data-entity-2="DbSession" data-source-line="78" data-uid="lnk27" id="link_UserRepository_DbSession"><path codeLine="78" d="M861.66,441.2099 C883.11,450.7099 905.86,459.3299 928,465.1699 C1133.97,519.4999 1195.27,469.0399 1406,500.1699 C1645.45,535.5399 1918.0559,605.0916 2046.1159,639.5316" fill="none" id="UserRepository-to-DbSession" style="stroke:#181818;stroke-width:1;"/><polygon fill="#181818" points="2051.91,641.0899,2044.2577,634.8898,2047.0816,639.7914,2042.18,642.6153,2051.91,641.0899" style="stroke:#181818;stroke-width:1;"/></g><!--link ProjectRepository to DbSession--><g class="link" data-entity-1="ProjectRepository" data-entity-2="DbSession" data-source-line="79" data-uid="lnk28" id="link_ProjectRepository_DbSession"><path codeLine="79" d="M1362.14,441.2399 C1387.89,449.4099 1414.09,457.5999 1439,465.1699 C1661.75,532.8699 1921.5254,605.2765 2046.0854,639.5865" fill="none" id="ProjectRepository-to-DbSession" style="stroke:#181818;stroke-width:1;"/><polygon fill="#181818" points="2051.87,641.1799,2044.2554,634.9335,2047.0495,639.8521,2042.1309,642.6462,2051.87,641.1799" style="stroke:#181818;stroke-width:1;"/></g><!--link DatasetRepository to DbSession--><g class="link" data-entity-1="DatasetRepository" data-entity-2="DbSession" data-source-line="80" data-uid="lnk29" id="link_DatasetRepository_DbSession"><path codeLine="80" d="M1800.24,441.2899 C1879.45,495.1299 1989.778,570.1167 2058.988,617.1667" fill="none" id="DatasetRepository-to-DbSession" style="stroke:#181818;stroke-width:1;"/><polygon fill="#181818" points="2063.95,620.5399,2058.7558,612.1721,2059.815,617.7289,2054.2582,618.788,2063.95,620.5399" style="stroke:#181818;stroke-width:1;"/></g><!--link DbModule to DbSession--><g class="link" data-entity-1="DbModule" data-entity-2="DbSession" data-source-line="82" data-uid="lnk30" id="link_DbModule_DbSession"><path codeLine="82" d="M2129.87,421.9099 C2128.36,474.4499 2125.8627,561.1624 2124.3327,614.2824" fill="none" id="DbModule-to-DbSession" style="stroke:#181818;stroke-width:1;"/><polygon fill="#181818" points="2124.16,620.2799,2128.4175,611.3988,2124.304,615.282,2120.4208,611.1685,2124.16,620.2799" style="stroke:#181818;stroke-width:1;"/><text fill="#000000" font-family="sans-serif" font-size="13" lengthAdjust="spacing" textLength="52.741" x="2129" y="488.0669">provides</text></g><!--link AuthService to UserRepository--><g class="link" data-entity-1="AuthService" data-entity-2="UserRepository" data-source-line="85" data-uid="lnk31" id="link_AuthService_UserRepository"><path codeLine="85" d="M136.07,201.4299 C147.59,210.0599 160.82,218.8499 174,225.1699 C310.18,290.4799 472.0914,330.5189 592.1114,353.9789" fill="none" id="AuthService-to-UserRepository" style="stroke:#181818;stroke-width:1;"/><polygon fill="#181818" points="598,355.1299,589.9345,349.4777,593.0929,354.1707,588.3998,357.3291,598,355.1299" style="stroke:#181818;stroke-width:1;"/></g><!--link UserProjectService to ProjectRepository--><g class="link" data-entity-1="UserProjectService" data-entity-2="ProjectRepository" data-source-line="86" data-uid="lnk32" id="link_UserProjectService_ProjectRepository"><path codeLine="86" d="M312.61,201.2599 C328.44,210.5399 346.9,219.7699 365,225.1699 C463.2,254.4799 492.63,236.7699 595,241.6699 C631.97,243.4399 892.13,240.5399 928,249.6699 C986.24,264.4999 1041.0887,291.4544 1088.2687,319.0044" fill="none" id="UserProjectService-to-ProjectRepository" style="stroke:#181818;stroke-width:1;"/><polygon fill="#181818" points="1093.45,322.0299,1087.6951,314.0374,1089.1322,319.5086,1083.661,320.9458,1093.45,322.0299" style="stroke:#181818;stroke-width:1;"/></g><!--link UserDatasetService to DatasetRepository--><g class="link" data-entity-1="UserDatasetService" data-entity-2="DatasetRepository" data-source-line="87" data-uid="lnk33" id="link_UserDatasetService_DatasetRepository"><path codeLine="87" d="M516.3,201.2699 C536.35,210.7399 559.65,220.0799 582,225.1699 C767.76,267.4899 1253.78,205.0199 1439,249.6699 C1501.08,264.6399 1560.4986,291.7827 1611.5286,319.2927" fill="none" id="UserDatasetService-to-DatasetRepository" style="stroke:#181818;stroke-width:1;"/><polygon fill="#181818" points="1616.81,322.1399,1610.786,314.3482,1612.4088,319.7672,1606.9897,321.3901,1616.81,322.1399" style="stroke:#181818;stroke-width:1;"/></g><!--SRC=[dLJTRjCm6BtFKtpQBYXY2PEugwfA0swGGFnKN4rJvDXV6hF43hPJLC5kUG0UaIV1JfpKJSAsJfNQrD_v_iuviU6cH7Xr6TEIQ1r_mLfgRgJYgE4bQ4CCf_P7DTGq2YDzoqLD5AdWDQ6tMoKRmTx8KYeupo_T9ufg6o1RX3DIrmaNkI93UiAoC_WP0RJDu6ssGQsv5B1QjS3rkeq29Cdcy_khaXPOxK5te2IneRieoFuWMME7Nwsgzc78VW5RD2dB5izXUMZIPj-DvhEPMEf4gYeSxAj6PSkYCDpiWxASBO4Bu_zXHNYvTEJuWzhc_f2AfGNHHHZWEYNKy1qk8PEoFDxZavBVa9g7-mbIOLZLe232f24eINAE9TCJheWX6f_Ge-w6kw_9c58LMCYHQa4s4rLEA5hNQ1myjhVpE7Gm3Sl6YXs9SafgxuDidxPABGvwEL-uSXv55HA3GVnYHieWPohUgNELN9iqbofjRCM5- -ePlWXb_LWRcqFAQnkuSGDiy7k3WkArxtjpl2TdYv5WzvVpLMQzykIL_0IdJJ8ivhjF5sDTu77bV9LPVrgoTvnstkntlcfCiUdExROUiLuVUS-JzH3Cjvw3sKcUmJjHeEA6s6Nj1KjbrTBiU1o_6x_YU6JwMSZ4WhEeYQfHD7gXudZT6NpgQHVglJArXulsXCyLFJXbll8X_f_QGpmQxloZSokuDTkECzIEOK-zXh-__q1u6qMXpFsw0ICpAWURZu0ZdGCIGex_0G00]--></g></svg>