<svg xmlns="http://www.w3.org/2000/svg" xmlns:xlink="http://www.w3.org/1999/xlink" contentStyleType="text/css" data-diagram-type="CLASS" height="814px" preserveAspectRatio="none" style="width:943px;height:814px;background:#F0F0F0;" version="1.1" viewBox="0 0 943 814" width="943px" zoomAndPan="magnify"><title>30-class-UserDatasetService / static structure</title><defs/><g><rect fill="#F0F0F0" height="814" style="stroke:none;stroke-width:1;" width="943" x="0" y="0"/><g class="title" data-source-line="1"><text fill="#000000" font-family="sans-serif" font-size="14" font-weight="bold" lengthAdjust="spacing" textLength="317.1688" x="306.3577" y="24.9659">30-class-UserDatasetService / static structure</text></g><!--cluster app--><g class="cluster" data-entity="app" data-source-line="5" data-uid="ent0004" id="cluster_app"><path d="M8.5,46.6699 L35.6799,46.6699 A3.75,3.75 0 0 1 38.1799,49.1699 L45.1799,71.7378 L609.5,71.7378 A2.5,2.5 0 0 1 612,74.2378 L612,805.1699 A2.5,2.5 0 0 1 609.5,807.6699 L8.5,807.6699 A2.5,2.5 0 0 1 6,805.1699 L6,49.1699 A2.5,2.5 0 0 1 8.5,46.6699" fill="none" style="stroke:#000000;stroke-width:1.5;"/><line style="stroke:#000000;stroke-width:1.5;" x1="6" x2="45.1799" y1="71.7378" y2="71.7378"/><text fill="#000000" font-family="sans-serif" font-size="14" font-weight="bold" lengthAdjust="spacing" textLength="26.1799" x="10" y="63.6358">app</text></g><!--cluster services--><g class="cluster" data-entity="services" data-source-line="4" data-uid="ent0002" id="cluster_services"><path d="M32.5,92.6699 L89.7518,92.6699 A3.75,3.75 0 0 1 92.2518,95.1699 L99.2518,117.7378 L585.5,117.7378 A2.5,2.5 0 0 1 588,120.2378 L588,263.1699 A2.5,2.5 0 0 1 585.5,265.6699 L32.5,265.6699 A2.5,2.5 0 0 1 30,263.1699 L30,95.1699 A2.5,2.5 0 0 1 32.5,92.6699" fill="none" style="stroke:#000000;stroke-width:1.5;"/><line style="stroke:#000000;stroke-width:1.5;" x1="30" x2="99.2518" y1="117.7378" y2="117.7378"/><text fill="#000000" font-family="sans-serif" font-size="14" font-weight="bold" lengthAdjust="spacing" textLength="56.2518" x="34" y="109.6358">services</text></g><!--cluster repositories--><g class="cluster" data-entity="repositories" data-source-line="12" data-uid="ent0005" id="cluster_repositories"><path d="M103.5,316.6699 L188.4857,316.6699 A3.75,3.75 0 0 1 190.9857,319.1699 L197.9857,341.7378 L490.5,341.7378 A2.5,2.5 0 0 1 493,344.2378 L493,468.1699 A2.5,2.5 0 0 1 490.5,470.6699 L103.5,470.6699 A2.5,2.5 0 0 1 101,468.1699 L101,319.1699 A2.5,2.5 0 0 1 103.5,316.6699" fill="none" style="stroke:#000000;stroke-width:1.5;"/><line style="stroke:#000000;stroke-width:1.5;" x1="101" x2="197.9857" y1="341.7378" y2="341.7378"/><text fill="#000000" font-family="sans-serif" font-size="14" font-weight="bold" lengthAdjust="spacing" textLength="83.9857" x="105" y="333.6358">repositories</text></g><!--cluster models--><g class="cluster" data-entity="models" data-source-line="20" data-uid="ent0009" id="cluster_models"><path d="M378.5,521.6699 L430.2778,521.6699 A3.75,3.75 0 0 1 432.7778,524.1699 L439.7778,546.7378 L585.5,546.7378 A2.5,2.5 0 0 1 588,549.2378 L588,781.1699 A2.5,2.5 0 0 1 585.5,783.6699 L378.5,783.6699 A2.5,2.5 0 0 1 376,781.1699 L376,524.1699 A2.5,2.5 0 0 1 378.5,521.6699" fill="none" style="stroke:#000000;stroke-width:1.5;"/><line style="stroke:#000000;stroke-width:1.5;" x1="376" x2="439.7778" y1="546.7378" y2="546.7378"/><text fill="#000000" font-family="sans-serif" font-size="14" font-weight="bold" lengthAdjust="spacing" textLength="50.7778" x="380" y="538.6358">models</text></g><!--cluster orm--><g class="cluster" data-entity="orm" data-source-line="19" data-uid="ent0007" id="cluster_orm"><path d="M402.5,567.6699 L432.2699,567.6699 A3.75,3.75 0 0 1 434.7699,570.1699 L441.7699,592.7378 L561.5,592.7378 A2.5,2.5 0 0 1 564,595.2378 L564,757.1699 A2.5,2.5 0 0 1 561.5,759.6699 L402.5,759.6699 A2.5,2.5 0 0 1 400,757.1699 L400,570.1699 A2.5,2.5 0 0 1 402.5,567.6699" fill="none" style="stroke:#000000;stroke-width:1.5;"/><line style="stroke:#000000;stroke-width:1.5;" x1="400" x2="441.7699" y1="592.7378" y2="592.7378"/><text fill="#000000" font-family="sans-serif" font-size="14" font-weight="bold" lengthAdjust="spacing" textLength="28.7699" x="404" y="584.6358">orm</text></g><!--class UserDatasetService--><g class="entity" data-entity="UserDatasetService" data-source-line="5" data-uid="ent0003" id="entity_UserDatasetService"><rect fill="#F1F1F1" height="118.6158" rx="2.5" ry="2.5" style="stroke:#181818;stroke-width:0.5;" width="526.0641" x="46" y="130.6699"/><ellipse cx="240.8023" cy="153.3759" fill="#ADD1B2" rx="11" ry="11" style="stroke:#181818;stroke-width:1;"/><path d="M243.771,159.0165 Q243.1929,159.3134 242.5523,159.454 Q241.9116,159.6103 241.2085,159.6103 Q238.7085,159.6103 237.3804,157.9697 Q236.0679,156.3134 236.0679,153.1884 Q236.0679,150.0634 237.3804,148.4072 Q238.7085,146.7509 241.2085,146.7509 Q241.9116,146.7509 242.5523,146.9072 Q243.2085,147.0634 243.771,147.3603 L243.771,150.079 Q243.146,149.5009 242.5523,149.2353 Q241.9585,148.954 241.3335,148.954 Q239.9898,148.954 239.3023,150.0322 Q238.6148,151.0947 238.6148,153.1884 Q238.6148,155.2822 239.3023,156.3603 Q239.9898,157.4228 241.3335,157.4228 Q241.9585,157.4228 242.5523,157.1572 Q243.146,156.8759 243.771,156.2978 L243.771,159.0165 Z " fill="#000000"/><text fill="#000000" font-family="sans-serif" font-size="12" font-style="italic" lengthAdjust="spacing" textLength="47.5203" x="301.5219" y="148.498">&#171;service&#187;</text><text fill="#000000" font-family="sans-serif" font-size="14" lengthAdjust="spacing" textLength="127.9595" x="261.3023" y="166.9799">UserDatasetService</text><line style="stroke:#181818;stroke-width:0.5;" x1="47" x2="571.0641" y1="176.0819" y2="176.0819"/><rect fill="none" height="6" style="stroke:#C82930;stroke-width:1;" width="6" x="54" y="188.1159"/><text fill="#000000" font-family="sans-serif" font-size="14" lengthAdjust="spacing" textLength="214.4792" x="66" y="195.0479">dataset_repo: DatasetRepository</text><line style="stroke:#181818;stroke-width:0.5;" x1="47" x2="571.0641" y1="203.1498" y2="203.1498"/><ellipse cx="57" cy="218.1838" fill="#84BE84" rx="3" ry="3" style="stroke:#038048;stroke-width:1;"/><text fill="#000000" font-family="sans-serif" font-size="14" lengthAdjust="spacing" textLength="268.673" x="66" y="222.1158">__init__(dataset_repo: DatasetRepository)</text><ellipse cx="57" cy="237.2517" fill="#84BE84" rx="3" ry="3" style="stroke:#038048;stroke-width:1;"/><text fill="#000000" font-family="sans-serif" font-size="14" lengthAdjust="spacing" textLength="500.0641" x="66" y="241.1837">list_datasets_for_user(project_id: int, user: Any | None) : Sequence&lt;Dataset&gt;</text></g><!--class DatasetRepository--><g class="entity" data-entity="DatasetRepository" data-source-line="13" data-uid="ent0006" id="entity_DatasetRepository"><rect fill="#F1F1F1" height="99.5479" rx="2.5" ry="2.5" style="stroke:#181818;stroke-width:0.5;" width="358.6947" x="117.5" y="354.6699"/><ellipse cx="232.0546" cy="377.3759" fill="#ADD1B2" rx="11" ry="11" style="stroke:#181818;stroke-width:1;"/><path d="M235.0233,383.0165 Q234.4452,383.3134 233.8046,383.454 Q233.1639,383.6103 232.4608,383.6103 Q229.9608,383.6103 228.6327,381.9697 Q227.3202,380.3134 227.3202,377.1884 Q227.3202,374.0634 228.6327,372.4072 Q229.9608,370.7509 232.4608,370.7509 Q233.1639,370.7509 233.8046,370.9072 Q234.4608,371.0634 235.0233,371.3603 L235.0233,374.079 Q234.3983,373.5009 233.8046,373.2353 Q233.2108,372.954 232.5858,372.954 Q231.2421,372.954 230.5546,374.0322 Q229.8671,375.0947 229.8671,377.1884 Q229.8671,379.2822 230.5546,380.3603 Q231.2421,381.4228 232.5858,381.4228 Q233.2108,381.4228 233.8046,381.1572 Q234.3983,380.8759 235.0233,380.2978 L235.0233,383.0165 Z " fill="#000000"/><text fill="#000000" font-family="sans-serif" font-size="12" font-style="italic" lengthAdjust="spacing" textLength="65.3164" x="280.4391" y="372.498">&#171;repository&#187;</text><text fill="#000000" font-family="sans-serif" font-size="14" lengthAdjust="spacing" textLength="121.0856" x="252.5546" y="390.9799">DatasetRepository</text><line style="stroke:#181818;stroke-width:0.5;" x1="118.5" x2="475.1947" y1="400.0819" y2="400.0819"/><line style="stroke:#181818;stroke-width:0.5;" x1="118.5" x2="475.1947" y1="408.0819" y2="408.0819"/><ellipse cx="128.5" cy="423.1159" fill="#84BE84" rx="3" ry="3" style="stroke:#038048;stroke-width:1;"/><text fill="#000000" font-family="sans-serif" font-size="14" lengthAdjust="spacing" textLength="128.5335" x="137.5" y="427.0479">__init__(db: Session)</text><ellipse cx="128.5" cy="442.1838" fill="#84BE84" rx="3" ry="3" style="stroke:#038048;stroke-width:1;"/><text fill="#000000" font-family="sans-serif" font-size="14" lengthAdjust="spacing" textLength="332.6947" x="137.5" y="446.1158">list_by_project(project_id: int) : Sequence&lt;Dataset&gt;</text></g><!--class Dataset--><g class="entity" data-entity="Dataset" data-source-line="20" data-uid="ent0008" id="entity_Dataset"><rect fill="#F1F1F1" height="137.6837" rx="2.5" ry="2.5" style="stroke:#181818;stroke-width:0.5;" width="130.7336" x="416.5" y="605.6699"/><ellipse cx="453.1431" cy="628.3759" fill="#ADD1B2" rx="11" ry="11" style="stroke:#181818;stroke-width:1;"/><path d="M456.1119,634.0165 Q455.5337,634.3134 454.8931,634.454 Q454.2525,634.6103 453.5494,634.6103 Q451.0494,634.6103 449.7212,632.9697 Q448.4087,631.3134 448.4087,628.1884 Q448.4087,625.0634 449.7212,623.4072 Q451.0494,621.7509 453.5494,621.7509 Q454.2525,621.7509 454.8931,621.9072 Q455.5494,622.0634 456.1119,622.3603 L456.1119,625.079 Q455.4869,624.5009 454.8931,624.2353 Q454.2994,623.954 453.6744,623.954 Q452.3306,623.954 451.6431,625.0322 Q450.9556,626.0947 450.9556,628.1884 Q450.9556,630.2822 451.6431,631.3603 Q452.3306,632.4228 453.6744,632.4228 Q454.2994,632.4228 454.8931,632.1572 Q455.4869,631.8759 456.1119,631.2978 L456.1119,634.0165 Z " fill="#000000"/><text fill="#000000" font-family="sans-serif" font-size="12" font-style="italic" lengthAdjust="spacing" textLength="41.0523" x="476.7455" y="623.498">&#171;entity&#187;</text><text fill="#000000" font-family="sans-serif" font-size="14" lengthAdjust="spacing" textLength="50.6378" x="471.9527" y="641.9799">Dataset</text><line style="stroke:#181818;stroke-width:0.5;" x1="417.5" x2="546.2336" y1="651.0819" y2="651.0819"/><ellipse cx="427.5" cy="666.1159" fill="none" rx="3" ry="3" style="stroke:#038048;stroke-width:1;"/><text fill="#000000" font-family="sans-serif" font-size="14" lengthAdjust="spacing" textLength="36.9319" x="436.5" y="670.0479">id: int</text><ellipse cx="427.5" cy="685.1838" fill="none" rx="3" ry="3" style="stroke:#038048;stroke-width:1;"/><text fill="#000000" font-family="sans-serif" font-size="14" lengthAdjust="spacing" textLength="89.2917" x="436.5" y="689.1158">project_id: int</text><ellipse cx="427.5" cy="704.2517" fill="none" rx="3" ry="3" style="stroke:#038048;stroke-width:1;"/><text fill="#000000" font-family="sans-serif" font-size="14" lengthAdjust="spacing" textLength="62.4258" x="436.5" y="708.1837">name: str</text><ellipse cx="427.5" cy="723.3196" fill="none" rx="3" ry="3" style="stroke:#038048;stroke-width:1;"/><text fill="#000000" font-family="sans-serif" font-size="14" lengthAdjust="spacing" textLength="104.7336" x="436.5" y="727.2516">description: str?</text><line style="stroke:#181818;stroke-width:0.5;" x1="417.5" x2="546.2336" y1="735.3536" y2="735.3536"/></g><g class="entity" data-entity="GMN13" data-source-line="33" data-uid="ent0014" id="entity_GMN13"><path d="M628,176.1699 L628,186.1699 L572.14,190.1699 L628,194.1699 L628,203.8759 A0,0 0 0 0 628,203.8759 L924.0802,203.8759 A0,0 0 0 0 924.0802,203.8759 L924.0802,186.1699 L914.0802,176.1699 L628,176.1699 A0,0 0 0 0 628,176.1699" fill="#FEFFDD" style="stroke:#181818;stroke-width:0.5;"/><path d="M914.0802,176.1699 L914.0802,186.1699 L924.0802,186.1699 L914.0802,176.1699" fill="#FEFFDD" style="stroke:#181818;stroke-width:0.5;"/><text fill="#000000" font-family="sans-serif" font-size="13" lengthAdjust="spacing" textLength="275.0802" x="634" y="195.0669">Source: app/services/user_dataset_service.py</text></g><g class="entity" data-entity="GMN16" data-source-line="37" data-uid="ent0017" id="entity_GMN16"><path d="M629,390.6699 L629,418.3759 L936.8842,418.3759 L936.8842,400.6699 L926.8842,390.6699 L629,390.6699" fill="#FEFFDD" style="stroke:#181818;stroke-width:0.5;"/><path d="M926.8842,390.6699 L926.8842,400.6699 L936.8842,400.6699 L926.8842,390.6699" fill="#FEFFDD" style="stroke:#181818;stroke-width:1;"/><text fill="#000000" font-family="sans-serif" font-size="13" lengthAdjust="spacing" textLength="286.8842" x="635" y="409.5669">Source: app/repositories/dataset_repository.py</text></g><g class="entity" data-entity="GMN19" data-source-line="41" data-uid="ent0020" id="entity_GMN19"><path d="M628,660.6699 L628,670.6699 L547.71,674.6699 L628,678.6699 L628,688.3759 A0,0 0 0 0 628,688.3759 L869.5842,688.3759 A0,0 0 0 0 869.5842,688.3759 L869.5842,670.6699 L859.5842,660.6699 L628,660.6699 A0,0 0 0 0 628,660.6699" fill="#FEFFDD" style="stroke:#181818;stroke-width:0.5;"/><path d="M859.5842,660.6699 L859.5842,670.6699 L869.5842,670.6699 L859.5842,660.6699" fill="#FEFFDD" style="stroke:#181818;stroke-width:0.5;"/><text fill="#000000" font-family="sans-serif" font-size="13" lengthAdjust="spacing" textLength="220.5842" x="634" y="679.5669">Source: app/models/orm/dataset.py</text></g><!--link UserDatasetService to DatasetRepository--><g class="link" data-entity-1="UserDatasetService" data-entity-2="DatasetRepository" data-source-line="28" data-uid="lnk10" id="link_UserDatasetService_DatasetRepository"><path codeLine="28" d="M305.69,249.7999 C303.83,282.7199 301.8795,317.3495 300.1095,348.5795" fill="none" id="UserDatasetService-to-DatasetRepository" style="stroke:#181818;stroke-width:1;"/><polygon fill="#181818" points="299.77,354.5699,304.2729,345.8107,300.0529,349.5779,296.2857,345.358,299.77,354.5699" style="stroke:#181818;stroke-width:1;"/><text fill="#000000" font-family="sans-serif" font-size="13" lengthAdjust="spacing" textLength="27.82" x="304" y="296.5669">uses</text></g><!--link UserDatasetService to Dataset--><g class="link" data-entity-1="UserDatasetService" data-entity-2="Dataset" data-source-line="29" data-uid="lnk11" id="link_UserDatasetService_Dataset"><path codeLine="29" d="M438.6,249.9299 C460.44,265.7999 480.16,285.2399 493,308.6699 C543.87,401.5199 525.2093,522.7554 505.0293,599.8554" fill="none" id="UserDatasetService-to-Dataset" style="stroke:#181818;stroke-width:1;stroke-dasharray:7,7;"/><polygon fill="#181818" points="503.51,605.6599,509.6585,597.966,504.776,600.8228,501.9192,595.9404,503.51,605.6599" style="stroke:#181818;stroke-width:1;"/><text fill="#000000" font-family="sans-serif" font-size="13" lengthAdjust="spacing" textLength="45.058" x="526" y="410.0669">returns</text></g><!--link DatasetRepository to Dataset--><g class="link" data-entity-1="DatasetRepository" data-entity-2="Dataset" data-source-line="30" data-uid="lnk12" id="link_DatasetRepository_Dataset"><path codeLine="30" d="M330.93,454.8299 C360.14,497.1399 399.1711,553.6824 431.6411,600.7124" fill="none" id="DatasetRepository-to-Dataset" style="stroke:#181818;stroke-width:1;stroke-dasharray:7,7;"/><polygon fill="#181818" points="435.05,605.6499,433.2283,595.971,432.2092,601.5353,426.6449,600.5162,435.05,605.6499" style="stroke:#181818;stroke-width:1;"/><text fill="#000000" font-family="sans-serif" font-size="13" lengthAdjust="spacing" textLength="45.058" x="363" y="501.5669">returns</text></g><!--link DatasetRepository to GMN16--><g class="link" data-entity-1="DatasetRepository" data-entity-2="GMN16" data-source-line="37" data-uid="lnk18" id="link_DatasetRepository_GMN16"><path d="M360.07,354.4799 C417.39,315.0399 504.89,270.0199 584.5,291.1699 C658.16,310.7399 732.99,364.7999 765.8,390.6099" fill="none" id="DatasetRepository-GMN16" style="stroke:#181818;stroke-width:1;stroke-dasharray:7,7;"/></g><!--SRC=[ZLBBJiCm4BpxArPm0K4I96vHLSJZp86AisMSRJ6aTjZT84N0l-EqJfMsaK0vHDvCvk4TSL8ZN5zbjZRCsJCZFHWnZB90-dGMeG0M8yx65xLMMaB5xyutXimQxenzNr5eVNKVwa1mkhpg7wMQ-C6i44vCq-IyfU8J-5806oMOK9hD4d0-tm01CgYs44tOX1BI3q_nm4u2THlK1MZjl1Ejp_w0doTyxLXqmh9U1j9jb3vhABoX5Usg4foNI-Yd9Tpw3hxXCNWyXn8M-D6YjpXBxFF8-QD-3YBJeEdsOnzPYgbts6uNV1pffTTaTi7lsN_fTF9xwFl_BjUXmfhpGEi9Zz4PUd4oTfKKqkb0DqszMMFPjoMTAsHBhf4OO3E-6QnCL23BvXDNLFQBu2bydk_m4KKOw-bP7JDCuvGFWa1kzIeGbXELL8lGaerfucKLGukBlXL3UtIQvasdq5VGCnxo7hTsJ3jkIZ7kxnRx3-8zkkrAYxZIWMpCy0i0]--></g></svg>