<svg xmlns="http://www.w3.org/2000/svg" xmlns:xlink="http://www.w3.org/1999/xlink" contentStyleType="text/css" data-diagram-type="CLASS" height="563px" preserveAspectRatio="none" style="width:792px;height:563px;background:#F0F0F0;" version="1.1" viewBox="0 0 792 563" width="792px" zoomAndPan="magnify"><title>30-class-ProjectController / static structure</title><defs/><g><rect fill="#F0F0F0" height="563" style="stroke:none;stroke-width:1;" width="792" x="0" y="0"/><g class="title" data-source-line="1"><text fill="#000000" font-family="sans-serif" font-size="14" font-weight="bold" lengthAdjust="spacing" textLength="300.9709" x="239.0136" y="24.9659">30-class-ProjectController / static structure</text></g><!--cluster app--><g class="cluster" data-entity="app" data-source-line="5" data-uid="ent0004" id="cluster_app"><path d="M8.5,46.6699 L35.6799,46.6699 A3.75,3.75 0 0 1 38.1799,49.1699 L45.1799,71.7378 L559.5,71.7378 A2.5,2.5 0 0 1 562,74.2378 L562,554.1699 A2.5,2.5 0 0 1 559.5,556.6699 L8.5,556.6699 A2.5,2.5 0 0 1 6,554.1699 L6,49.1699 A2.5,2.5 0 0 1 8.5,46.6699" fill="none" style="stroke:#000000;stroke-width:1.5;"/><line style="stroke:#000000;stroke-width:1.5;" x1="6" x2="45.1799" y1="71.7378" y2="71.7378"/><text fill="#000000" font-family="sans-serif" font-size="14" font-weight="bold" lengthAdjust="spacing" textLength="26.1799" x="10" y="63.6358">app</text></g><!--cluster api--><g class="cluster" data-entity="api" data-source-line="5" data-uid="ent0005" id="cluster_api"><path d="M32.5,92.6699 L55.0879,92.6699 A3.75,3.75 0 0 1 57.5879,95.1699 L64.5879,117.7378 L535.5,117.7378 A2.5,2.5 0 0 1 538,120.2378 L538,294.1699 A2.5,2.5 0 0 1 535.5,296.6699 L32.5,296.6699 A2.5,2.5 0 0 1 30,294.1699 L30,95.1699 A2.5,2.5 0 0 1 32.5,92.6699" fill="none" style="stroke:#000000;stroke-width:1.5;"/><line style="stroke:#000000;stroke-width:1.5;" x1="30" x2="64.5879" y1="117.7378" y2="117.7378"/><text fill="#000000" font-family="sans-serif" font-size="14" font-weight="bold" lengthAdjust="spacing" textLength="21.5879" x="34" y="109.6358">api</text></g><!--cluster v1--><g class="cluster" data-entity="v1" data-source-line="4" data-uid="ent0002" id="cluster_v1"><path d="M56.5,138.6699 L73.4739,138.6699 A3.75,3.75 0 0 1 75.9739,141.1699 L82.9739,163.7378 L511.5,163.7378 A2.5,2.5 0 0 1 514,166.2378 L514,270.1699 A2.5,2.5 0 0 1 511.5,272.6699 L56.5,272.6699 A2.5,2.5 0 0 1 54,270.1699 L54,141.1699 A2.5,2.5 0 0 1 56.5,138.6699" fill="none" style="stroke:#000000;stroke-width:1.5;"/><line style="stroke:#000000;stroke-width:1.5;" x1="54" x2="82.9739" y1="163.7378" y2="163.7378"/><text fill="#000000" font-family="sans-serif" font-size="14" font-weight="bold" lengthAdjust="spacing" textLength="15.9739" x="58" y="155.6358">v1</text></g><!--cluster services--><g class="cluster" data-entity="services" data-source-line="10" data-uid="ent0006" id="cluster_services"><path d="M44.5,393.6699 L101.7518,393.6699 A3.75,3.75 0 0 1 104.2518,396.1699 L111.2518,418.7378 L227.5,418.7378 A2.5,2.5 0 0 1 230,421.2378 L230,506.1699 A2.5,2.5 0 0 1 227.5,508.6699 L44.5,508.6699 A2.5,2.5 0 0 1 42,506.1699 L42,396.1699 A2.5,2.5 0 0 1 44.5,393.6699" fill="none" style="stroke:#000000;stroke-width:1.5;"/><line style="stroke:#000000;stroke-width:1.5;" x1="42" x2="111.2518" y1="418.7378" y2="418.7378"/><text fill="#000000" font-family="sans-serif" font-size="14" font-weight="bold" lengthAdjust="spacing" textLength="56.2518" x="46" y="410.6358">services</text></g><!--cluster models--><g class="cluster" data-entity="models" data-source-line="15" data-uid="ent0010" id="cluster_models"><path d="M256.5,347.6699 L308.2778,347.6699 A3.75,3.75 0 0 1 310.7778,350.1699 L317.7778,372.7378 L441.5,372.7378 A2.5,2.5 0 0 1 444,375.2378 L444,530.1699 A2.5,2.5 0 0 1 441.5,532.6699 L256.5,532.6699 A2.5,2.5 0 0 1 254,530.1699 L254,350.1699 A2.5,2.5 0 0 1 256.5,347.6699" fill="none" style="stroke:#000000;stroke-width:1.5;"/><line style="stroke:#000000;stroke-width:1.5;" x1="254" x2="317.7778" y1="372.7378" y2="372.7378"/><text fill="#000000" font-family="sans-serif" font-size="14" font-weight="bold" lengthAdjust="spacing" textLength="50.7778" x="258" y="364.6358">models</text></g><!--cluster schemas--><g class="cluster" data-entity="schemas" data-source-line="14" data-uid="ent0008" id="cluster_schemas"><path d="M280.5,393.6699 L342.2878,393.6699 A3.75,3.75 0 0 1 344.7878,396.1699 L351.7878,418.7378 L417.5,418.7378 A2.5,2.5 0 0 1 420,421.2378 L420,506.1699 A2.5,2.5 0 0 1 417.5,508.6699 L280.5,508.6699 A2.5,2.5 0 0 1 278,506.1699 L278,396.1699 A2.5,2.5 0 0 1 280.5,393.6699" fill="none" style="stroke:#000000;stroke-width:1.5;"/><line style="stroke:#000000;stroke-width:1.5;" x1="278" x2="351.7878" y1="418.7378" y2="418.7378"/><text fill="#000000" font-family="sans-serif" font-size="14" font-weight="bold" lengthAdjust="spacing" textLength="60.7878" x="282" y="410.6358">schemas</text></g><!--class ProjectController--><g class="entity" data-entity="ProjectController" data-source-line="5" data-uid="ent0003" id="entity_ProjectController"><rect fill="#F1F1F1" height="80.4799" rx="2.5" ry="2.5" style="stroke:#181818;stroke-width:0.5;" width="427.0285" x="70.5" y="176.6699"/><ellipse cx="223.6734" cy="199.3759" fill="#ADD1B2" rx="11" ry="11" style="stroke:#181818;stroke-width:1;"/><path d="M226.6422,205.0165 Q226.0641,205.3134 225.4234,205.454 Q224.7828,205.6103 224.0797,205.6103 Q221.5797,205.6103 220.2516,203.9697 Q218.9391,202.3134 218.9391,199.1884 Q218.9391,196.0634 220.2516,194.4072 Q221.5797,192.7509 224.0797,192.7509 Q224.7828,192.7509 225.4234,192.9072 Q226.0797,193.0634 226.6422,193.3603 L226.6422,196.079 Q226.0172,195.5009 225.4234,195.2353 Q224.8297,194.954 224.2047,194.954 Q222.8609,194.954 222.1734,196.0322 Q221.4859,197.0947 221.4859,199.1884 Q221.4859,201.2822 222.1734,202.3603 Q222.8609,203.4228 224.2047,203.4228 Q224.8297,203.4228 225.4234,203.1572 Q226.0172,202.8759 226.6422,202.2978 L226.6422,205.0165 Z " fill="#000000"/><text fill="#000000" font-family="sans-serif" font-size="12" font-style="italic" lengthAdjust="spacing" textLength="63.0604" x="268.734" y="194.498">&#171;controller&#187;</text><text fill="#000000" font-family="sans-serif" font-size="14" lengthAdjust="spacing" textLength="112.1816" x="244.1734" y="212.9799">ProjectController</text><line style="stroke:#181818;stroke-width:0.5;" x1="71.5" x2="496.5285" y1="222.0819" y2="222.0819"/><line style="stroke:#181818;stroke-width:0.5;" x1="71.5" x2="496.5285" y1="230.0819" y2="230.0819"/><ellipse cx="81.5" cy="245.1159" fill="#84BE84" rx="3" ry="3" style="stroke:#038048;stroke-width:1;"/><text fill="#000000" font-family="sans-serif" font-size="14" lengthAdjust="spacing" textLength="401.0285" x="90.5" y="249.0479">list_projects(svc: UserProjectService) : Sequence[ProjectRead]</text></g><!--class UserProjectService--><g class="entity" data-entity="UserProjectService" data-source-line="11" data-uid="ent0007" id="entity_UserProjectService"><rect fill="#F1F1F1" height="61.412" rx="2.5" ry="2.5" style="stroke:#181818;stroke-width:0.5;" width="155.3255" x="58.5" y="431.6699"/><ellipse cx="73.5" cy="454.3759" fill="#ADD1B2" rx="11" ry="11" style="stroke:#181818;stroke-width:1;"/><path d="M76.4688,460.0165 Q75.8906,460.3134 75.25,460.454 Q74.6094,460.6103 73.9063,460.6103 Q71.4063,460.6103 70.0781,458.9697 Q68.7656,457.3134 68.7656,454.1884 Q68.7656,451.0634 70.0781,449.4072 Q71.4063,447.7509 73.9063,447.7509 Q74.6094,447.7509 75.25,447.9072 Q75.9063,448.0634 76.4688,448.3603 L76.4688,451.079 Q75.8438,450.5009 75.25,450.2353 Q74.6563,449.954 74.0313,449.954 Q72.6875,449.954 72,451.0322 Q71.3125,452.0947 71.3125,454.1884 Q71.3125,456.2822 72,457.3603 Q72.6875,458.4228 74.0313,458.4228 Q74.6563,458.4228 75.25,458.1572 Q75.8438,457.8759 76.4688,457.2978 L76.4688,460.0165 Z " fill="#000000"/><text fill="#000000" font-family="sans-serif" font-size="12" font-style="italic" lengthAdjust="spacing" textLength="47.5203" x="125.4026" y="449.498">&#171;service&#187;</text><text fill="#000000" font-family="sans-serif" font-size="14" lengthAdjust="spacing" textLength="123.3255" x="87.5" y="467.9799">UserProjectService</text><line style="stroke:#181818;stroke-width:0.5;" x1="59.5" x2="212.8255" y1="477.0819" y2="477.0819"/><line style="stroke:#181818;stroke-width:0.5;" x1="59.5" x2="212.8255" y1="485.0819" y2="485.0819"/></g><!--class ProjectRead--><g class="entity" data-entity="ProjectRead" data-source-line="15" data-uid="ent0009" id="entity_ProjectRead"><rect fill="#F1F1F1" height="61.412" rx="2.5" ry="2.5" style="stroke:#181818;stroke-width:0.5;" width="111.0717" x="293.5" y="431.6699"/><ellipse cx="308.5" cy="454.3759" fill="#ADD1B2" rx="11" ry="11" style="stroke:#181818;stroke-width:1;"/><path d="M311.4688,460.0165 Q310.8906,460.3134 310.25,460.454 Q309.6094,460.6103 308.9063,460.6103 Q306.4063,460.6103 305.0781,458.9697 Q303.7656,457.3134 303.7656,454.1884 Q303.7656,451.0634 305.0781,449.4072 Q306.4063,447.7509 308.9063,447.7509 Q309.6094,447.7509 310.25,447.9072 Q310.9063,448.0634 311.4688,448.3603 L311.4688,451.079 Q310.8438,450.5009 310.25,450.2353 Q309.6563,449.954 309.0313,449.954 Q307.6875,449.954 307,451.0322 Q306.3125,452.0947 306.3125,454.1884 Q306.3125,456.2822 307,457.3603 Q307.6875,458.4228 309.0313,458.4228 Q309.6563,458.4228 310.25,458.1572 Q310.8438,457.8759 311.4688,457.2978 L311.4688,460.0165 Z " fill="#000000"/><text fill="#000000" font-family="sans-serif" font-size="12" font-style="italic" lengthAdjust="spacing" textLength="29.1362" x="347.4678" y="449.498">&#171;dto&#187;</text><text fill="#000000" font-family="sans-serif" font-size="14" lengthAdjust="spacing" textLength="79.0717" x="322.5" y="467.9799">ProjectRead</text><line style="stroke:#181818;stroke-width:0.5;" x1="294.5" x2="403.5717" y1="477.0819" y2="477.0819"/><line style="stroke:#181818;stroke-width:0.5;" x1="294.5" x2="403.5717" y1="485.0819" y2="485.0819"/></g><g class="entity" data-entity="GMN13" data-source-line="22" data-uid="ent0014" id="entity_GMN13"><path d="M578.5,202.6699 L578.5,212.6699 L497.77,216.6699 L578.5,220.6699 L578.5,230.3759 A0,0 0 0 0 578.5,230.3759 L785.9982,230.3759 A0,0 0 0 0 785.9982,230.3759 L785.9982,212.6699 L775.9982,202.6699 L578.5,202.6699 A0,0 0 0 0 578.5,202.6699" fill="#FEFFDD" style="stroke:#181818;stroke-width:0.5;"/><path d="M775.9982,202.6699 L775.9982,212.6699 L785.9982,212.6699 L775.9982,202.6699" fill="#FEFFDD" style="stroke:#181818;stroke-width:0.5;"/><text fill="#000000" font-family="sans-serif" font-size="13" lengthAdjust="spacing" textLength="186.4982" x="584.5" y="221.5669">Source: app/api/v1/projects.py</text></g><!--link ProjectController to UserProjectService--><g class="link" data-entity-1="ProjectController" data-entity-2="UserProjectService" data-source-line="18" data-uid="lnk11" id="link_ProjectController_UserProjectService"><path codeLine="18" d="M248.83,256.7799 C234.87,273.3499 219.25,293.2899 207,312.6699 C182.27,351.7999 162.7028,395.3353 149.9828,426.0953" fill="none" id="ProjectController-to-UserProjectService" style="stroke:#181818;stroke-width:1;"/><polygon fill="#181818" points="147.69,431.6399,154.8257,424.8515,149.6007,427.0194,147.4328,421.7944,147.69,431.6399" style="stroke:#181818;stroke-width:1;"/><text fill="#000000" font-family="sans-serif" font-size="13" lengthAdjust="spacing" textLength="93.4051" x="208" y="327.5669">uses (Depends)</text></g><!--link ProjectController to ProjectRead--><g class="link" data-entity-1="ProjectController" data-entity-2="ProjectRead" data-source-line="19" data-uid="lnk12" id="link_ProjectController_ProjectRead"><path codeLine="19" d="M294.44,256.7899 C307.43,305.4599 327.783,381.6728 339.493,425.5528" fill="none" id="ProjectController-to-ProjectRead" style="stroke:#181818;stroke-width:1;stroke-dasharray:7,7;"/><polygon fill="#181818" points="341.04,431.3499,342.5842,421.6228,339.7508,426.519,334.8547,423.6856,341.04,431.3499" style="stroke:#181818;stroke-width:1;"/><text fill="#000000" font-family="sans-serif" font-size="13" lengthAdjust="spacing" textLength="45.058" x="313" y="327.5669">returns</text></g><!--SRC=[RL7DQiCm3BxxAKHtQHb9MdOBnOTr3p0MTXfZ64TDtJgs9pc1CVhkSvfiR4lnGHZf-vEYYHRXRfrfgvYpH_97r77dNIHlBH8Km555erEXJiUEKF39kA18jN2lzAaXtxbwvwqdkDclXoT4I0tL82nK2BaA9kyt2_WK01SPcCjij_hd8-Lb5E0MhE7u5iPfNdAlItXcf0bV8VL6umfAgF2zGwVnPMezeQfV4ybPdF-vuH74l_tCEPEXQL3A6KNhQxISipvWg_XAi44zCTJHZ-XvtYoJrrHBw1WPbWyOqDMykeBCS_b7fWJ2T1R7GZWV4SWqXmX-Fr-og7n76aj86OfqbABV5D-xpSE7I8emK7m1]--></g></svg>