<svg xmlns="http://www.w3.org/2000/svg" xmlns:xlink="http://www.w3.org/1999/xlink" contentStyleType="text/css" data-diagram-type="CLASS" height="563px" preserveAspectRatio="none" style="width:903px;height:563px;background:#F0F0F0;" version="1.1" viewBox="0 0 903 563" width="903px" zoomAndPan="magnify"><title>30-class-DatasetController / static structure</title><defs/><g><rect fill="#F0F0F0" height="563" style="stroke:none;stroke-width:1;" width="903" x="0" y="0"/><g class="title" data-source-line="1"><text fill="#000000" font-family="sans-serif" font-size="14" font-weight="bold" lengthAdjust="spacing" textLength="305.9968" x="291.5897" y="24.9659">30-class-DatasetController / static structure</text></g><!--cluster app--><g class="cluster" data-entity="app" data-source-line="5" data-uid="ent0004" id="cluster_app"><path d="M8.5,46.6699 L35.6799,46.6699 A3.75,3.75 0 0 1 38.1799,49.1699 L45.1799,71.7378 L667.5,71.7378 A2.5,2.5 0 0 1 670,74.2378 L670,554.1699 A2.5,2.5 0 0 1 667.5,556.6699 L8.5,556.6699 A2.5,2.5 0 0 1 6,554.1699 L6,49.1699 A2.5,2.5 0 0 1 8.5,46.6699" fill="none" style="stroke:#000000;stroke-width:1.5;"/><line style="stroke:#000000;stroke-width:1.5;" x1="6" x2="45.1799" y1="71.7378" y2="71.7378"/><text fill="#000000" font-family="sans-serif" font-size="14" font-weight="bold" lengthAdjust="spacing" textLength="26.1799" x="10" y="63.6358">app</text></g><!--cluster api--><g class="cluster" data-entity="api" data-source-line="5" data-uid="ent0005" id="cluster_api"><path d="M32.5,92.6699 L55.0879,92.6699 A3.75,3.75 0 0 1 57.5879,95.1699 L64.5879,117.7378 L643.5,117.7378 A2.5,2.5 0 0 1 646,120.2378 L646,294.1699 A2.5,2.5 0 0 1 643.5,296.6699 L32.5,296.6699 A2.5,2.5 0 0 1 30,294.1699 L30,95.1699 A2.5,2.5 0 0 1 32.5,92.6699" fill="none" style="stroke:#000000;stroke-width:1.5;"/><line style="stroke:#000000;stroke-width:1.5;" x1="30" x2="64.5879" y1="117.7378" y2="117.7378"/><text fill="#000000" font-family="sans-serif" font-size="14" font-weight="bold" lengthAdjust="spacing" textLength="21.5879" x="34" y="109.6358">api</text></g><!--cluster v1--><g class="cluster" data-entity="v1" data-source-line="4" data-uid="ent0002" id="cluster_v1"><path d="M56.5,138.6699 L73.4739,138.6699 A3.75,3.75 0 0 1 75.9739,141.1699 L82.9739,163.7378 L619.5,163.7378 A2.5,2.5 0 0 1 622,166.2378 L622,270.1699 A2.5,2.5 0 0 1 619.5,272.6699 L56.5,272.6699 A2.5,2.5 0 0 1 54,270.1699 L54,141.1699 A2.5,2.5 0 0 1 56.5,138.6699" fill="none" style="stroke:#000000;stroke-width:1.5;"/><line style="stroke:#000000;stroke-width:1.5;" x1="54" x2="82.9739" y1="163.7378" y2="163.7378"/><text fill="#000000" font-family="sans-serif" font-size="14" font-weight="bold" lengthAdjust="spacing" textLength="15.9739" x="58" y="155.6358">v1</text></g><!--cluster services--><g class="cluster" data-entity="services" data-source-line="10" data-uid="ent0006" id="cluster_services"><path d="M70.5,393.6699 L127.7518,393.6699 A3.75,3.75 0 0 1 130.2518,396.1699 L137.2518,418.7378 L257.5,418.7378 A2.5,2.5 0 0 1 260,421.2378 L260,506.1699 A2.5,2.5 0 0 1 257.5,508.6699 L70.5,508.6699 A2.5,2.5 0 0 1 68,506.1699 L68,396.1699 A2.5,2.5 0 0 1 70.5,393.6699" fill="none" style="stroke:#000000;stroke-width:1.5;"/><line style="stroke:#000000;stroke-width:1.5;" x1="68" x2="137.2518" y1="418.7378" y2="418.7378"/><text fill="#000000" font-family="sans-serif" font-size="14" font-weight="bold" lengthAdjust="spacing" textLength="56.2518" x="72" y="410.6358">services</text></g><!--cluster models--><g class="cluster" data-entity="models" data-source-line="15" data-uid="ent0010" id="cluster_models"><path d="M286.5,347.6699 L338.2778,347.6699 A3.75,3.75 0 0 1 340.7778,350.1699 L347.7778,372.7378 L477.5,372.7378 A2.5,2.5 0 0 1 480,375.2378 L480,530.1699 A2.5,2.5 0 0 1 477.5,532.6699 L286.5,532.6699 A2.5,2.5 0 0 1 284,530.1699 L284,350.1699 A2.5,2.5 0 0 1 286.5,347.6699" fill="none" style="stroke:#000000;stroke-width:1.5;"/><line style="stroke:#000000;stroke-width:1.5;" x1="284" x2="347.7778" y1="372.7378" y2="372.7378"/><text fill="#000000" font-family="sans-serif" font-size="14" font-weight="bold" lengthAdjust="spacing" textLength="50.7778" x="288" y="364.6358">models</text></g><!--cluster schemas--><g class="cluster" data-entity="schemas" data-source-line="14" data-uid="ent0008" id="cluster_schemas"><path d="M310.5,393.6699 L372.2878,393.6699 A3.75,3.75 0 0 1 374.7878,396.1699 L381.7878,418.7378 L453.5,418.7378 A2.5,2.5 0 0 1 456,421.2378 L456,506.1699 A2.5,2.5 0 0 1 453.5,508.6699 L310.5,508.6699 A2.5,2.5 0 0 1 308,506.1699 L308,396.1699 A2.5,2.5 0 0 1 310.5,393.6699" fill="none" style="stroke:#000000;stroke-width:1.5;"/><line style="stroke:#000000;stroke-width:1.5;" x1="308" x2="381.7878" y1="418.7378" y2="418.7378"/><text fill="#000000" font-family="sans-serif" font-size="14" font-weight="bold" lengthAdjust="spacing" textLength="60.7878" x="312" y="410.6358">schemas</text></g><!--class DatasetController--><g class="entity" data-entity="DatasetController" data-source-line="5" data-uid="ent0003" id="entity_DatasetController"><rect fill="#F1F1F1" height="80.4799" rx="2.5" ry="2.5" style="stroke:#181818;stroke-width:0.5;" width="535.8641" x="70" y="176.6699"/><ellipse cx="275.2743" cy="199.3759" fill="#ADD1B2" rx="11" ry="11" style="stroke:#181818;stroke-width:1;"/><path d="M278.243,205.0165 Q277.6649,205.3134 277.0243,205.454 Q276.3836,205.6103 275.6805,205.6103 Q273.1805,205.6103 271.8524,203.9697 Q270.5399,202.3134 270.5399,199.1884 Q270.5399,196.0634 271.8524,194.4072 Q273.1805,192.7509 275.6805,192.7509 Q276.3836,192.7509 277.0243,192.9072 Q277.6805,193.0634 278.243,193.3603 L278.243,196.079 Q277.618,195.5009 277.0243,195.2353 Q276.4305,194.954 275.8055,194.954 Q274.4618,194.954 273.7743,196.0322 Q273.0868,197.0947 273.0868,199.1884 Q273.0868,201.2822 273.7743,202.3603 Q274.4618,203.4228 275.8055,203.4228 Q276.4305,203.4228 277.0243,203.1572 Q277.618,202.8759 278.243,202.2978 L278.243,205.0165 Z " fill="#000000"/><text fill="#000000" font-family="sans-serif" font-size="12" font-style="italic" lengthAdjust="spacing" textLength="63.0604" x="322.6518" y="194.498">&#171;controller&#187;</text><text fill="#000000" font-family="sans-serif" font-size="14" lengthAdjust="spacing" textLength="116.8156" x="295.7743" y="212.9799">DatasetController</text><line style="stroke:#181818;stroke-width:0.5;" x1="71" x2="604.8641" y1="222.0819" y2="222.0819"/><line style="stroke:#181818;stroke-width:0.5;" x1="71" x2="604.8641" y1="230.0819" y2="230.0819"/><ellipse cx="81" cy="245.1159" fill="#84BE84" rx="3" ry="3" style="stroke:#038048;stroke-width:1;"/><text fill="#000000" font-family="sans-serif" font-size="14" lengthAdjust="spacing" textLength="509.8641" x="90" y="249.0479">list_datasets(project_id: int, svc: UserDatasetService) : Sequence[DatasetRead]</text></g><!--class UserDatasetService--><g class="entity" data-entity="UserDatasetService" data-source-line="11" data-uid="ent0007" id="entity_UserDatasetService"><rect fill="#F1F1F1" height="61.412" rx="2.5" ry="2.5" style="stroke:#181818;stroke-width:0.5;" width="159.9595" x="84" y="431.6699"/><ellipse cx="99" cy="454.3759" fill="#ADD1B2" rx="11" ry="11" style="stroke:#181818;stroke-width:1;"/><path d="M101.9688,460.0165 Q101.3906,460.3134 100.75,460.454 Q100.1094,460.6103 99.4063,460.6103 Q96.9063,460.6103 95.5781,458.9697 Q94.2656,457.3134 94.2656,454.1884 Q94.2656,451.0634 95.5781,449.4072 Q96.9063,447.7509 99.4063,447.7509 Q100.1094,447.7509 100.75,447.9072 Q101.4063,448.0634 101.9688,448.3603 L101.9688,451.079 Q101.3438,450.5009 100.75,450.2353 Q100.1563,449.954 99.5313,449.954 Q98.1875,449.954 97.5,451.0322 Q96.8125,452.0947 96.8125,454.1884 Q96.8125,456.2822 97.5,457.3603 Q98.1875,458.4228 99.5313,458.4228 Q100.1563,458.4228 100.75,458.1572 Q101.3438,457.8759 101.9688,457.2978 L101.9688,460.0165 Z " fill="#000000"/><text fill="#000000" font-family="sans-serif" font-size="12" font-style="italic" lengthAdjust="spacing" textLength="47.5203" x="153.2196" y="449.498">&#171;service&#187;</text><text fill="#000000" font-family="sans-serif" font-size="14" lengthAdjust="spacing" textLength="127.9595" x="113" y="467.9799">UserDatasetService</text><line style="stroke:#181818;stroke-width:0.5;" x1="85" x2="242.9595" y1="477.0819" y2="477.0819"/><line style="stroke:#181818;stroke-width:0.5;" x1="85" x2="242.9595" y1="485.0819" y2="485.0819"/></g><!--class DatasetRead--><g class="entity" data-entity="DatasetRead" data-source-line="15" data-uid="ent0009" id="entity_DatasetRead"><rect fill="#F1F1F1" height="61.412" rx="2.5" ry="2.5" style="stroke:#181818;stroke-width:0.5;" width="115.7057" x="324" y="431.6699"/><ellipse cx="339" cy="454.3759" fill="#ADD1B2" rx="11" ry="11" style="stroke:#181818;stroke-width:1;"/><path d="M341.9688,460.0165 Q341.3906,460.3134 340.75,460.454 Q340.1094,460.6103 339.4063,460.6103 Q336.9063,460.6103 335.5781,458.9697 Q334.2656,457.3134 334.2656,454.1884 Q334.2656,451.0634 335.5781,449.4072 Q336.9063,447.7509 339.4063,447.7509 Q340.1094,447.7509 340.75,447.9072 Q341.4063,448.0634 341.9688,448.3603 L341.9688,451.079 Q341.3438,450.5009 340.75,450.2353 Q340.1563,449.954 339.5313,449.954 Q338.1875,449.954 337.5,451.0322 Q336.8125,452.0947 336.8125,454.1884 Q336.8125,456.2822 337.5,457.3603 Q338.1875,458.4228 339.5313,458.4228 Q340.1563,458.4228 340.75,458.1572 Q341.3438,457.8759 341.9688,457.2978 L341.9688,460.0165 Z " fill="#000000"/><text fill="#000000" font-family="sans-serif" font-size="12" font-style="italic" lengthAdjust="spacing" textLength="29.1362" x="380.2847" y="449.498">&#171;dto&#187;</text><text fill="#000000" font-family="sans-serif" font-size="14" lengthAdjust="spacing" textLength="83.7057" x="353" y="467.9799">DatasetRead</text><line style="stroke:#181818;stroke-width:0.5;" x1="325" x2="438.7057" y1="477.0819" y2="477.0819"/><line style="stroke:#181818;stroke-width:0.5;" x1="325" x2="438.7057" y1="485.0819" y2="485.0819"/></g><g class="entity" data-entity="GMN13" data-source-line="22" data-uid="ent0014" id="entity_GMN13"><path d="M686,202.6699 L686,212.6699 L606.08,216.6699 L686,220.6699 L686,230.3759 A0,0 0 0 0 686,230.3759 L896.1761,230.3759 A0,0 0 0 0 896.1761,230.3759 L896.1761,212.6699 L886.1761,202.6699 L686,202.6699 A0,0 0 0 0 686,202.6699" fill="#FEFFDD" style="stroke:#181818;stroke-width:0.5;"/><path d="M886.1761,202.6699 L886.1761,212.6699 L896.1761,212.6699 L886.1761,202.6699" fill="#FEFFDD" style="stroke:#181818;stroke-width:0.5;"/><text fill="#000000" font-family="sans-serif" font-size="13" lengthAdjust="spacing" textLength="189.1761" x="692" y="221.5669">Source: app/api/v1/datasets.py</text></g><!--link DatasetController to UserDatasetService--><g class="link" data-entity-1="DatasetController" data-entity-2="UserDatasetService" data-source-line="18" data-uid="lnk11" id="link_DatasetController_UserDatasetService"><path codeLine="18" d="M299.83,256.9199 C284.52,273.5099 267.18,293.4299 253,312.6699 C224.12,351.8699 199.0063,395.6534 182.3663,426.3934" fill="none" id="DatasetController-to-UserDatasetService" style="stroke:#181818;stroke-width:1;"/><polygon fill="#181818" points="179.51,431.6699,187.3121,425.6593,181.8902,427.2728,180.2767,421.8509,179.51,431.6699" style="stroke:#181818;stroke-width:1;"/><text fill="#000000" font-family="sans-serif" font-size="13" lengthAdjust="spacing" textLength="93.4051" x="254" y="327.5669">uses (Depends)</text></g><!--link DatasetController to DatasetRead--><g class="link" data-entity-1="DatasetController" data-entity-2="DatasetRead" data-source-line="19" data-uid="lnk12" id="link_DatasetController_DatasetRead"><path codeLine="19" d="M345.07,256.7899 C353.86,305.4599 367.613,381.5655 375.543,425.4455" fill="none" id="DatasetController-to-DatasetRead" style="stroke:#181818;stroke-width:1;stroke-dasharray:7,7;"/><polygon fill="#181818" points="376.61,431.3499,378.9457,421.782,375.7208,426.4296,371.0732,423.2047,376.61,431.3499" style="stroke:#181818;stroke-width:1;"/><text fill="#000000" font-family="sans-serif" font-size="13" lengthAdjust="spacing" textLength="45.058" x="358" y="327.5669">returns</text></g><!--SRC=[RL7DRi8m3BxdAIns0MrjGRjLg8V14mpjD4qeIam9X2IptKhJnBil_6pQLfI35VdxiorEFCBZj31UCnTBBPfH5Z48HU-He08MBSxaGfsHZb3nteMaIH_WIPjzIx4BTX5z9BZRJ4zFgPGRkaKOwPHAdLpPpqRmgG3EDZ2qcS_DpwTfpb20U_2EPMqlQ1udYZiqidQs1XVa0RWtDRmmqbLmXTGxWnEeOONl7GQ3hzVMCshxbbMFwlWl7bz8_3lWK3Cdl0ARPY1nY1OzbsosUD1yOzAJUrQm4Y_iuGAAehdbMaF7o31UOi9WUNA3MPRD7viQ2FET0YiLeY2GQxS2SJFSkbh5ZWpMa6UeyfMgVbPzBxjC7oexmadY2m00]--></g></svg>