<svg xmlns="http://www.w3.org/2000/svg" xmlns:xlink="http://www.w3.org/1999/xlink" contentStyleType="text/css" data-diagram-type="SEQUENCE" height="499px" preserveAspectRatio="none" style="width:768px;height:499px;background:#FFFFFF;" version="1.1" viewBox="0 0 768 499" width="768px" zoomAndPan="magnify"><title>Authenticated request to /projects</title><defs/><g><text fill="#000000" font-family="sans-serif" font-size="14" font-weight="bold" lengthAdjust="spacing" textLength="242.9131" x="261.675" y="29.9659">Authenticated request to /projects</text><g><title>ProjectController</title><rect fill="#FFFFFF" height="230.9421" style="stroke:#181818;stroke-width:1;" width="10" x="230.5881" y="175.5479"/></g><g><title>Web</title><rect fill="#000000" fill-opacity="0.00000" height="291.3541" width="8" x="18.7629" y="124.1358"/><line style="stroke:#181818;stroke-width:0.5;stroke-dasharray:5,5;" x1="22" x2="22" y1="124.1358" y2="415.49"/></g><g><title>ProjectController</title><rect fill="#000000" fill-opacity="0.00000" height="291.3541" width="8" x="231.5881" y="124.1358"/><line style="stroke:#181818;stroke-width:0.5;stroke-dasharray:5,5;" x1="235.4973" x2="235.4973" y1="124.1358" y2="415.49"/></g><g><title>UserContext provider</title><rect fill="#000000" fill-opacity="0.00000" height="291.3541" width="8" x="382.4346" y="124.1358"/><line style="stroke:#181818;stroke-width:0.5;stroke-dasharray:5,5;" x1="385.6789" x2="385.6789" y1="124.1358" y2="415.49"/></g><g><title>SecurityModule</title><rect fill="#000000" fill-opacity="0.00000" height="291.3541" width="8" x="552.6978" y="124.1358"/><line style="stroke:#181818;stroke-width:0.5;stroke-dasharray:5,5;" x1="556.458" x2="556.458" y1="124.1358" y2="415.49"/></g><g><title>UserProjectService</title><rect fill="#000000" fill-opacity="0.00000" height="291.3541" width="8" x="689.6003" y="124.1358"/><line style="stroke:#181818;stroke-width:0.5;stroke-dasharray:5,5;" x1="692.9376" x2="692.9376" y1="124.1358" y2="415.49"/></g><g class="participant participant-head" data-participant="Web"><text fill="#000000" font-family="sans-serif" font-size="14" lengthAdjust="spacing" textLength="29.5259" x="5" y="120.0339">Web</text><ellipse cx="22.7629" cy="53.5679" fill="#E2E2F0" rx="8" ry="8" style="stroke:#181818;stroke-width:0.5;"/><path d="M22.7629,61.5679 L22.7629,88.5679 M9.7629,69.5679 L35.7629,69.5679 M22.7629,88.5679 L9.7629,103.5679 M22.7629,88.5679 L35.7629,103.5679" fill="none" style="stroke:#181818;stroke-width:0.5;"/></g><g class="participant participant-tail" data-participant="Web"><text fill="#000000" font-family="sans-serif" font-size="14" lengthAdjust="spacing" textLength="29.5259" x="5" y="429.4559">Web</text><ellipse cx="22.7629" cy="442.0579" fill="#E2E2F0" rx="8" ry="8" style="stroke:#181818;stroke-width:0.5;"/><path d="M22.7629,450.0579 L22.7629,477.0579 M9.7629,458.0579 L35.7629,458.0579 M22.7629,477.0579 L9.7629,492.0579 M22.7629,477.0579 L35.7629,492.0579" fill="none" style="stroke:#181818;stroke-width:0.5;"/></g><g class="participant participant-head" data-participant="ProjectCtl"><rect fill="#E2E2F0" height="33.0679" rx="2.5" ry="2.5" style="stroke:#181818;stroke-width:0.5;" width="126.1816" x="172.4973" y="90.0679"/><text fill="#000000" font-family="sans-serif" font-size="14" lengthAdjust="spacing" textLength="112.1816" x="179.4973" y="112.0339">ProjectController</text></g><g class="participant participant-tail" data-participant="ProjectCtl"><rect fill="#E2E2F0" height="33.0679" rx="2.5" ry="2.5" style="stroke:#181818;stroke-width:0.5;" width="126.1816" x="172.4973" y="414.49"/><text fill="#000000" font-family="sans-serif" font-size="14" lengthAdjust="spacing" textLength="112.1816" x="179.4973" y="436.4559">ProjectController</text></g><g class="participant participant-head" data-participant="UserCtx"><rect fill="#E2E2F0" height="33.0679" rx="2.5" ry="2.5" style="stroke:#181818;stroke-width:0.5;" width="155.5115" x="308.6789" y="90.0679"/><text fill="#000000" font-family="sans-serif" font-size="14" lengthAdjust="spacing" textLength="141.5115" x="315.6789" y="112.0339">UserContext provider</text></g><g class="participant participant-tail" data-participant="UserCtx"><rect fill="#E2E2F0" height="33.0679" rx="2.5" ry="2.5" style="stroke:#181818;stroke-width:0.5;" width="155.5115" x="308.6789" y="414.49"/><text fill="#000000" font-family="sans-serif" font-size="14" lengthAdjust="spacing" textLength="141.5115" x="315.6789" y="436.4559">UserContext provider</text></g><g class="participant participant-head" data-participant="Sec"><rect fill="#E2E2F0" height="33.0679" rx="2.5" ry="2.5" style="stroke:#181818;stroke-width:0.5;" width="116.4796" x="498.458" y="90.0679"/><text fill="#000000" font-family="sans-serif" font-size="14" lengthAdjust="spacing" textLength="102.4796" x="505.458" y="112.0339">SecurityModule</text></g><g class="participant participant-tail" data-participant="Sec"><rect fill="#E2E2F0" height="33.0679" rx="2.5" ry="2.5" style="stroke:#181818;stroke-width:0.5;" width="116.4796" x="498.458" y="414.49"/><text fill="#000000" font-family="sans-serif" font-size="14" lengthAdjust="spacing" textLength="102.4796" x="505.458" y="436.4559">SecurityModule</text></g><g class="participant participant-head" data-participant="UserProjSvc"><rect fill="#E2E2F0" height="33.0679" rx="2.5" ry="2.5" style="stroke:#181818;stroke-width:0.5;" width="137.3255" x="624.9376" y="90.0679"/><text fill="#000000" font-family="sans-serif" font-size="14" lengthAdjust="spacing" textLength="123.3255" x="631.9376" y="112.0339">UserProjectService</text></g><g class="participant participant-tail" data-participant="UserProjSvc"><rect fill="#E2E2F0" height="33.0679" rx="2.5" ry="2.5" style="stroke:#181818;stroke-width:0.5;" width="137.3255" x="624.9376" y="414.49"/><text fill="#000000" font-family="sans-serif" font-size="14" lengthAdjust="spacing" textLength="123.3255" x="631.9376" y="436.4559">UserProjectService</text></g><g><title>ProjectController</title><rect fill="#FFFFFF" height="230.9421" style="stroke:#181818;stroke-width:1;" width="10" x="230.5881" y="175.5479"/></g><g class="message" data-participant-1="Web" data-participant-2="ProjectCtl"><polygon fill="#181818" points="218.5881,171.5479,228.5881,175.5479,218.5881,179.5479,222.5881,175.5479" style="stroke:#181818;stroke-width:1;"/><line style="stroke:#181818;stroke-width:1;" x1="22.7629" x2="224.5881" y1="175.5479" y2="175.5479"/><text fill="#000000" font-family="sans-serif" font-size="13" lengthAdjust="spacing" textLength="81.2111" x="29.7629" y="152.0328">GET /projects</text><text fill="#000000" font-family="sans-serif" font-size="13" lengthAdjust="spacing" textLength="188.8251" x="29.7629" y="169.7389">Authorization: Bearer &lt;access&gt;</text></g><g class="message" data-participant-1="ProjectCtl" data-participant-2="UserCtx"><polygon fill="#181818" points="374.4346,203.2539,384.4346,207.2539,374.4346,211.2539,378.4346,207.2539" style="stroke:#181818;stroke-width:1;"/><line style="stroke:#181818;stroke-width:1;" x1="240.5881" x2="380.4346" y1="207.2539" y2="207.2539"/><text fill="#000000" font-family="sans-serif" font-size="13" lengthAdjust="spacing" textLength="112.0601" x="247.5881" y="201.4449">get_user_context()</text></g><g class="message" data-participant-1="UserCtx" data-participant-2="Sec"><polygon fill="#181818" points="544.6978,234.9599,554.6978,238.9599,544.6978,242.9599,548.6978,238.9599" style="stroke:#181818;stroke-width:1;"/><line style="stroke:#181818;stroke-width:1;" x1="386.4346" x2="550.6978" y1="238.9599" y2="238.9599"/><text fill="#000000" font-family="sans-serif" font-size="13" lengthAdjust="spacing" textLength="146.2631" x="393.4346" y="233.1509">get_current_user(token)</text></g><g class="message" data-participant-1="Sec" data-participant-2="UserCtx"><polygon fill="#181818" points="397.4346,266.6659,387.4346,270.6659,397.4346,274.6659,393.4346,270.6659" style="stroke:#181818;stroke-width:1;"/><line style="stroke:#181818;stroke-width:1;stroke-dasharray:2,2;" x1="391.4346" x2="555.6978" y1="270.6659" y2="270.6659"/><text fill="#000000" font-family="sans-serif" font-size="13" lengthAdjust="spacing" textLength="57.4991" x="403.4346" y="264.8569">AuthUser</text></g><g class="message" data-participant-1="UserCtx" data-participant-2="ProjectCtl"><polygon fill="#181818" points="251.5881,298.3719,241.5881,302.3719,251.5881,306.3719,247.5881,302.3719" style="stroke:#181818;stroke-width:1;"/><line style="stroke:#181818;stroke-width:1;stroke-dasharray:2,2;" x1="245.5881" x2="385.4346" y1="302.3719" y2="302.3719"/><text fill="#000000" font-family="sans-serif" font-size="13" lengthAdjust="spacing" textLength="76.1411" x="257.5881" y="296.5629">UserContext</text></g><g class="message" data-participant-1="ProjectCtl" data-participant-2="UserProjSvc"><polygon fill="#181818" points="681.6003,330.0779,691.6003,334.0779,681.6003,338.0779,685.6003,334.0779" style="stroke:#181818;stroke-width:1;"/><line style="stroke:#181818;stroke-width:1;" x1="240.5881" x2="687.6003" y1="334.0779" y2="334.0779"/><text fill="#000000" font-family="sans-serif" font-size="13" lengthAdjust="spacing" textLength="154.2971" x="247.5881" y="328.2689">list_projects_for_user(ctx)</text></g><g class="message" data-participant-1="UserProjSvc" data-participant-2="ProjectCtl"><polygon fill="#181818" points="251.5881,361.784,241.5881,365.784,251.5881,369.784,247.5881,365.784" style="stroke:#181818;stroke-width:1;"/><line style="stroke:#181818;stroke-width:1;stroke-dasharray:2,2;" x1="245.5881" x2="692.6003" y1="365.784" y2="365.784"/><text fill="#000000" font-family="sans-serif" font-size="13" lengthAdjust="spacing" textLength="110.7081" x="257.5881" y="359.975">Sequence[Project]</text></g><g class="message" data-participant-1="ProjectCtl" data-participant-2="Web"><polygon fill="#181818" points="33.7629,393.49,23.7629,397.49,33.7629,401.49,29.7629,397.49" style="stroke:#181818;stroke-width:1;"/><line style="stroke:#181818;stroke-width:1;stroke-dasharray:2,2;" x1="27.7629" x2="229.5881" y1="397.49" y2="397.49"/><text fill="#000000" font-family="sans-serif" font-size="13" lengthAdjust="spacing" textLength="150.5142" x="39.7629" y="391.681">200 OK + [ProjectRead...]</text></g><!--SRC=[RP9FJyCm3CNl-HJMBcn2AnF72IQDlq88CL4G1vYga1e8H4b9t6hmwN7MbhKRfohsB_PxBoLD1c5UqZjQqaeIvk3ngyH0G0uE2ky-K54GGYfo7Xxn1MI87r58ppTq8It1O55pfywITyQW7qIihPBfqmy1VKHnHS0RAfqt5zODMlNf55NfDNtVkBmqkEQuj3knsPQYhxJ2ltcnd5PAYAXzFEk8WYbSdjzlJ3xR68Jp-aUITdOA9oWzUZYIIc48ivY1hZYZhZ6n1nSoq7nnnS45PoeCe6W5nt261Tey3D-GifA5PAgsF18T2IoeCSrgjidXIBHDvjXqmt0UdjzhpGx9VQ8TYTWTzwP5C_6qcR7jllCEuXzHJN8C6XqeQsFANfslLxFFMc5Bxcn8uxza5JurrMLl3TFnKQPmE9d0xJNiGylTeSoJ95cANm00]--></g></svg>