<svg xmlns="http://www.w3.org/2000/svg" xmlns:xlink="http://www.w3.org/1999/xlink" contentStyleType="text/css" data-diagram-type="SEQUENCE" height="608px" preserveAspectRatio="none" style="width:722px;height:608px;background:#FFFFFF;" version="1.1" viewBox="0 0 722 608" width="722px" zoomAndPan="magnify"><title>Sign-in (user not yet authenticated)</title><defs/><g><text fill="#000000" font-family="sans-serif" font-size="14" font-weight="bold" lengthAdjust="spacing" textLength="248.7231" x="236.1101" y="29.9659">Sign-in (user not yet authenticated)</text><g><title>Web</title><rect fill="#000000" fill-opacity="0.00000" height="400.4722" width="8" x="18.7629" y="124.1358"/><line style="stroke:#181818;stroke-width:0.5;stroke-dasharray:5,5;" x1="22" x2="22" y1="124.1358" y2="524.608"/></g><g><title>AuthController</title><rect fill="#000000" fill-opacity="0.00000" height="400.4722" width="8" x="241.7932" y="124.1358"/><line style="stroke:#181818;stroke-width:0.5;stroke-dasharray:5,5;" x1="245.0524" x2="245.0524" y1="124.1358" y2="524.608"/></g><g><title>AuthService</title><rect fill="#000000" fill-opacity="0.00000" height="400.4722" width="8" x="362.2923" y="124.1358"/><line style="stroke:#181818;stroke-width:0.5;stroke-dasharray:5,5;" x1="366.2884" x2="366.2884" y1="124.1358" y2="524.608"/></g><g><title>UserRepository</title><rect fill="#000000" fill-opacity="0.00000" height="400.4722" width="8" x="507.2574" y="124.1358"/><line style="stroke:#181818;stroke-width:0.5;stroke-dasharray:5,5;" x1="510.7245" x2="510.7245" y1="124.1358" y2="524.608"/></g><g><title>SecurityModule</title><rect fill="#000000" fill-opacity="0.00000" height="400.4722" width="8" x="654.7035" y="124.1358"/><line style="stroke:#181818;stroke-width:0.5;stroke-dasharray:5,5;" x1="658.4637" x2="658.4637" y1="124.1358" y2="524.608"/></g><g class="participant participant-head" data-participant="Web"><text fill="#000000" font-family="sans-serif" font-size="14" lengthAdjust="spacing" textLength="29.5259" x="5" y="120.0339">Web</text><ellipse cx="22.7629" cy="53.5679" fill="#E2E2F0" rx="8" ry="8" style="stroke:#181818;stroke-width:0.5;"/><path d="M22.7629,61.5679 L22.7629,88.5679 M9.7629,69.5679 L35.7629,69.5679 M22.7629,88.5679 L9.7629,103.5679 M22.7629,88.5679 L35.7629,103.5679" fill="none" style="stroke:#181818;stroke-width:0.5;"/></g><g class="participant participant-tail" data-participant="Web"><text fill="#000000" font-family="sans-serif" font-size="14" lengthAdjust="spacing" textLength="29.5259" x="5" y="538.574">Web</text><ellipse cx="22.7629" cy="551.1759" fill="#E2E2F0" rx="8" ry="8" style="stroke:#181818;stroke-width:0.5;"/><path d="M22.7629,559.1759 L22.7629,586.1759 M9.7629,567.1759 L35.7629,567.1759 M22.7629,586.1759 L9.7629,601.1759 M22.7629,586.1759 L35.7629,601.1759" fill="none" style="stroke:#181818;stroke-width:0.5;"/></g><g class="participant participant-head" data-participant="AuthCtl"><rect fill="#E2E2F0" height="33.0679" rx="2.5" ry="2.5" style="stroke:#181818;stroke-width:0.5;" width="111.4816" x="190.0524" y="90.0679"/><text fill="#000000" font-family="sans-serif" font-size="14" lengthAdjust="spacing" textLength="97.4816" x="197.0524" y="112.0339">AuthController</text></g><g class="participant participant-tail" data-participant="AuthCtl"><rect fill="#E2E2F0" height="33.0679" rx="2.5" ry="2.5" style="stroke:#181818;stroke-width:0.5;" width="111.4816" x="190.0524" y="523.608"/><text fill="#000000" font-family="sans-serif" font-size="14" lengthAdjust="spacing" textLength="97.4816" x="197.0524" y="545.574">AuthController</text></g><g class="participant participant-head" data-participant="AuthSvc"><rect fill="#E2E2F0" height="33.0679" rx="2.5" ry="2.5" style="stroke:#181818;stroke-width:0.5;" width="92.0077" x="320.2884" y="90.0679"/><text fill="#000000" font-family="sans-serif" font-size="14" lengthAdjust="spacing" textLength="78.0077" x="327.2884" y="112.0339">AuthService</text></g><g class="participant participant-tail" data-participant="AuthSvc"><rect fill="#E2E2F0" height="33.0679" rx="2.5" ry="2.5" style="stroke:#181818;stroke-width:0.5;" width="92.0077" x="320.2884" y="523.608"/><text fill="#000000" font-family="sans-serif" font-size="14" lengthAdjust="spacing" textLength="78.0077" x="327.2884" y="545.574">AuthService</text></g><g class="participant participant-head" data-participant="UserRepo"><rect fill="#E2E2F0" height="33.0679" rx="2.5" ry="2.5" style="stroke:#181818;stroke-width:0.5;" width="115.0656" x="453.7245" y="90.0679"/><text fill="#000000" font-family="sans-serif" font-size="14" lengthAdjust="spacing" textLength="101.0656" x="460.7245" y="112.0339">UserRepository</text></g><g class="participant participant-tail" data-participant="UserRepo"><rect fill="#E2E2F0" height="33.0679" rx="2.5" ry="2.5" style="stroke:#181818;stroke-width:0.5;" width="115.0656" x="453.7245" y="523.608"/><text fill="#000000" font-family="sans-serif" font-size="14" lengthAdjust="spacing" textLength="101.0656" x="460.7245" y="545.574">UserRepository</text></g><g class="participant participant-head" data-participant="Sec"><rect fill="#E2E2F0" height="33.0679" rx="2.5" ry="2.5" style="stroke:#181818;stroke-width:0.5;" width="116.4796" x="600.4637" y="90.0679"/><text fill="#000000" font-family="sans-serif" font-size="14" lengthAdjust="spacing" textLength="102.4796" x="607.4637" y="112.0339">SecurityModule</text></g><g class="participant participant-tail" data-participant="Sec"><rect fill="#E2E2F0" height="33.0679" rx="2.5" ry="2.5" style="stroke:#181818;stroke-width:0.5;" width="116.4796" x="600.4637" y="523.608"/><text fill="#000000" font-family="sans-serif" font-size="14" lengthAdjust="spacing" textLength="102.4796" x="607.4637" y="545.574">SecurityModule</text></g><g class="message" data-participant-1="Web" data-participant-2="AuthCtl"><polygon fill="#181818" points="233.7932,153.8419,243.7932,157.8419,233.7932,161.8419,237.7932,157.8419" style="stroke:#181818;stroke-width:1;"/><line style="stroke:#181818;stroke-width:1;" x1="22.7629" x2="239.7932" y1="157.8419" y2="157.8419"/><text fill="#000000" font-family="sans-serif" font-size="13" lengthAdjust="spacing" textLength="199.0302" x="29.7629" y="152.0328">POST /auth/login (LoginRequest)</text></g><g class="message" data-participant-1="AuthCtl" data-participant-2="AuthSvc"><polygon fill="#181818" points="354.2923,185.5479,364.2923,189.5479,354.2923,193.5479,358.2923,189.5479" style="stroke:#181818;stroke-width:1;"/><line style="stroke:#181818;stroke-width:1;" x1="245.7932" x2="360.2923" y1="189.5479" y2="189.5479"/><text fill="#000000" font-family="sans-serif" font-size="13" lengthAdjust="spacing" textLength="86.8271" x="252.7932" y="183.7389">login(payload)</text></g><g class="message" data-participant-1="AuthSvc" data-participant-2="UserRepo"><polygon fill="#181818" points="499.2574,217.2539,509.2574,221.2539,499.2574,225.2539,503.2574,221.2539" style="stroke:#181818;stroke-width:1;"/><line style="stroke:#181818;stroke-width:1;" x1="366.2923" x2="505.2574" y1="221.2539" y2="221.2539"/><text fill="#000000" font-family="sans-serif" font-size="13" lengthAdjust="spacing" textLength="120.9651" x="373.2923" y="215.4449">get_by_email(email)</text></g><g class="message" data-participant-1="UserRepo" data-participant-2="AuthSvc"><polygon fill="#181818" points="377.2923,248.9599,367.2923,252.9599,377.2923,256.9599,373.2923,252.9599" style="stroke:#181818;stroke-width:1;"/><line style="stroke:#181818;stroke-width:1;stroke-dasharray:2,2;" x1="371.2923" x2="510.2574" y1="252.9599" y2="252.9599"/><text fill="#000000" font-family="sans-serif" font-size="13" lengthAdjust="spacing" textLength="28.431" x="383.2923" y="247.1509">User</text></g><g class="message" data-participant-1="AuthSvc" data-participant-2="Sec"><polygon fill="#181818" points="646.7035,280.6659,656.7035,284.6659,646.7035,288.6659,650.7035,284.6659" style="stroke:#181818;stroke-width:1;"/><line style="stroke:#181818;stroke-width:1;" x1="366.2923" x2="652.7035" y1="284.6659" y2="284.6659"/><text fill="#000000" font-family="sans-serif" font-size="13" lengthAdjust="spacing" textLength="268.4113" x="373.2923" y="278.8569">verify_password(plain, user.password_hash)</text></g><g class="message" data-participant-1="Sec" data-participant-2="AuthSvc"><polygon fill="#181818" points="377.2923,312.3719,367.2923,316.3719,377.2923,320.3719,373.2923,316.3719" style="stroke:#181818;stroke-width:1;"/><line style="stroke:#181818;stroke-width:1;stroke-dasharray:2,2;" x1="371.2923" x2="657.7035" y1="316.3719" y2="316.3719"/><text fill="#000000" font-family="sans-serif" font-size="13" lengthAdjust="spacing" textLength="27.079" x="383.2923" y="310.5629">bool</text></g><g class="message" data-participant-1="AuthSvc" data-participant-2="Sec"><polygon fill="#181818" points="646.7035,344.0779,656.7035,348.0779,646.7035,352.0779,650.7035,348.0779" style="stroke:#181818;stroke-width:1;"/><line style="stroke:#181818;stroke-width:1;" x1="366.2923" x2="652.7035" y1="348.0779" y2="348.0779"/><text fill="#000000" font-family="sans-serif" font-size="13" lengthAdjust="spacing" textLength="189.5271" x="373.2923" y="342.2689">create_access_token(AuthUser)</text></g><g class="message" data-participant-1="Sec" data-participant-2="AuthSvc"><polygon fill="#181818" points="377.2923,375.784,367.2923,379.784,377.2923,383.784,373.2923,379.784" style="stroke:#181818;stroke-width:1;"/><line style="stroke:#181818;stroke-width:1;stroke-dasharray:2,2;" x1="371.2923" x2="657.7035" y1="379.784" y2="379.784"/><text fill="#000000" font-family="sans-serif" font-size="13" lengthAdjust="spacing" textLength="80.1971" x="383.2923" y="373.975">access_token</text></g><g class="message" data-participant-1="AuthSvc" data-participant-2="Sec"><polygon fill="#181818" points="646.7035,407.49,656.7035,411.49,646.7035,415.49,650.7035,411.49" style="stroke:#181818;stroke-width:1;"/><line style="stroke:#181818;stroke-width:1;" x1="366.2923" x2="652.7035" y1="411.49" y2="411.49"/><text fill="#000000" font-family="sans-serif" font-size="13" lengthAdjust="spacing" textLength="194.1031" x="373.2923" y="405.681">create_refresh_token(AuthUser)</text></g><g class="message" data-participant-1="Sec" data-participant-2="AuthSvc"><polygon fill="#181818" points="377.2923,439.196,367.2923,443.196,377.2923,447.196,373.2923,443.196" style="stroke:#181818;stroke-width:1;"/><line style="stroke:#181818;stroke-width:1;stroke-dasharray:2,2;" x1="371.2923" x2="657.7035" y1="443.196" y2="443.196"/><text fill="#000000" font-family="sans-serif" font-size="13" lengthAdjust="spacing" textLength="84.7731" x="383.2923" y="437.387">refresh_token</text></g><g class="message" data-participant-1="AuthSvc" data-participant-2="AuthCtl"><polygon fill="#181818" points="256.7932,470.902,246.7932,474.902,256.7932,478.902,252.7932,474.902" style="stroke:#181818;stroke-width:1;"/><line style="stroke:#181818;stroke-width:1;stroke-dasharray:2,2;" x1="250.7932" x2="365.2923" y1="474.902" y2="474.902"/><text fill="#000000" font-family="sans-serif" font-size="13" lengthAdjust="spacing" textLength="96.4991" x="262.7932" y="469.093">TokenResponse</text></g><g class="message" data-participant-1="AuthCtl" data-participant-2="Web"><polygon fill="#181818" points="33.7629,502.608,23.7629,506.608,33.7629,510.608,29.7629,506.608" style="stroke:#181818;stroke-width:1;"/><line style="stroke:#181818;stroke-width:1;stroke-dasharray:2,2;" x1="27.7629" x2="244.7932" y1="506.608" y2="506.608"/><text fill="#000000" font-family="sans-serif" font-size="13" lengthAdjust="spacing" textLength="154.5831" x="39.7629" y="500.799">200 OK + TokenResponse</text></g><!--SRC=[ZP71JiCm44Jl_efLJucWjEBO0nBY2AYeAU8OkUusiJ2siJT5-NkyWPGQMebBBCs-7OypfCaWLBgnKssXw286i8wWHmBPKOkMj9A4sr88gSW5UC4DoCY7y3AagVRI4ank4ttdB0Ld38O9CuD4vYzNOTXhXGUesgiSUauvLkXTrEdAVk16AGShL5tGr3-wRMU-39Ca1AUStem9O05FoseDCtxIpBY6t_h0nmhVEunKYf7yNag9qj905bxsnad-0-CaGMESH3L8zQQlyKrgKmpVKXp6qyoGvSmcXKto7eFUzRMNCNwui2syaTfU0hTnDOfrAsDR2bx8FJVEcHEUAc3ghPPAOOmrkLUq1KCSuPJDCNZMBU0kO6p_OPUHH_6oKjOyN67qpaRygI0ntDy2hkTpMDx3nI_m4m00]--></g></svg>