<svg xmlns="http://www.w3.org/2000/svg" xmlns:xlink="http://www.w3.org/1999/xlink" contentStyleType="text/css" data-diagram-type="SEQUENCE" height="435px" preserveAspectRatio="none" style="width:541px;height:435px;background:#FFFFFF;" version="1.1" viewBox="0 0 541 435" width="541px" zoomAndPan="magnify"><title>Unauthorized request to /projects</title><defs/><g><text fill="#000000" font-family="sans-serif" font-size="14" font-weight="bold" lengthAdjust="spacing" textLength="238.0691" x="150.6737" y="29.9659">Unauthorized request to /projects</text><g><title>ProjectController</title><rect fill="#FFFFFF" height="126.8241" style="stroke:#181818;stroke-width:1;" width="10" x="151.067" y="175.5479"/></g><g><title>Web</title><rect fill="#000000" fill-opacity="0.00000" height="227.9421" width="8" x="18.7629" y="124.1358"/><line style="stroke:#181818;stroke-width:0.5;stroke-dasharray:5,5;" x1="22" x2="22" y1="124.1358" y2="352.0779"/></g><g><title>ProjectController</title><rect fill="#000000" fill-opacity="0.00000" height="227.9421" width="8" x="152.067" y="124.1358"/><line style="stroke:#181818;stroke-width:0.5;stroke-dasharray:5,5;" x1="155.9762" x2="155.9762" y1="124.1358" y2="352.0779"/></g><g><title>UserContext provider</title><rect fill="#000000" fill-opacity="0.00000" height="227.9421" width="8" x="302.9136" y="124.1358"/><line style="stroke:#181818;stroke-width:0.5;stroke-dasharray:5,5;" x1="306.1578" x2="306.1578" y1="124.1358" y2="352.0779"/></g><g><title>SecurityModule</title><rect fill="#000000" fill-opacity="0.00000" height="227.9421" width="8" x="473.1767" y="124.1358"/><line style="stroke:#181818;stroke-width:0.5;stroke-dasharray:5,5;" x1="476.9369" x2="476.9369" y1="124.1358" y2="352.0779"/></g><g class="participant participant-head" data-participant="Web"><text fill="#000000" font-family="sans-serif" font-size="14" lengthAdjust="spacing" textLength="29.5259" x="5" y="120.0339">Web</text><ellipse cx="22.7629" cy="53.5679" fill="#E2E2F0" rx="8" ry="8" style="stroke:#181818;stroke-width:0.5;"/><path d="M22.7629,61.5679 L22.7629,88.5679 M9.7629,69.5679 L35.7629,69.5679 M22.7629,88.5679 L9.7629,103.5679 M22.7629,88.5679 L35.7629,103.5679" fill="none" style="stroke:#181818;stroke-width:0.5;"/></g><g class="participant participant-tail" data-participant="Web"><text fill="#000000" font-family="sans-serif" font-size="14" lengthAdjust="spacing" textLength="29.5259" x="5" y="366.0439">Web</text><ellipse cx="22.7629" cy="378.6459" fill="#E2E2F0" rx="8" ry="8" style="stroke:#181818;stroke-width:0.5;"/><path d="M22.7629,386.6459 L22.7629,413.6459 M9.7629,394.6459 L35.7629,394.6459 M22.7629,413.6459 L9.7629,428.6459 M22.7629,413.6459 L35.7629,428.6459" fill="none" style="stroke:#181818;stroke-width:0.5;"/></g><g class="participant participant-head" data-participant="ProjectCtl"><rect fill="#E2E2F0" height="33.0679" rx="2.5" ry="2.5" style="stroke:#181818;stroke-width:0.5;" width="126.1816" x="92.9762" y="90.0679"/><text fill="#000000" font-family="sans-serif" font-size="14" lengthAdjust="spacing" textLength="112.1816" x="99.9762" y="112.0339">ProjectController</text></g><g class="participant participant-tail" data-participant="ProjectCtl"><rect fill="#E2E2F0" height="33.0679" rx="2.5" ry="2.5" style="stroke:#181818;stroke-width:0.5;" width="126.1816" x="92.9762" y="351.0779"/><text fill="#000000" font-family="sans-serif" font-size="14" lengthAdjust="spacing" textLength="112.1816" x="99.9762" y="373.0439">ProjectController</text></g><g class="participant participant-head" data-participant="UserCtx"><rect fill="#E2E2F0" height="33.0679" rx="2.5" ry="2.5" style="stroke:#181818;stroke-width:0.5;" width="155.5115" x="229.1578" y="90.0679"/><text fill="#000000" font-family="sans-serif" font-size="14" lengthAdjust="spacing" textLength="141.5115" x="236.1578" y="112.0339">UserContext provider</text></g><g class="participant participant-tail" data-participant="UserCtx"><rect fill="#E2E2F0" height="33.0679" rx="2.5" ry="2.5" style="stroke:#181818;stroke-width:0.5;" width="155.5115" x="229.1578" y="351.0779"/><text fill="#000000" font-family="sans-serif" font-size="14" lengthAdjust="spacing" textLength="141.5115" x="236.1578" y="373.0439">UserContext provider</text></g><g class="participant participant-head" data-participant="Sec"><rect fill="#E2E2F0" height="33.0679" rx="2.5" ry="2.5" style="stroke:#181818;stroke-width:0.5;" width="116.4796" x="418.9369" y="90.0679"/><text fill="#000000" font-family="sans-serif" font-size="14" lengthAdjust="spacing" textLength="102.4796" x="425.9369" y="112.0339">SecurityModule</text></g><g class="participant participant-tail" data-participant="Sec"><rect fill="#E2E2F0" height="33.0679" rx="2.5" ry="2.5" style="stroke:#181818;stroke-width:0.5;" width="116.4796" x="418.9369" y="351.0779"/><text fill="#000000" font-family="sans-serif" font-size="14" lengthAdjust="spacing" textLength="102.4796" x="425.9369" y="373.0439">SecurityModule</text></g><g><title>ProjectController</title><rect fill="#FFFFFF" height="126.8241" style="stroke:#181818;stroke-width:1;" width="10" x="151.067" y="175.5479"/></g><g class="message" data-participant-1="Web" data-participant-2="ProjectCtl"><polygon fill="#181818" points="139.067,171.5479,149.067,175.5479,139.067,179.5479,143.067,175.5479" style="stroke:#181818;stroke-width:1;"/><line style="stroke:#181818;stroke-width:1;" x1="22.7629" x2="145.067" y1="175.5479" y2="175.5479"/><text fill="#000000" font-family="sans-serif" font-size="13" lengthAdjust="spacing" textLength="81.2111" x="29.7629" y="152.0328">GET /projects</text><text fill="#000000" font-family="sans-serif" font-size="13" lengthAdjust="spacing" textLength="105.2221" x="29.7629" y="169.7389">(no or bad token)</text></g><g class="message" data-participant-1="ProjectCtl" data-participant-2="UserCtx"><polygon fill="#181818" points="294.9136,203.2539,304.9136,207.2539,294.9136,211.2539,298.9136,207.2539" style="stroke:#181818;stroke-width:1;"/><line style="stroke:#181818;stroke-width:1;" x1="161.067" x2="300.9136" y1="207.2539" y2="207.2539"/><text fill="#000000" font-family="sans-serif" font-size="13" lengthAdjust="spacing" textLength="112.0601" x="168.067" y="201.4449">get_user_context()</text></g><g class="message" data-participant-1="UserCtx" data-participant-2="Sec"><polygon fill="#181818" points="465.1767,234.9599,475.1767,238.9599,465.1767,242.9599,469.1767,238.9599" style="stroke:#181818;stroke-width:1;"/><line style="stroke:#181818;stroke-width:1;" x1="306.9136" x2="471.1767" y1="238.9599" y2="238.9599"/><text fill="#000000" font-family="sans-serif" font-size="13" lengthAdjust="spacing" textLength="146.2631" x="313.9136" y="233.1509">get_current_user(token)</text></g><g class="message" data-participant-1="Sec" data-participant-2="UserCtx"><polygon fill="#181818" points="317.9136,266.6659,307.9136,270.6659,317.9136,274.6659,313.9136,270.6659" style="stroke:#181818;stroke-width:1;"/><line style="stroke:#181818;stroke-width:1;stroke-dasharray:2,2;" x1="311.9136" x2="476.1767" y1="270.6659" y2="270.6659"/><text fill="#000000" font-family="sans-serif" font-size="13" lengthAdjust="spacing" textLength="121.6801" x="323.9136" y="264.8569">HTTPException(401)</text></g><g class="message" data-participant-1="UserCtx" data-participant-2="ProjectCtl"><polygon fill="#181818" points="167.067,298.3719,157.067,302.3719,167.067,306.3719,163.067,302.3719" style="stroke:#181818;stroke-width:1;"/><line style="stroke:#181818;stroke-width:1;stroke-dasharray:2,2;" x1="161.067" x2="305.9136" y1="302.3719" y2="302.3719"/><text fill="#000000" font-family="sans-serif" font-size="13" lengthAdjust="spacing" textLength="98.5141" x="173.067" y="296.5629">propagate error</text></g><g class="message" data-participant-1="ProjectCtl" data-participant-2="Web"><polygon fill="#181818" points="33.7629,330.0779,23.7629,334.0779,33.7629,338.0779,29.7629,334.0779" style="stroke:#181818;stroke-width:1;"/><line style="stroke:#181818;stroke-width:1;stroke-dasharray:2,2;" x1="27.7629" x2="155.067" y1="334.0779" y2="334.0779"/><text fill="#000000" font-family="sans-serif" font-size="13" lengthAdjust="spacing" textLength="109.3041" x="39.7629" y="328.2689">401 Unauthorized</text></g><!--SRC=[XP6nJWCn38RtF8NLwJfKWCJKWGLLi21LuYeMf2fDh1A8uk1pgeEdn-bTnHqBKvJuo-_FYGI92BjaYxmHXs_qmFXPi1CGWglCz8vEEcEi4s9umGFOhYucMvRWGhP9OB4Tk7jAmXGZyg9YbrE9SthN8LSKUm7jS0f-l70kI3-ddz4L3lBrHBv4F7DwP4nrMTrDci0Q7ZRjh_HhQXA1MX-irsa-C2th6E5a1QTkPXAXWQE4fXrHzaLtUpV8DajpAIgd4YEZVenfO9knKQskPccFRRlTz0wp14hDxVND9Etl73f2jiVgYSp4nkE_uXfHNsGDcZpxKFC3]--></g></svg>